SplineFontDB: 3.2
FontName: B612Mono-Regular-CR6
FullName: B612 Mono Regular CR6
FamilyName: B612 Mono-CR6
Weight: Regular
Copyright: Copyright 2012 The B612 Project Authors (https://github.com/polarsys/b612)
Version: 1.008
ItalicAngle: 0
UnderlinePosition: -300
UnderlineWidth: 100
Ascent: 1600
Descent: 400
InvalidEm: 0
sfntRevision: 0x0001020c
LayerCount: 2
Layer: 0 1 "Arri+AOgA-re" 1
Layer: 1 1 "Avant" 0
XUID: [1021 836 1105377829 13164]
StyleMap: 0x0040
FSType: 0
OS2Version: 3
OS2_WeightWidthSlopeOnly: 0
OS2_UseTypoMetrics: 0
CreationTime: 1511794680
ModificationTime: 1607261596
PfmFamily: 17
TTFWeight: 400
TTFWidth: 5
LineGap: 0
VLineGap: 0
Panose: 2 11 6 9 5 0 0 2 0 4
OS2TypoAscent: 1930
OS2TypoAOffset: 0
OS2TypoDescent: -500
OS2TypoDOffset: 0
OS2TypoLinegap: 0
OS2WinAscent: 1966
OS2WinAOffset: 0
OS2WinDescent: 712
OS2WinDOffset: 0
HheadAscent: 1930
HheadAOffset: 0
HheadDescent: -500
HheadDOffset: 0
OS2SubXSize: 1300
OS2SubYSize: 1399
OS2SubXOff: 0
OS2SubYOff: 279
OS2SupXSize: 1300
OS2SupYSize: 1399
OS2SupXOff: 0
OS2SupYOff: 960
OS2StrikeYSize: 100
OS2StrikeYPos: 500
OS2CapHeight: 1500
OS2XHeight: 1100
OS2FamilyClass: 2053
OS2Vendor: '    '
OS2CodePages: 20000011.81d40000
OS2UnicodeRanges: 80000027.0000006b.00000000.00000000
MarkAttachClasses: 1
DEI: 91125
TtTable: prep
PUSHW_1
 511
SCANCTRL
PUSHB_1
 4
SCANTYPE
EndTTInstrs
TtTable: fpgm
PUSHW_1
 0
FDEF
MPPEM
PUSHW_1
 9
LT
IF
PUSHB_2
 1
 1
INSTCTRL
EIF
PUSHW_1
 511
SCANCTRL
PUSHW_1
 68
SCVTCI
PUSHW_2
 9
 3
SDS
SDB
ENDF
PUSHW_1
 1
FDEF
DUP
DUP
RCVT
ROUND[Black]
WCVTP
PUSHB_1
 1
ADD
ENDF
PUSHW_1
 2
FDEF
PUSHW_1
 1
LOOPCALL
POP
ENDF
PUSHW_1
 3
FDEF
DUP
GC[cur]
PUSHB_1
 3
CINDEX
GC[cur]
GT
IF
SWAP
EIF
DUP
ROLL
DUP
ROLL
MD[grid]
ABS
ROLL
DUP
GC[cur]
DUP
ROUND[Grey]
SUB
ABS
PUSHB_1
 4
CINDEX
GC[cur]
DUP
ROUND[Grey]
SUB
ABS
GT
IF
SWAP
NEG
ROLL
EIF
MDAP[rnd]
DUP
PUSHB_1
 0
GTEQ
IF
ROUND[Black]
DUP
PUSHB_1
 0
EQ
IF
POP
PUSHB_1
 64
EIF
ELSE
ROUND[Black]
DUP
PUSHB_1
 0
EQ
IF
POP
PUSHB_1
 64
NEG
EIF
EIF
MSIRP[no-rp0]
ENDF

StartChar: .notdef
Encoding: 65536 -1 0
Width: 1300
Flags: W
LayerCount: 2
Fore
SplineSet
100 1500 m 1,0,-1
 1200 1500 l 1,1,-1
 1200 0 l 1,2,-1
 100 0 l 1,3,-1
 100 1500 l 1,0,-1
200 100 m 1,4,-1
 1100 100 l 1,5,-1
 1100 1400 l 1,6,-1
 200 1400 l 1,7,-1
 200 100 l 1,4,-1
EndSplineSet
EndChar

StartChar: exclam
Encoding: 33 33 2
Width: 1300
Flags: W
LayerCount: 2
Fore
SplineSet
605 1500 m 1,0,-1
 605 450 l 1,1,-1
 395 429 l 1,2,-1
 395 1500 l 1,3,-1
 605 1500 l 1,0,-1
378 106 m 256,4,5
 378 131 378 131 387.5 153 c 128,-1,6
 397 175 397 175 413.5 191.5 c 128,-1,7
 430 208 430 208 452 217.5 c 128,-1,8
 474 227 474 227 499 227 c 256,9,10
 524 227 524 227 546 217.5 c 128,-1,11
 568 208 568 208 584.5 191.5 c 128,-1,12
 601 175 601 175 610.5 153 c 128,-1,13
 620 131 620 131 620 106 c 256,14,15
 620 81 620 81 610.5 58.5 c 128,-1,16
 601 36 601 36 585 19.5 c 128,-1,17
 569 3 569 3 547 -7 c 128,-1,18
 525 -17 525 -17 500 -17 c 0,19,20
 474 -17 474 -17 452 -7 c 128,-1,21
 430 3 430 3 413.5 19.5 c 128,-1,22
 397 36 397 36 387.5 58.5 c 128,-1,23
 378 81 378 81 378 106 c 256,4,5
EndSplineSet
EndChar

StartChar: quotedbl
Encoding: 34 34 3
Width: 1300
Flags: W
LayerCount: 2
Fore
SplineSet
525 1500 m 1,0,-1
 525 1400 l 2,1,2
 525 1381 525 1381 523 1357 c 128,-1,3
 521 1333 521 1333 517.5 1306 c 128,-1,4
 514 1279 514 1279 510 1251 c 128,-1,5
 506 1223 506 1223 502 1196 c 2,6,-1
 481 1067 l 1,7,-1
 394 1067 l 1,8,-1
 372 1196 l 2,9,10
 367 1223 367 1223 363 1251 c 128,-1,11
 359 1279 359 1279 356 1306 c 128,-1,12
 353 1333 353 1333 351.5 1357 c 128,-1,13
 350 1381 350 1381 350 1400 c 2,14,-1
 350 1500 l 1,15,-1
 525 1500 l 1,0,-1
826 1500 m 1,16,-1
 826 1400 l 2,17,18
 826 1381 826 1381 824 1357 c 128,-1,19
 822 1333 822 1333 818.5 1306 c 128,-1,20
 815 1279 815 1279 811 1251 c 128,-1,21
 807 1223 807 1223 803 1196 c 2,22,-1
 782 1067 l 1,23,-1
 695 1067 l 1,24,-1
 673 1196 l 2,25,26
 668 1223 668 1223 664 1251 c 128,-1,27
 660 1279 660 1279 657 1306 c 128,-1,28
 654 1333 654 1333 652.5 1357 c 128,-1,29
 651 1381 651 1381 651 1400 c 2,30,-1
 651 1500 l 1,31,-1
 826 1500 l 1,16,-1
EndSplineSet
EndChar

StartChar: numbersign
Encoding: 35 35 4
Width: 1300
Flags: W
LayerCount: 2
Fore
SplineSet
1028 950 m 1,0,-1
 978 550 l 1,1,-1
 1250 550 l 1,2,-1
 1230 400 l 1,3,-1
 961 400 l 1,4,-1
 911 0 l 1,5,-1
 710 -20 l 1,6,-1
 764 400 l 1,7,-1
 491 400 l 1,8,-1
 443 0 l 1,9,-1
 243 -20 l 1,10,-1
 294 400 l 1,11,-1
 100 400 l 1,12,-1
 100 550 l 1,13,-1
 311 550 l 1,14,-1
 362 950 l 1,15,-1
 100 950 l 1,16,-1
 120 1100 l 1,17,-1
 379 1100 l 1,18,-1
 403 1285 l 1,19,-1
 403 1500 l 1,20,-1
 629 1520 l 1,21,-1
 576 1100 l 1,22,-1
 849 1100 l 1,23,-1
 897 1500 l 1,24,-1
 1098 1520 l 1,25,-1
 1047 1100 l 1,26,-1
 1250 1100 l 1,27,-1
 1250 950 l 1,28,-1
 1028 950 l 1,0,-1
830 950 m 1,29,-1
 559 950 l 1,30,-1
 510 550 l 1,31,-1
 781 550 l 1,32,-1
 830 950 l 1,29,-1
EndSplineSet
EndChar

StartChar: dollar
Encoding: 36 36 5
Width: 1300
Flags: W
LayerCount: 2
Fore
SplineSet
992 1300 m 1,0,1
 975 1314 975 1314 949 1328.5 c 128,-1,2
 923 1343 923 1343 891 1355 c 128,-1,3
 859 1367 859 1367 822 1376 c 128,-1,4
 785 1385 785 1385 746 1388 c 1,5,-1
 746 863 l 1,6,7
 815 831 815 831 882.5 794 c 128,-1,8
 950 757 950 757 1003.5 707 c 128,-1,9
 1057 657 1057 657 1090 590 c 128,-1,10
 1123 523 1123 523 1123 432 c 0,11,12
 1123 339 1123 339 1095 264.5 c 128,-1,13
 1067 190 1067 190 1017 135 c 128,-1,14
 967 80 967 80 897.5 45 c 128,-1,15
 828 10 828 10 746 -5 c 1,16,-1
 746 -200 l 1,17,-1
 600 -200 l 1,18,-1
 600 -17 l 1,19,20
 542 -16 542 -16 485 -5.5 c 128,-1,21
 428 5 428 5 376.5 21 c 128,-1,22
 325 37 325 37 281 57.5 c 128,-1,23
 237 78 237 78 205 100 c 1,24,-1
 323 241 l 1,25,26
 343 228 343 228 369 212 c 128,-1,27
 395 196 395 196 429 181.5 c 128,-1,28
 463 167 463 167 505 157.5 c 128,-1,29
 547 148 547 148 600 148 c 1,30,-1
 600 721 l 1,31,32
 531 755 531 755 463 792 c 128,-1,33
 395 829 395 829 342 875 c 128,-1,34
 289 921 289 921 256 979.5 c 128,-1,35
 223 1038 223 1038 223 1116 c 0,36,37
 223 1221 223 1221 254.5 1294 c 128,-1,38
 286 1367 286 1367 338 1414 c 128,-1,39
 390 1461 390 1461 458 1485 c 128,-1,40
 526 1509 526 1509 600 1517 c 1,41,-1
 600 1700 l 1,42,-1
 746 1720 l 1,43,-1
 746 1517 l 1,44,45
 852 1511 852 1511 934.5 1481 c 128,-1,46
 1017 1451 1017 1451 1086 1400 c 1,47,-1
 992 1300 l 1,0,1
933 400 m 0,48,49
 933 445 933 445 916 482.5 c 128,-1,50
 899 520 899 520 870 551.5 c 128,-1,51
 841 583 841 583 801 610 c 128,-1,52
 761 637 761 637 716 662 c 1,53,-1
 716 158 l 1,54,55
 765 167 765 167 805 186 c 128,-1,56
 845 205 845 205 873.5 234.5 c 128,-1,57
 902 264 902 264 917.5 305 c 128,-1,58
 933 346 933 346 933 400 c 0,48,49
413 1147 m 0,59,60
 413 1106 413 1106 430 1073 c 128,-1,61
 447 1040 447 1040 476 1012.5 c 128,-1,62
 505 985 505 985 545 961.5 c 128,-1,63
 585 938 585 938 630 916 c 1,64,-1
 630 1383 l 1,65,66
 589 1376 589 1376 550.5 1360.5 c 128,-1,67
 512 1345 512 1345 481 1317 c 128,-1,68
 450 1289 450 1289 431.5 1247 c 128,-1,69
 413 1205 413 1205 413 1147 c 0,59,60
EndSplineSet
EndChar

StartChar: percent
Encoding: 37 37 6
Width: 1300
Flags: W
LayerCount: 2
Fore
SplineSet
395 0 m 1,0,-1
 229 0 l 1,1,-1
 905 1500 l 1,2,-1
 1071 1500 l 1,3,-1
 395 0 l 1,0,-1
359 800 m 0,4,5
 289 800 289 800 239.5 827.5 c 128,-1,6
 190 855 190 855 159 903.5 c 128,-1,7
 128 952 128 952 114 1018.5 c 128,-1,8
 100 1085 100 1085 100 1162 c 0,9,10
 100 1238 100 1238 113 1303.5 c 128,-1,11
 126 1369 126 1369 156.5 1416 c 128,-1,12
 187 1463 187 1463 236.5 1490 c 128,-1,13
 286 1517 286 1517 359 1517 c 0,14,15
 429 1517 429 1517 478 1490 c 128,-1,16
 527 1463 527 1463 558 1416 c 128,-1,17
 589 1369 589 1369 603 1303.5 c 128,-1,18
 617 1238 617 1238 617 1162 c 0,19,20
 617 1085 617 1085 603.5 1018.5 c 128,-1,21
 590 952 590 952 560 903.5 c 128,-1,22
 530 855 530 855 480.5 827.5 c 128,-1,23
 431 800 431 800 359 800 c 0,4,5
468 1210 m 2,24,25
 468 1245 468 1245 465 1277 c 128,-1,26
 462 1309 462 1309 451 1333 c 128,-1,27
 440 1357 440 1357 418 1371.5 c 128,-1,28
 396 1386 396 1386 358 1386 c 0,29,30
 321 1386 321 1386 300 1373 c 128,-1,31
 279 1360 279 1360 268.5 1338 c 128,-1,32
 258 1316 258 1316 255 1286.5 c 128,-1,33
 252 1257 252 1257 252 1224 c 2,34,-1
 252 1123 l 2,35,36
 252 1087 252 1087 255 1054.5 c 128,-1,37
 258 1022 258 1022 269 997.5 c 128,-1,38
 280 973 280 973 302.5 958.5 c 128,-1,39
 325 944 325 944 363 944 c 0,40,41
 399 944 399 944 420 957 c 128,-1,42
 441 970 441 970 451.5 992 c 128,-1,43
 462 1014 462 1014 465 1043.5 c 128,-1,44
 468 1073 468 1073 468 1105 c 2,45,-1
 468 1210 l 2,24,25
942 -17 m 0,46,47
 872 -17 872 -17 822.5 10.5 c 128,-1,48
 773 38 773 38 742 86.5 c 128,-1,49
 711 135 711 135 697 201.5 c 128,-1,50
 683 268 683 268 683 345 c 0,51,52
 683 421 683 421 696 486.5 c 128,-1,53
 709 552 709 552 739.5 599 c 128,-1,54
 770 646 770 646 819.5 673 c 128,-1,55
 869 700 869 700 942 700 c 0,56,57
 1012 700 1012 700 1061 673 c 128,-1,58
 1110 646 1110 646 1141 599 c 128,-1,59
 1172 552 1172 552 1186 486.5 c 128,-1,60
 1200 421 1200 421 1200 345 c 0,61,62
 1200 268 1200 268 1186.5 201.5 c 128,-1,63
 1173 135 1173 135 1143 86.5 c 128,-1,64
 1113 38 1113 38 1063.5 10.5 c 128,-1,65
 1014 -17 1014 -17 942 -17 c 0,46,47
1051 393 m 2,66,67
 1051 428 1051 428 1048 460 c 128,-1,68
 1045 492 1045 492 1034 516 c 128,-1,69
 1023 540 1023 540 1001 554.5 c 128,-1,70
 979 569 979 569 941 569 c 0,71,72
 904 569 904 569 883 556 c 128,-1,73
 862 543 862 543 851.5 521 c 128,-1,74
 841 499 841 499 838 469.5 c 128,-1,75
 835 440 835 440 835 407 c 2,76,-1
 835 306 l 2,77,78
 835 270 835 270 838 237.5 c 128,-1,79
 841 205 841 205 852 180.5 c 128,-1,80
 863 156 863 156 885.5 141.5 c 128,-1,81
 908 127 908 127 946 127 c 0,82,83
 982 127 982 127 1003 140 c 128,-1,84
 1024 153 1024 153 1034.5 175 c 128,-1,85
 1045 197 1045 197 1048 226.5 c 128,-1,86
 1051 256 1051 256 1051 288 c 2,87,-1
 1051 393 l 2,66,67
EndSplineSet
EndChar

StartChar: ampersand
Encoding: 38 38 7
Width: 1300
Flags: W
LayerCount: 2
Fore
SplineSet
1176 721 m 1,0,1
 1176 642 1176 642 1168.5 562.5 c 128,-1,2
 1161 483 1161 483 1139.5 408 c 128,-1,3
 1118 333 1118 333 1080.5 265 c 128,-1,4
 1043 197 1043 197 983 141 c 1,5,-1
 1075 141 l 1,6,-1
 1195 -20 l 1,7,-1
 973 -20 l 1,8,-1
 897 77 l 1,9,10
 822 27 822 27 733.5 5 c 128,-1,11
 645 -17 645 -17 549 -17 c 0,12,13
 446 -17 446 -17 363 20.5 c 128,-1,14
 280 58 280 58 221.5 122 c 128,-1,15
 163 186 163 186 131.5 270 c 128,-1,16
 100 354 100 354 100 447 c 0,17,18
 100 542 100 542 125.5 615.5 c 128,-1,19
 151 689 151 689 191 742.5 c 128,-1,20
 231 796 231 796 278 830 c 128,-1,21
 325 864 325 864 369 881 c 1,22,23
 350 909 350 909 330.5 945.5 c 128,-1,24
 311 982 311 982 295.5 1021 c 128,-1,25
 280 1060 280 1060 270 1100 c 128,-1,26
 260 1140 260 1140 260 1176 c 0,27,28
 260 1248 260 1248 279.5 1310 c 128,-1,29
 299 1372 299 1372 342 1418 c 128,-1,30
 385 1464 385 1464 453 1490.5 c 128,-1,31
 521 1517 521 1517 617 1517 c 0,32,33
 683 1517 683 1517 735.5 1499.5 c 128,-1,34
 788 1482 788 1482 829.5 1455.5 c 128,-1,35
 871 1429 871 1429 902.5 1397.5 c 128,-1,36
 934 1366 934 1366 957 1338 c 1,37,-1
 877 1200 l 1,38,39
 862 1226 862 1226 839 1254 c 128,-1,40
 816 1282 816 1282 783.5 1305.5 c 128,-1,41
 751 1329 751 1329 707.5 1344 c 128,-1,42
 664 1359 664 1359 609 1359 c 0,43,44
 561 1359 561 1359 528.5 1340 c 128,-1,45
 496 1321 496 1321 476 1293 c 128,-1,46
 456 1265 456 1265 447.5 1233 c 128,-1,47
 439 1201 439 1201 439 1175 c 0,48,49
 439 1146 439 1146 449 1112 c 0,50,51
 453 1097 453 1097 464.5 1074 c 128,-1,52
 476 1051 476 1051 497.5 1013.5 c 128,-1,53
 519 976 519 976 553 920.5 c 128,-1,54
 587 865 587 865 636.5 785.5 c 128,-1,55
 686 706 686 706 752.5 599 c 128,-1,56
 819 492 819 492 906 352 c 1,57,58
 930 386 930 386 944.5 423 c 128,-1,59
 959 460 959 460 967.5 502 c 128,-1,60
 976 544 976 544 979 592.5 c 128,-1,61
 982 641 982 641 982 700 c 1,62,-1
 1176 721 l 1,0,1
425 700 m 1,63,64
 362 671 362 671 325.5 612 c 128,-1,65
 289 553 289 553 289 457 c 0,66,67
 289 385 289 385 315 331 c 128,-1,68
 341 277 341 277 381.5 241 c 128,-1,69
 422 205 422 205 472.5 187.5 c 128,-1,70
 523 170 523 170 573 170 c 0,71,72
 616 170 616 170 649 175 c 128,-1,73
 682 180 682 180 707 188.5 c 128,-1,74
 732 197 732 197 751.5 208.5 c 128,-1,75
 771 220 771 220 787 234 c 1,76,-1
 425 800 l 1,77,-1
 425 700 l 1,63,64
EndSplineSet
EndChar

StartChar: quotesingle
Encoding: 39 39 8
Width: 1300
Flags: W
LayerCount: 2
Fore
SplineSet
225 1500 m 1,0,-1
 400 1500 l 1,1,-1
 400 1400 l 2,2,3
 400 1325 400 1325 364.5 1240 c 128,-1,4
 329 1155 329 1155 259 1067 c 1,5,-1
 200 1067 l 1,6,7
 209 1117 209 1117 214.5 1161 c 128,-1,8
 220 1205 220 1205 222 1245.5 c 128,-1,9
 224 1286 224 1286 224.5 1324 c 128,-1,10
 225 1362 225 1362 225 1400 c 2,11,-1
 225 1500 l 1,0,-1
EndSplineSet
EndChar

StartChar: parenleft
Encoding: 40 40 9
Width: 1300
Flags: W
LayerCount: 2
Fore
SplineSet
500 1180 m 2,0,1
 500 1269 500 1269 509 1346 c 128,-1,2
 518 1423 518 1423 548.5 1479.5 c 128,-1,3
 579 1536 579 1536 638.5 1568 c 128,-1,4
 698 1600 698 1600 800 1600 c 0,5,6
 819 1600 819 1600 840 1598.5 c 128,-1,7
 861 1597 861 1597 879.5 1593.5 c 128,-1,8
 898 1590 898 1590 914 1585.5 c 128,-1,9
 930 1581 930 1581 939 1575 c 1,10,-1
 870 1449 l 1,11,-1
 856 1451 l 2,12,13
 849 1452 849 1452 840 1453 c 128,-1,14
 831 1454 831 1454 820 1454 c 0,15,16
 776 1454 776 1454 751.5 1433 c 128,-1,17
 727 1412 727 1412 715.5 1376 c 128,-1,18
 704 1340 704 1340 702 1293 c 128,-1,19
 700 1246 700 1246 700 1194 c 2,20,-1
 700 -14 l 2,21,22
 700 -66 700 -66 702 -113 c 128,-1,23
 704 -160 704 -160 715.5 -196 c 128,-1,24
 727 -232 727 -232 751.5 -253 c 128,-1,25
 776 -274 776 -274 820 -274 c 0,26,27
 831 -274 831 -274 840 -273.5 c 128,-1,28
 849 -273 849 -273 856 -272 c 2,29,-1
 870 -269 l 1,30,-1
 939 -395 l 1,31,32
 930 -401 930 -401 914 -405.5 c 128,-1,33
 898 -410 898 -410 879.5 -413.5 c 128,-1,34
 861 -417 861 -417 840 -418.5 c 128,-1,35
 819 -420 819 -420 800 -420 c 0,36,37
 698 -420 698 -420 638.5 -388 c 128,-1,38
 579 -356 579 -356 548.5 -299.5 c 128,-1,39
 518 -243 518 -243 509 -166 c 128,-1,40
 500 -89 500 -89 500 0 c 2,41,-1
 500 1180 l 2,0,1
EndSplineSet
EndChar

StartChar: parenright
Encoding: 41 41 10
Width: 1300
Flags: W
LayerCount: 2
Fore
SplineSet
899 0 m 2,0,1
 899 -89 899 -89 890 -166 c 128,-1,2
 881 -243 881 -243 850.5 -299.5 c 128,-1,3
 820 -356 820 -356 760.5 -388 c 128,-1,4
 701 -420 701 -420 599 -420 c 0,5,6
 579 -420 579 -420 558.5 -418.5 c 128,-1,7
 538 -417 538 -417 519.5 -413.5 c 128,-1,8
 501 -410 501 -410 485 -405.5 c 128,-1,9
 469 -401 469 -401 460 -395 c 1,10,-1
 529 -269 l 1,11,-1
 543 -272 l 2,12,13
 550 -273 550 -273 559 -273.5 c 128,-1,14
 568 -274 568 -274 579 -274 c 0,15,16
 623 -274 623 -274 647.5 -253 c 128,-1,17
 672 -232 672 -232 683.5 -196 c 128,-1,18
 695 -160 695 -160 697 -113 c 128,-1,19
 699 -66 699 -66 699 -14 c 2,20,-1
 699 1194 l 2,21,22
 699 1246 699 1246 697 1293 c 128,-1,23
 695 1340 695 1340 683.5 1376 c 128,-1,24
 672 1412 672 1412 647.5 1433 c 128,-1,25
 623 1454 623 1454 579 1454 c 0,26,27
 568 1454 568 1454 559 1453 c 128,-1,28
 550 1452 550 1452 543 1451 c 2,29,-1
 529 1449 l 1,30,-1
 460 1575 l 1,31,32
 469 1581 469 1581 485 1585.5 c 128,-1,33
 501 1590 501 1590 519.5 1593.5 c 128,-1,34
 538 1597 538 1597 558.5 1598.5 c 128,-1,35
 579 1600 579 1600 599 1600 c 0,36,37
 701 1600 701 1600 760.5 1568 c 128,-1,38
 820 1536 820 1536 850.5 1479.5 c 128,-1,39
 881 1423 881 1423 890 1346 c 128,-1,40
 899 1269 899 1269 899 1180 c 2,41,-1
 899 0 l 2,0,1
EndSplineSet
EndChar

StartChar: asterisk
Encoding: 42 42 11
Width: 1300
Flags: W
LayerCount: 2
Fore
SplineSet
831 994 m 1,0,-1
 971 802 l 1,1,-1
 872 712 l 1,2,-1
 723 918 l 1,3,-1
 699 990 l 1,4,-1
 675 918 l 1,5,-1
 535 726 l 1,6,-1
 419 793 l 1,7,-1
 567 996 l 1,8,-1
 632 1041 l 1,9,-1
 551 1045 l 1,10,-1
 328 1118 l 1,11,-1
 355 1249 l 1,12,-1
 593 1172 l 1,13,-1
 659 1120 l 1,14,-1
 637 1202 l 1,15,-1
 637 1436 l 1,16,-1
 770 1450 l 1,17,-1
 770 1198 l 1,18,-1
 744 1118 l 1,19,-1
 810 1168 l 1,20,-1
 1035 1240 l 1,21,-1
 1089 1118 l 1,22,-1
 847 1040 l 1,23,-1
 768 1037 l 1,24,-1
 831 994 l 1,0,-1
EndSplineSet
EndChar

StartChar: plus
Encoding: 43 43 12
Width: 1300
Flags: W
LayerCount: 2
Fore
SplineSet
200 700 m 1,0,-1
 573 700 l 1,1,-1
 573 1121 l 1,2,-1
 728 1121 l 1,3,-1
 728 700 l 1,4,-1
 1100 700 l 1,5,-1
 1100 545 l 1,6,-1
 728 545 l 1,7,-1
 728 122 l 1,8,-1
 573 122 l 1,9,-1
 573 545 l 1,10,-1
 200 545 l 1,11,-1
 200 700 l 1,0,-1
EndSplineSet
EndChar

StartChar: comma
Encoding: 44 44 13
Width: 1300
Flags: W
LayerCount: 2
Fore
SplineSet
152 127 m 0,0,1
 152 156 152 156 163.5 182.5 c 128,-1,2
 175 209 175 209 195.5 228 c 128,-1,3
 216 247 216 247 243 259 c 128,-1,4
 270 271 270 271 300 271 c 0,5,6
 329 271 329 271 355.5 260.5 c 128,-1,7
 382 250 382 250 402.5 230 c 128,-1,8
 423 210 423 210 435.5 179.5 c 128,-1,9
 448 149 448 149 448 110 c 0,10,11
 448 57 448 57 441.5 7.5 c 128,-1,12
 435 -42 435 -42 414.5 -93 c 128,-1,13
 394 -144 394 -144 356 -197 c 128,-1,14
 318 -250 318 -250 256 -307 c 1,15,-1
 204 -284 l 1,16,17
 227 -240 227 -240 245 -193 c 0,18,19
 260 -154 260 -154 272.5 -107.5 c 128,-1,20
 285 -61 285 -61 285 -17 c 1,21,22
 260 -16 260 -16 236 -6 c 128,-1,23
 212 4 212 4 193 21.5 c 128,-1,24
 174 39 174 39 163 66 c 128,-1,25
 152 93 152 93 152 127 c 0,0,1
EndSplineSet
EndChar

StartChar: hyphen
Encoding: 45 45 14
Width: 1300
Flags: W
LayerCount: 2
Fore
SplineSet
400 600 m 1,0,-1
 900 600 l 1,1,-1
 900 445 l 1,2,-1
 400 445 l 1,3,-1
 400 600 l 1,0,-1
EndSplineSet
EndChar

StartChar: period
Encoding: 46 46 15
Width: 1300
Flags: W
LayerCount: 2
Fore
SplineSet
136 150 m 256,0,1
 136 184 136 184 149 214 c 128,-1,2
 162 244 162 244 184.5 266.5 c 128,-1,3
 207 289 207 289 236.5 302 c 128,-1,4
 266 315 266 315 300 315 c 256,5,6
 334 315 334 315 364 302 c 128,-1,7
 394 289 394 289 416.5 266.5 c 128,-1,8
 439 244 439 244 452 214 c 128,-1,9
 465 184 465 184 465 150 c 256,10,11
 465 116 465 116 452 85.5 c 128,-1,12
 439 55 439 55 417 32.5 c 128,-1,13
 395 10 395 10 365.5 -3.5 c 128,-1,14
 336 -17 336 -17 302 -17 c 256,15,16
 268 -17 268 -17 237.5 -3.5 c 128,-1,17
 207 10 207 10 184.5 32.5 c 128,-1,18
 162 55 162 55 149 85.5 c 128,-1,19
 136 116 136 116 136 150 c 256,0,1
EndSplineSet
EndChar

StartChar: slash
Encoding: 47 47 16
Width: 1300
Flags: W
LayerCount: 2
Fore
SplineSet
385 -100 m 1,0,-1
 175 -100 l 1,1,-1
 885 1600 l 1,2,-1
 1085 1600 l 1,3,-1
 385 -100 l 1,0,-1
EndSplineSet
EndChar

StartChar: zero
Encoding: 48 48 17
Width: 1300
Flags: W
LayerCount: 2
Fore
SplineSet
651 -17 m 0,0,1
 566 -17 566 -17 495 15.5 c 128,-1,2
 424 48 424 48 367.5 104 c 128,-1,3
 311 160 311 160 268.5 235 c 128,-1,4
 226 310 226 310 197.5 395.5 c 128,-1,5
 169 481 169 481 155 572 c 128,-1,6
 141 663 141 663 141 750 c 0,7,8
 141 840 141 840 153 932 c 128,-1,9
 165 1024 165 1024 191 1109 c 128,-1,10
 217 1194 217 1194 257.5 1268.5 c 128,-1,11
 298 1343 298 1343 354.5 1398 c 128,-1,12
 411 1453 411 1453 484.5 1485 c 128,-1,13
 558 1517 558 1517 651 1517 c 0,14,15
 736 1517 736 1517 807 1484.5 c 128,-1,16
 878 1452 878 1452 934.5 1396 c 128,-1,17
 991 1340 991 1340 1033.5 1265 c 128,-1,18
 1076 1190 1076 1190 1104.5 1104.5 c 128,-1,19
 1133 1019 1133 1019 1147 928 c 128,-1,20
 1161 837 1161 837 1161 750 c 0,21,22
 1161 660 1161 660 1149 568 c 128,-1,23
 1137 476 1137 476 1111 391 c 128,-1,24
 1085 306 1085 306 1044.5 231.5 c 128,-1,25
 1004 157 1004 157 947.5 102 c 128,-1,26
 891 47 891 47 817 15 c 128,-1,27
 743 -17 743 -17 651 -17 c 0,0,1
348 793 m 0,28,29
 348 735 348 735 352 665.5 c 128,-1,30
 356 596 356 596 368 525.5 c 128,-1,31
 380 455 380 455 401.5 389 c 128,-1,32
 423 323 423 323 457.5 271.5 c 128,-1,33
 492 220 492 220 541.5 189 c 128,-1,34
 591 158 591 158 659 158 c 0,35,36
 720 158 720 158 765.5 181.5 c 128,-1,37
 811 205 811 205 844 245.5 c 128,-1,38
 877 286 877 286 898 339.5 c 128,-1,39
 919 393 919 393 931.5 454 c 128,-1,40
 944 515 944 515 949 580 c 128,-1,41
 954 645 954 645 954 707 c 0,42,43
 954 765 954 765 950 834.5 c 128,-1,44
 946 904 946 904 934 974 c 128,-1,45
 922 1044 922 1044 900.5 1110.5 c 128,-1,46
 879 1177 879 1177 844.5 1228 c 128,-1,47
 810 1279 810 1279 760.5 1310 c 128,-1,48
 711 1341 711 1341 643 1341 c 0,49,50
 582 1341 582 1341 536.5 1317.5 c 128,-1,51
 491 1294 491 1294 458 1254 c 128,-1,52
 425 1214 425 1214 404 1160 c 128,-1,53
 383 1106 383 1106 370.5 1045 c 128,-1,54
 358 984 358 984 353 919.5 c 128,-1,55
 348 855 348 855 348 793 c 0,28,29
EndSplineSet
EndChar

StartChar: one
Encoding: 49 49 18
Width: 1300
Flags: W
LayerCount: 2
Fore
SplineSet
238 0 m 1,0,-1
 238 160 l 1,1,-1
 583 160 l 1,2,-1
 583 1126 l 1,3,-1
 641 1353 l 1,4,-1
 505 1167 l 1,5,-1
 293 979 l 1,6,-1
 185 1100 l 1,7,-1
 643 1520 l 1,8,-1
 793 1500 l 1,9,-1
 793 160 l 1,10,-1
 1138 160 l 1,11,-1
 1138 0 l 1,12,-1
 238 0 l 1,0,-1
EndSplineSet
EndChar

StartChar: two
Encoding: 50 50 19
Width: 1300
Flags: W
LayerCount: 2
Fore
SplineSet
183 0 m 1,0,-1
 183 168 l 1,1,2
 229 241 229 241 283 312 c 128,-1,3
 337 383 337 383 392.5 449.5 c 128,-1,4
 448 516 448 516 501 576.5 c 128,-1,5
 554 637 554 637 599 688 c 0,6,7
 651 748 651 748 699.5 798.5 c 128,-1,8
 748 849 748 849 785 898 c 128,-1,9
 822 947 822 947 844 999.5 c 128,-1,10
 866 1052 866 1052 866 1115 c 0,11,12
 866 1163 866 1163 848 1205.5 c 128,-1,13
 830 1248 830 1248 797.5 1279.5 c 128,-1,14
 765 1311 765 1311 720 1329.5 c 128,-1,15
 675 1348 675 1348 621 1348 c 0,16,17
 560 1348 560 1348 515.5 1331.5 c 128,-1,18
 471 1315 471 1315 437.5 1288 c 128,-1,19
 404 1261 404 1261 379.5 1227.5 c 128,-1,20
 355 1194 355 1194 334 1160 c 1,21,-1
 193 1220 l 1,22,23
 219 1285 219 1285 259.5 1339.5 c 128,-1,24
 300 1394 300 1394 355 1433.5 c 128,-1,25
 410 1473 410 1473 480 1495 c 128,-1,26
 550 1517 550 1517 636 1517 c 0,27,28
 737 1517 737 1517 816 1481 c 128,-1,29
 895 1445 895 1445 949.5 1386.5 c 128,-1,30
 1004 1328 1004 1328 1032.5 1254 c 128,-1,31
 1061 1180 1061 1180 1061 1104 c 0,32,33
 1061 1027 1061 1027 1032.5 957.5 c 128,-1,34
 1004 888 1004 888 961.5 825.5 c 128,-1,35
 919 763 919 763 870 708 c 128,-1,36
 821 653 821 653 780 605 c 0,37,38
 728 544 728 544 676 485 c 128,-1,39
 624 426 624 426 576.5 369.5 c 128,-1,40
 529 313 529 313 488 260.5 c 128,-1,41
 447 208 447 208 417 160 c 1,42,-1
 1117 160 l 1,43,-1
 1117 0 l 1,44,-1
 183 0 l 1,0,-1
EndSplineSet
EndChar

StartChar: three
Encoding: 51 51 20
Width: 1300
Flags: W
LayerCount: 2
Fore
SplineSet
227 1340 m 1,0,-1
 242 1500 l 1,1,-1
 1022 1500 l 1,2,-1
 1022 1360 l 1,3,4
 1010 1320 1010 1320 981.5 1276.5 c 128,-1,5
 953 1233 953 1233 914.5 1188.5 c 128,-1,6
 876 1144 876 1144 830.5 1101 c 128,-1,7
 785 1058 785 1058 739 1019 c 1,8,-1
 607 945 l 1,9,10
 617 947 617 947 632.5 947.5 c 128,-1,11
 648 948 648 948 662 948 c 0,12,13
 759 948 759 948 842.5 924 c 128,-1,14
 926 900 926 900 987.5 851.5 c 128,-1,15
 1049 803 1049 803 1084.5 728.5 c 128,-1,16
 1120 654 1120 654 1120 553 c 0,17,18
 1120 456 1120 456 1084 377 c 128,-1,19
 1048 298 1048 298 985.5 236.5 c 128,-1,20
 923 175 923 175 839 130.5 c 128,-1,21
 755 86 755 86 659.5 57 c 128,-1,22
 564 28 564 28 462 14 c 128,-1,23
 360 0 360 0 262 0 c 1,24,-1
 262 160 l 1,25,26
 345 163 345 163 425 175 c 128,-1,27
 505 187 505 187 577 208.5 c 128,-1,28
 649 230 649 230 710 261 c 128,-1,29
 771 292 771 292 815.5 333.5 c 128,-1,30
 860 375 860 375 885 427.5 c 128,-1,31
 910 480 910 480 910 543 c 0,32,33
 910 615 910 615 879.5 663 c 128,-1,34
 849 711 849 711 796 739 c 128,-1,35
 743 767 743 767 671.5 778.5 c 128,-1,36
 600 790 600 790 518 790 c 0,37,38
 486 790 486 790 448.5 788.5 c 128,-1,39
 411 787 411 787 381 785 c 1,40,-1
 381 940 l 1,41,42
 422 970 422 970 470 1008 c 128,-1,43
 518 1046 518 1046 567 1087.5 c 128,-1,44
 616 1129 616 1129 662.5 1171.5 c 128,-1,45
 709 1214 709 1214 747 1252.5 c 128,-1,46
 785 1291 785 1291 811 1324.5 c 128,-1,47
 837 1358 837 1358 845 1380 c 1,48,-1
 693 1340 l 1,49,-1
 227 1340 l 1,0,-1
EndSplineSet
EndChar

StartChar: four
Encoding: 52 52 21
Width: 1300
Flags: W
LayerCount: 2
Fore
SplineSet
1136 300 m 1,0,-1
 956 300 l 1,1,-1
 956 0 l 1,2,-1
 746 0 l 1,3,-1
 746 300 l 1,4,-1
 151 300 l 1,5,-1
 151 471 l 1,6,-1
 635 1520 l 1,7,-1
 824 1500 l 1,8,-1
 409 600 l 1,9,-1
 316 460 l 1,10,-1
 746 460 l 1,11,-1
 746 867 l 1,12,-1
 956 850 l 1,13,-1
 956 460 l 1,14,-1
 1151 460 l 1,15,-1
 1136 300 l 1,0,-1
EndSplineSet
EndChar

StartChar: five
Encoding: 53 53 22
Width: 1300
Flags: W
LayerCount: 2
Fore
SplineSet
456 982 m 1,0,1
 463 986 463 986 480.5 995 c 128,-1,2
 498 1004 498 1004 524 1013 c 128,-1,3
 550 1022 550 1022 583.5 1028.5 c 128,-1,4
 617 1035 617 1035 658 1035 c 0,5,6
 762 1035 762 1035 843.5 1002.5 c 128,-1,7
 925 970 925 970 981.5 913.5 c 128,-1,8
 1038 857 1038 857 1067.5 781 c 128,-1,9
 1097 705 1097 705 1097 619 c 0,10,11
 1097 518 1097 518 1061 432.5 c 128,-1,12
 1025 347 1025 347 962.5 278.5 c 128,-1,13
 900 210 900 210 816.5 158 c 128,-1,14
 733 106 733 106 638.5 70.5 c 128,-1,15
 544 35 544 35 444 17.5 c 128,-1,16
 344 0 344 0 248 0 c 1,17,-1
 248 160 l 1,18,19
 323 162 323 162 400 178 c 128,-1,20
 477 194 477 194 548.5 222 c 128,-1,21
 620 250 620 250 682.5 289 c 128,-1,22
 745 328 745 328 791.5 376 c 128,-1,23
 838 424 838 424 865 480 c 128,-1,24
 892 536 892 536 892 598 c 0,25,26
 892 649 892 649 875.5 697 c 128,-1,27
 859 745 859 745 826.5 782.5 c 128,-1,28
 794 820 794 820 745 843 c 128,-1,29
 696 866 696 866 631 866 c 0,30,31
 580 866 580 866 539 859.5 c 128,-1,32
 498 853 498 853 466 843 c 128,-1,33
 434 833 434 833 410.5 821.5 c 128,-1,34
 387 810 387 810 372 800 c 1,35,-1
 248 800 l 1,36,-1
 248 1500 l 1,37,-1
 1001 1500 l 1,38,-1
 1001 1340 l 1,39,-1
 456 1340 l 1,40,-1
 456 982 l 1,0,1
EndSplineSet
EndChar

StartChar: six
Encoding: 54 54 23
Width: 1300
Flags: W
LayerCount: 2
Fore
SplineSet
959 1344 m 1,0,1
 952 1346 952 1346 938.5 1346.5 c 128,-1,2
 925 1347 925 1347 914 1347 c 0,3,4
 842 1347 842 1347 774 1324.5 c 128,-1,5
 706 1302 706 1302 646 1261 c 128,-1,6
 586 1220 586 1220 535.5 1163 c 128,-1,7
 485 1106 485 1106 446.5 1037.5 c 128,-1,8
 408 969 408 969 383 891 c 128,-1,9
 358 813 358 813 350 730 c 1,10,-1
 433 847 l 1,11,12
 458 863 458 863 491.5 877.5 c 128,-1,13
 525 892 525 892 562 903 c 128,-1,14
 599 914 599 914 637 920.5 c 128,-1,15
 675 927 675 927 709 927 c 0,16,17
 796 927 796 927 876.5 903 c 128,-1,18
 957 879 957 879 1019.5 829 c 128,-1,19
 1082 779 1082 779 1119.5 700.5 c 128,-1,20
 1157 622 1157 622 1157 513 c 0,21,22
 1157 405 1157 405 1120.5 308.5 c 128,-1,23
 1084 212 1084 212 1018 139.5 c 128,-1,24
 952 67 952 67 860 25 c 128,-1,25
 768 -17 768 -17 656 -17 c 0,26,27
 558 -17 558 -17 482.5 14.5 c 128,-1,28
 407 46 407 46 351 98 c 128,-1,29
 295 150 295 150 257.5 217 c 128,-1,30
 220 284 220 284 196.5 354.5 c 128,-1,31
 173 425 173 425 163 494 c 128,-1,32
 153 563 153 563 153 620 c 0,33,34
 153 739 153 739 177.5 852 c 128,-1,35
 202 965 202 965 248.5 1064.5 c 128,-1,36
 295 1164 295 1164 362 1247.5 c 128,-1,37
 429 1331 429 1331 514.5 1390.5 c 128,-1,38
 600 1450 600 1450 702.5 1483.5 c 128,-1,39
 805 1517 805 1517 923 1517 c 0,40,41
 938 1517 938 1517 956 1516.5 c 128,-1,42
 974 1516 974 1516 984 1514 c 1,43,-1
 959 1344 l 1,0,1
359 597 m 1,44,45
 359 569 359 569 359.5 546 c 128,-1,46
 360 523 360 523 362 501 c 128,-1,47
 364 479 364 479 368 456.5 c 128,-1,48
 372 434 372 434 379 407 c 0,49,50
 393 350 393 350 417.5 303.5 c 128,-1,51
 442 257 442 257 476.5 223.5 c 128,-1,52
 511 190 511 190 556.5 171.5 c 128,-1,53
 602 153 602 153 659 153 c 0,54,55
 738 153 738 153 793.5 183 c 128,-1,56
 849 213 849 213 884 262.5 c 128,-1,57
 919 312 919 312 935.5 375 c 128,-1,58
 952 438 952 438 952 503 c 0,59,60
 952 566 952 566 933.5 614 c 128,-1,61
 915 662 915 662 881 693.5 c 128,-1,62
 847 725 847 725 799.5 741 c 128,-1,63
 752 757 752 757 694 757 c 0,64,65
 640 757 640 757 589 744 c 128,-1,66
 538 731 538 731 493.5 709 c 128,-1,67
 449 687 449 687 414.5 658 c 128,-1,68
 380 629 380 629 359 597 c 1,44,45
EndSplineSet
EndChar

StartChar: seven
Encoding: 55 55 24
Width: 1300
Flags: W
LayerCount: 2
Fore
SplineSet
177 1500 m 1,0,-1
 1120 1500 l 1,1,-1
 1120 1370 l 2,2,3
 1120 1327 1120 1327 1087.5 1259.5 c 128,-1,4
 1055 1192 1055 1192 1005 1108 c 128,-1,5
 955 1024 955 1024 895.5 927.5 c 128,-1,6
 836 831 836 831 782.5 729.5 c 128,-1,7
 729 628 729 628 689 526 c 128,-1,8
 649 424 649 424 638 329 c 0,9,10
 633 288 633 288 630.5 244.5 c 128,-1,11
 628 201 628 201 626.5 158 c 128,-1,12
 625 115 625 115 625 74 c 2,13,-1
 625 0 l 1,14,-1
 420 0 l 1,15,16
 420 30 420 30 420.5 80.5 c 128,-1,17
 421 131 421 131 423 187 c 128,-1,18
 425 243 425 243 430 298 c 128,-1,19
 435 353 435 353 443 392 c 0,20,21
 466 499 466 499 508.5 602.5 c 128,-1,22
 551 706 551 706 601.5 801.5 c 128,-1,23
 652 897 652 897 705 982 c 128,-1,24
 758 1067 758 1067 801 1136.5 c 128,-1,25
 844 1206 844 1206 871.5 1258 c 128,-1,26
 899 1310 899 1310 899 1340 c 1,27,-1
 177 1340 l 1,28,-1
 177 1500 l 1,0,-1
EndSplineSet
EndChar

StartChar: eight
Encoding: 56 56 25
Width: 1300
Flags: W
LayerCount: 2
Fore
SplineSet
631 1517 m 0,0,1
 722 1517 722 1517 800 1492 c 128,-1,2
 878 1467 878 1467 934.5 1420 c 128,-1,3
 991 1373 991 1373 1023 1306 c 128,-1,4
 1055 1239 1055 1239 1055 1155 c 0,5,6
 1055 1096 1055 1096 1037.5 1050 c 128,-1,7
 1020 1004 1020 1004 990 967.5 c 128,-1,8
 960 931 960 931 920.5 901.5 c 128,-1,9
 881 872 881 872 837 846 c 1,10,11
 911 813 911 813 969.5 770.5 c 128,-1,12
 1028 728 1028 728 1068.5 674.5 c 128,-1,13
 1109 621 1109 621 1130.5 555 c 128,-1,14
 1152 489 1152 489 1152 410 c 0,15,16
 1152 299 1152 299 1108 218.5 c 128,-1,17
 1064 138 1064 138 991.5 85.5 c 128,-1,18
 919 33 919 33 826.5 8 c 128,-1,19
 734 -17 734 -17 637 -17 c 0,20,21
 542 -17 542 -17 454 11.5 c 128,-1,22
 366 40 366 40 298.5 95.5 c 128,-1,23
 231 151 231 151 190 233.5 c 128,-1,24
 149 316 149 316 149 424 c 0,25,26
 149 504 149 504 172 569 c 128,-1,27
 195 634 195 634 235 686 c 128,-1,28
 275 738 275 738 330 778.5 c 128,-1,29
 385 819 385 819 449 850 c 1,30,31
 402 879 402 879 361.5 910 c 128,-1,32
 321 941 321 941 290.5 976.5 c 128,-1,33
 260 1012 260 1012 242.5 1053 c 128,-1,34
 225 1094 225 1094 225 1144 c 0,35,36
 225 1241 225 1241 263.5 1311.5 c 128,-1,37
 302 1382 302 1382 362 1427.5 c 128,-1,38
 422 1473 422 1473 493.5 1495 c 128,-1,39
 565 1517 565 1517 631 1517 c 0,0,1
620 760 m 1,40,41
 557 733 557 733 506.5 700.5 c 128,-1,42
 456 668 456 668 420.5 626.5 c 128,-1,43
 385 585 385 585 365.5 532.5 c 128,-1,44
 346 480 346 480 346 414 c 0,45,46
 346 354 346 354 370.5 305 c 128,-1,47
 395 256 395 256 435.5 220.5 c 128,-1,48
 476 185 476 185 529 166 c 128,-1,49
 582 147 582 147 638 147 c 0,50,51
 702 147 702 147 759.5 164.5 c 128,-1,52
 817 182 817 182 860.5 216 c 128,-1,53
 904 250 904 250 929 300 c 128,-1,54
 954 350 954 350 954 415 c 0,55,56
 954 482 954 482 924.5 534.5 c 128,-1,57
 895 587 895 587 847.5 628.5 c 128,-1,58
 800 670 800 670 740.5 702 c 128,-1,59
 681 734 681 734 620 760 c 1,40,41
661 923 m 1,60,61
 753 964 753 964 807.5 1022 c 128,-1,62
 862 1080 862 1080 862 1163 c 0,63,64
 862 1213 862 1213 841.5 1249 c 128,-1,65
 821 1285 821 1285 790 1308 c 128,-1,66
 759 1331 759 1331 721.5 1341.5 c 128,-1,67
 684 1352 684 1352 650 1352 c 0,68,69
 605 1352 605 1352 563 1338.5 c 128,-1,70
 521 1325 521 1325 489 1300 c 128,-1,71
 457 1275 457 1275 437.5 1241 c 128,-1,72
 418 1207 418 1207 418 1167 c 0,73,74
 418 1121 418 1121 437.5 1085.5 c 128,-1,75
 457 1050 457 1050 490.5 1021.5 c 128,-1,76
 524 993 524 993 568 969 c 128,-1,77
 612 945 612 945 661 923 c 1,60,61
EndSplineSet
EndChar

StartChar: nine
Encoding: 57 57 26
Width: 1300
Flags: W
LayerCount: 2
Fore
SplineSet
869 663 m 1,0,1
 810 617 810 617 750.5 595 c 128,-1,2
 691 573 691 573 616 573 c 0,3,4
 518 573 518 573 433 605.5 c 128,-1,5
 348 638 348 638 285 698 c 128,-1,6
 222 758 222 758 186 842.5 c 128,-1,7
 150 927 150 927 150 1031 c 0,8,9
 150 1139 150 1139 184.5 1228 c 128,-1,10
 219 1317 219 1317 282.5 1381.5 c 128,-1,11
 346 1446 346 1446 436.5 1481.5 c 128,-1,12
 527 1517 527 1517 639 1517 c 0,13,14
 739 1517 739 1517 815.5 1486 c 128,-1,15
 892 1455 892 1455 948 1404 c 128,-1,16
 1004 1353 1004 1353 1041.5 1287 c 128,-1,17
 1079 1221 1079 1221 1101.5 1150 c 128,-1,18
 1124 1079 1124 1079 1133.5 1009 c 128,-1,19
 1143 939 1143 939 1143 880 c 0,20,21
 1143 764 1143 764 1119.5 653.5 c 128,-1,22
 1096 543 1096 543 1050.5 445 c 128,-1,23
 1005 347 1005 347 939 264.5 c 128,-1,24
 873 182 873 182 788.5 121 c 128,-1,25
 704 60 704 60 602 24 c 128,-1,26
 500 -12 500 -12 382 -17 c 1,27,-1
 351 150 l 1,28,29
 471 156 471 156 576.5 207 c 128,-1,30
 682 258 682 258 762.5 342.5 c 128,-1,31
 843 427 843 427 892.5 539.5 c 128,-1,32
 942 652 942 652 949 780 c 1,33,-1
 869 663 l 1,0,1
937 953 m 1,34,35
 934 1028 934 1028 915.5 1098.5 c 128,-1,36
 897 1169 897 1169 861 1224.5 c 128,-1,37
 825 1280 825 1280 772 1313.5 c 128,-1,38
 719 1347 719 1347 647 1347 c 0,39,40
 579 1347 579 1347 525 1325 c 128,-1,41
 471 1303 471 1303 433 1264 c 128,-1,42
 395 1225 395 1225 374.5 1170 c 128,-1,43
 354 1115 354 1115 354 1049 c 0,44,45
 354 984 354 984 370.5 928 c 128,-1,46
 387 872 387 872 420.5 831 c 128,-1,47
 454 790 454 790 505.5 766.5 c 128,-1,48
 557 743 557 743 626 743 c 0,49,50
 679 743 679 743 727.5 760 c 128,-1,51
 776 777 776 777 816.5 805.5 c 128,-1,52
 857 834 857 834 888 872 c 128,-1,53
 919 910 919 910 937 953 c 1,34,35
EndSplineSet
EndChar

StartChar: colon
Encoding: 58 58 27
Width: 1300
Flags: W
LayerCount: 2
Fore
SplineSet
152 133 m 256,0,1
 152 164 152 164 164 191 c 128,-1,2
 176 218 176 218 196 238 c 128,-1,3
 216 258 216 258 242.5 269.5 c 128,-1,4
 269 281 269 281 300 281 c 256,5,6
 331 281 331 281 358 269.5 c 128,-1,7
 385 258 385 258 405 238 c 128,-1,8
 425 218 425 218 436.5 191 c 128,-1,9
 448 164 448 164 448 133 c 256,10,11
 448 102 448 102 436.5 74.5 c 128,-1,12
 425 47 425 47 405 27 c 128,-1,13
 385 7 385 7 358.5 -5 c 128,-1,14
 332 -17 332 -17 302 -17 c 0,15,16
 271 -17 271 -17 243.5 -5 c 128,-1,17
 216 7 216 7 196 27 c 128,-1,18
 176 47 176 47 164 74.5 c 128,-1,19
 152 102 152 102 152 133 c 256,0,1
152 647 m 256,20,21
 152 678 152 678 164 705 c 128,-1,22
 176 732 176 732 196 752 c 128,-1,23
 216 772 216 772 242.5 783.5 c 128,-1,24
 269 795 269 795 300 795 c 256,25,26
 331 795 331 795 358 783.5 c 128,-1,27
 385 772 385 772 405 752 c 128,-1,28
 425 732 425 732 436.5 705 c 128,-1,29
 448 678 448 678 448 647 c 256,30,31
 448 616 448 616 436.5 588.5 c 128,-1,32
 425 561 425 561 405 541 c 128,-1,33
 385 521 385 521 358.5 509 c 128,-1,34
 332 497 332 497 302 497 c 0,35,36
 271 497 271 497 243.5 509 c 128,-1,37
 216 521 216 521 196 541 c 128,-1,38
 176 561 176 561 164 588.5 c 128,-1,39
 152 616 152 616 152 647 c 256,20,21
EndSplineSet
EndChar

StartChar: semicolon
Encoding: 59 59 28
Width: 1300
Flags: W
LayerCount: 2
Fore
SplineSet
152 641 m 256,0,1
 152 672 152 672 164 699 c 128,-1,2
 176 726 176 726 196 746 c 128,-1,3
 216 766 216 766 242.5 777.5 c 128,-1,4
 269 789 269 789 300 789 c 256,5,6
 331 789 331 789 358 777.5 c 128,-1,7
 385 766 385 766 405 746 c 128,-1,8
 425 726 425 726 436.5 699 c 128,-1,9
 448 672 448 672 448 641 c 256,10,11
 448 610 448 610 436.5 582.5 c 128,-1,12
 425 555 425 555 405 535 c 128,-1,13
 385 515 385 515 358.5 503 c 128,-1,14
 332 491 332 491 302 491 c 0,15,16
 271 491 271 491 243.5 503 c 128,-1,17
 216 515 216 515 196 535 c 128,-1,18
 176 555 176 555 164 582.5 c 128,-1,19
 152 610 152 610 152 641 c 256,0,1
152 127 m 0,20,21
 152 156 152 156 163.5 182.5 c 128,-1,22
 175 209 175 209 195.5 228 c 128,-1,23
 216 247 216 247 243 259 c 128,-1,24
 270 271 270 271 300 271 c 0,25,26
 329 271 329 271 355.5 260.5 c 128,-1,27
 382 250 382 250 402.5 230 c 128,-1,28
 423 210 423 210 435.5 179.5 c 128,-1,29
 448 149 448 149 448 110 c 0,30,31
 448 57 448 57 441.5 7.5 c 128,-1,32
 435 -42 435 -42 414.5 -93 c 128,-1,33
 394 -144 394 -144 356 -197 c 128,-1,34
 318 -250 318 -250 256 -307 c 1,35,-1
 204 -284 l 1,36,37
 227 -240 227 -240 245 -193 c 0,38,39
 260 -154 260 -154 272.5 -107.5 c 128,-1,40
 285 -61 285 -61 285 -17 c 1,41,42
 260 -16 260 -16 236 -6 c 128,-1,43
 212 4 212 4 193 21.5 c 128,-1,44
 174 39 174 39 163 66 c 128,-1,45
 152 93 152 93 152 127 c 0,20,21
EndSplineSet
EndChar

StartChar: less
Encoding: 60 60 29
Width: 1300
Flags: W
LayerCount: 2
Fore
SplineSet
1100 1211 m 1,0,-1
 1100 1036 l 1,1,-1
 413 670 l 1,2,-1
 335 650 l 1,3,-1
 412 630 l 1,4,-1
 1100 266 l 1,5,-1
 1100 91 l 1,6,-1
 200 548 l 1,7,-1
 200 757 l 1,8,-1
 1100 1211 l 1,0,-1
EndSplineSet
EndChar

StartChar: equal
Encoding: 61 61 30
Width: 1300
Flags: W
LayerCount: 2
Fore
SplineSet
200 700 m 1,0,-1
 1000 700 l 1,1,-1
 1000 560 l 1,2,-1
 200 560 l 1,3,-1
 200 700 l 1,0,-1
200 400 m 1,4,-1
 1000 400 l 1,5,-1
 1000 260 l 1,6,-1
 200 260 l 1,7,-1
 200 400 l 1,4,-1
EndSplineSet
EndChar

StartChar: greater
Encoding: 62 62 31
Width: 1300
Flags: W
LayerCount: 2
Fore
SplineSet
1100 757 m 1,0,-1
 1100 548 l 1,1,-1
 200 91 l 1,2,-1
 200 266 l 1,3,-1
 888 630 l 1,4,-1
 965 650 l 1,5,-1
 887 670 l 1,6,-1
 200 1036 l 1,7,-1
 200 1211 l 1,8,-1
 1100 757 l 1,0,-1
EndSplineSet
EndChar

StartChar: question
Encoding: 63 63 32
Width: 1300
Flags: W
LayerCount: 2
Fore
SplineSet
1000 1144 m 0,0,1
 1000 1081 1000 1081 983 1031 c 128,-1,2
 966 981 966 981 938.5 940 c 128,-1,3
 911 899 911 899 875.5 864 c 128,-1,4
 840 829 840 829 802.5 795.5 c 128,-1,5
 765 762 765 762 729.5 727 c 128,-1,6
 694 692 694 692 666.5 651.5 c 128,-1,7
 639 611 639 611 622 561.5 c 128,-1,8
 605 512 605 512 605 450 c 1,9,-1
 395 429 l 1,10,11
 395 518 395 518 412 586 c 128,-1,12
 429 654 429 654 456.5 706.5 c 128,-1,13
 484 759 484 759 519.5 799.5 c 128,-1,14
 555 840 555 840 592.5 873.5 c 128,-1,15
 630 907 630 907 665.5 937 c 128,-1,16
 701 967 701 967 728.5 999 c 128,-1,17
 756 1031 756 1031 773 1068 c 128,-1,18
 790 1105 790 1105 790 1152 c 0,19,20
 790 1204 790 1204 770 1242 c 128,-1,21
 750 1280 750 1280 715.5 1304 c 128,-1,22
 681 1328 681 1328 634.5 1339.5 c 128,-1,23
 588 1351 588 1351 535 1351 c 0,24,25
 497 1351 497 1351 456.5 1340 c 128,-1,26
 416 1329 416 1329 377.5 1308 c 128,-1,27
 339 1287 339 1287 303.5 1257 c 128,-1,28
 268 1227 268 1227 240 1190 c 1,29,-1
 107 1300 l 1,30,31
 156 1366 156 1366 213.5 1408.5 c 128,-1,32
 271 1451 271 1451 330.5 1475 c 128,-1,33
 390 1499 390 1499 448.5 1508 c 128,-1,34
 507 1517 507 1517 560 1517 c 0,35,36
 645 1517 645 1517 724 1494.5 c 128,-1,37
 803 1472 803 1472 864.5 1426.5 c 128,-1,38
 926 1381 926 1381 963 1310.5 c 128,-1,39
 1000 1240 1000 1240 1000 1144 c 0,0,1
378 106 m 256,40,41
 378 131 378 131 387.5 153 c 128,-1,42
 397 175 397 175 413.5 191.5 c 128,-1,43
 430 208 430 208 452 217.5 c 128,-1,44
 474 227 474 227 499 227 c 256,45,46
 524 227 524 227 546 217.5 c 128,-1,47
 568 208 568 208 584.5 191.5 c 128,-1,48
 601 175 601 175 610.5 153 c 128,-1,49
 620 131 620 131 620 106 c 256,50,51
 620 81 620 81 610.5 58.5 c 128,-1,52
 601 36 601 36 585 19.5 c 128,-1,53
 569 3 569 3 547 -7 c 128,-1,54
 525 -17 525 -17 500 -17 c 0,55,56
 474 -17 474 -17 452 -7 c 128,-1,57
 430 3 430 3 413.5 19.5 c 128,-1,58
 397 36 397 36 387.5 58.5 c 128,-1,59
 378 81 378 81 378 106 c 256,40,41
EndSplineSet
EndChar

StartChar: at
Encoding: 64 64 33
Width: 1300
Flags: W
LayerCount: 2
Fore
SplineSet
651 1486 m 0,0,1
 745 1486 745 1486 821 1453 c 128,-1,2
 897 1420 897 1420 956 1360.5 c 128,-1,3
 1015 1301 1015 1301 1057.5 1217.5 c 128,-1,4
 1100 1134 1100 1134 1127 1033.5 c 128,-1,5
 1154 933 1154 933 1167 817.5 c 128,-1,6
 1180 702 1180 702 1180 578 c 0,7,8
 1180 458 1180 458 1172 347.5 c 128,-1,9
 1164 237 1164 237 1139 152 c 128,-1,10
 1114 67 1114 67 1066 16.5 c 128,-1,11
 1018 -34 1018 -34 939 -34 c 0,12,13
 906 -34 906 -34 874 -24 c 128,-1,14
 842 -14 842 -14 815.5 4.5 c 128,-1,15
 789 23 789 23 770 49 c 128,-1,16
 751 75 751 75 743 108 c 1,17,-1
 705 8 l 1,18,19
 678 -17 678 -17 632 -17 c 256,20,21
 586 -17 586 -17 543.5 6 c 128,-1,22
 501 29 501 29 468 73.5 c 128,-1,23
 435 118 435 118 415.5 184 c 128,-1,24
 396 250 396 250 396 337 c 0,25,26
 396 427 396 427 415.5 494.5 c 128,-1,27
 435 562 435 562 468.5 606.5 c 128,-1,28
 502 651 502 651 546 673 c 128,-1,29
 590 695 590 695 640 695 c 0,30,31
 673 695 673 695 693 689 c 128,-1,32
 713 683 713 683 724 675 c 0,33,34
 736 666 736 666 742 655 c 1,35,-1
 742 690 l 2,36,37
 742 745 742 745 740.5 784.5 c 128,-1,38
 739 824 739 824 731 849.5 c 128,-1,39
 723 875 723 875 706 887.5 c 128,-1,40
 689 900 689 900 657 900 c 256,41,42
 625 900 625 900 595 893 c 128,-1,43
 565 886 565 886 542 877 c 128,-1,44
 519 868 519 868 505 861 c 2,45,-1
 492 854 l 1,46,-1
 492 981 l 1,47,48
 509 996 509 996 534 1008 c 0,49,50
 555 1019 555 1019 586.5 1027.5 c 128,-1,51
 618 1036 618 1036 663 1036 c 0,52,53
 748 1036 748 1036 794 1013.5 c 128,-1,54
 840 991 840 991 861.5 946 c 128,-1,55
 883 901 883 901 886.5 833.5 c 128,-1,56
 890 766 890 766 890 676 c 2,57,-1
 890 174 l 2,58,59
 890 143 890 143 901.5 121.5 c 128,-1,60
 913 100 913 100 946 100 c 0,61,62
 966 100 966 100 980 124.5 c 128,-1,63
 994 149 994 149 1003.5 187 c 128,-1,64
 1013 225 1013 225 1018.5 272 c 128,-1,65
 1024 319 1024 319 1026.5 363.5 c 128,-1,66
 1029 408 1029 408 1029.5 445 c 128,-1,67
 1030 482 1030 482 1030 501 c 0,68,69
 1030 672 1030 672 1012.5 823 c 128,-1,70
 995 974 995 974 951.5 1086.5 c 128,-1,71
 908 1199 908 1199 834 1264.5 c 128,-1,72
 760 1330 760 1330 647 1330 c 0,73,74
 595 1330 595 1330 547.5 1301.5 c 128,-1,75
 500 1273 500 1273 458.5 1222 c 128,-1,76
 417 1171 417 1171 383.5 1101 c 128,-1,77
 350 1031 350 1031 326 948 c 128,-1,78
 302 865 302 865 289 772.5 c 128,-1,79
 276 680 276 680 276 584 c 0,80,81
 276 481 276 481 284.5 378.5 c 128,-1,82
 293 276 293 276 311.5 183 c 128,-1,83
 330 90 330 90 359 10 c 128,-1,84
 388 -70 388 -70 430.5 -128.5 c 128,-1,85
 473 -187 473 -187 528.5 -220.5 c 128,-1,86
 584 -254 584 -254 655 -254 c 0,87,88
 685 -254 685 -254 713.5 -246.5 c 128,-1,89
 742 -239 742 -239 766 -227 c 128,-1,90
 790 -215 790 -215 809 -201 c 128,-1,91
 828 -187 828 -187 840 -173 c 1,92,-1
 889 -322 l 1,93,94
 835 -367 835 -367 777 -388.5 c 128,-1,95
 719 -410 719 -410 651 -410 c 0,96,97
 553 -410 553 -410 476 -375 c 128,-1,98
 399 -340 399 -340 340 -277 c 128,-1,99
 281 -214 281 -214 239 -126.5 c 128,-1,100
 197 -39 197 -39 170.5 66.5 c 128,-1,101
 144 172 144 172 132 292 c 128,-1,102
 120 412 120 412 120 540 c 0,103,104
 120 671 120 671 134.5 792 c 128,-1,105
 149 913 149 913 178.5 1018.5 c 128,-1,106
 208 1124 208 1124 252.5 1210 c 128,-1,107
 297 1296 297 1296 356 1357.5 c 128,-1,108
 415 1419 415 1419 488.5 1452.5 c 128,-1,109
 562 1486 562 1486 651 1486 c 0,0,1
742 522 m 2,110,111
 741 525 741 525 735 529 c 0,112,113
 730 532 730 532 718 534.5 c 128,-1,114
 706 537 706 537 683 537 c 0,115,116
 653 537 653 537 628.5 526 c 128,-1,117
 604 515 604 515 586 491 c 128,-1,118
 568 467 568 467 558 429 c 128,-1,119
 548 391 548 391 548 337 c 0,120,121
 548 293 548 293 554 256.5 c 128,-1,122
 560 220 560 220 572.5 194 c 128,-1,123
 585 168 585 168 603.5 153.5 c 128,-1,124
 622 139 622 139 647 139 c 0,125,126
 670 139 670 139 688 159 c 128,-1,127
 706 179 706 179 718 203 c 0,128,129
 732 231 732 231 742 267 c 1,130,-1
 742 522 l 2,110,111
EndSplineSet
EndChar

StartChar: A
Encoding: 65 65 34
Width: 1300
Flags: W
LayerCount: 2
Fore
SplineSet
32 0 m 1,0,-1
 504 1300 l 1,1,-1
 539 1500 l 1,2,-1
 717 1520 l 1,3,-1
 1265 0 l 1,4,-1
 1065 0 l 1,5,-1
 917 450 l 1,6,-1
 382 450 l 1,7,-1
 216 0 l 1,8,-1
 32 0 l 1,0,-1
645 1400 m 1,9,-1
 600 1080 l 1,10,-1
 431 600 l 1,11,-1
 868 600 l 1,12,-1
 690 1080 l 1,13,-1
 645 1400 l 1,9,-1
EndSplineSet
EndChar

StartChar: B
Encoding: 66 66 35
Width: 1300
Flags: W
LayerCount: 2
Fore
SplineSet
210 0 m 1,0,-1
 210 1290 l 1,1,-1
 180 1490 l 1,2,3
 240 1498 240 1498 303.5 1504 c 128,-1,4
 367 1510 367 1510 432 1510 c 0,5,6
 548 1510 548 1510 653 1495.5 c 128,-1,7
 758 1481 758 1481 837.5 1443 c 128,-1,8
 917 1405 917 1405 964 1338.5 c 128,-1,9
 1011 1272 1011 1272 1011 1169 c 0,10,11
 1011 1060 1011 1060 964 981 c 128,-1,12
 917 902 917 902 830 860 c 1,13,-1
 676 816 l 1,14,-1
 823 802 l 1,15,16
 884 784 884 784 938 755.5 c 128,-1,17
 992 727 992 727 1031.5 686 c 128,-1,18
 1071 645 1071 645 1094 589 c 128,-1,19
 1117 533 1117 533 1117 460 c 0,20,21
 1117 375 1117 375 1094.5 308 c 128,-1,22
 1072 241 1072 241 1033 190 c 128,-1,23
 994 139 994 139 942 102.5 c 128,-1,24
 890 66 890 66 830.5 43.5 c 128,-1,25
 771 21 771 21 707 10.5 c 128,-1,26
 643 0 643 0 580 0 c 2,27,-1
 210 0 l 1,0,-1
395 160 m 1,28,-1
 505 160 l 2,29,30
 604 160 604 160 681.5 174.5 c 128,-1,31
 759 189 759 189 812.5 222.5 c 128,-1,32
 866 256 866 256 894 311.5 c 128,-1,33
 922 367 922 367 922 450 c 0,34,35
 922 525 922 525 896 578 c 128,-1,36
 870 631 870 631 822.5 665 c 128,-1,37
 775 699 775 699 708 714.5 c 128,-1,38
 641 730 641 730 560 730 c 2,39,-1
 395 730 l 1,40,-1
 395 160 l 1,28,-1
395 1147 m 1,41,-1
 395 885 l 1,42,-1
 500 885 l 2,43,44
 561 888 561 888 620.5 904 c 128,-1,45
 680 920 680 920 726.5 951.5 c 128,-1,46
 773 983 773 983 801.5 1031.5 c 128,-1,47
 830 1080 830 1080 830 1148 c 0,48,49
 830 1214 830 1214 799.5 1257.5 c 128,-1,50
 769 1301 769 1301 721 1326 c 128,-1,51
 673 1351 673 1351 613.5 1361 c 128,-1,52
 554 1371 554 1371 497 1371 c 0,53,54
 463 1371 463 1371 426.5 1368.5 c 128,-1,55
 390 1366 390 1366 359 1360 c 1,56,-1
 395 1147 l 1,41,-1
EndSplineSet
EndChar

StartChar: C
Encoding: 67 67 36
Width: 1300
Flags: W
LayerCount: 2
Fore
SplineSet
1147 104 m 1,0,1
 1106 71 1106 71 1064 48 c 128,-1,2
 1022 25 1022 25 976 10.5 c 128,-1,3
 930 -4 930 -4 879 -10.5 c 128,-1,4
 828 -17 828 -17 769 -17 c 0,5,6
 673 -17 673 -17 586 11.5 c 128,-1,7
 499 40 499 40 424.5 91.5 c 128,-1,8
 350 143 350 143 290 215 c 128,-1,9
 230 287 230 287 188 374.5 c 128,-1,10
 146 462 146 462 123 562 c 128,-1,11
 100 662 100 662 100 770 c 0,12,13
 100 921 100 921 143 1056.5 c 128,-1,14
 186 1192 186 1192 271 1294.5 c 128,-1,15
 356 1397 356 1397 481.5 1457 c 128,-1,16
 607 1517 607 1517 772 1517 c 0,17,18
 887 1517 887 1517 979.5 1480.5 c 128,-1,19
 1072 1444 1072 1444 1144 1375 c 1,20,-1
 1054 1268 l 1,21,22
 1030 1284 1030 1284 1003 1298.5 c 128,-1,23
 976 1313 976 1313 943.5 1324 c 128,-1,24
 911 1335 911 1335 872.5 1341.5 c 128,-1,25
 834 1348 834 1348 788 1348 c 0,26,27
 666 1348 666 1348 575.5 1302 c 128,-1,28
 485 1256 485 1256 425 1177.5 c 128,-1,29
 365 1099 365 1099 335.5 994.5 c 128,-1,30
 306 890 306 890 306 773 c 0,31,32
 306 700 306 700 321 626 c 128,-1,33
 336 552 336 552 364.5 483 c 128,-1,34
 393 414 393 414 435 354 c 128,-1,35
 477 294 477 294 531.5 249 c 128,-1,36
 586 204 586 204 652 178.5 c 128,-1,37
 718 153 718 153 795 153 c 0,38,39
 840 153 840 153 874 157 c 128,-1,40
 908 161 908 161 938.5 170 c 128,-1,41
 969 179 969 179 1000 193.5 c 128,-1,42
 1031 208 1031 208 1070 230 c 1,43,-1
 1147 104 l 1,0,1
EndSplineSet
EndChar

StartChar: D
Encoding: 68 68 37
Width: 1300
Flags: W
LayerCount: 2
Fore
SplineSet
175 1500 m 1,0,1
 206 1503 206 1503 246 1505 c 128,-1,2
 286 1507 286 1507 328 1508.5 c 128,-1,3
 370 1510 370 1510 411 1510.5 c 128,-1,4
 452 1511 452 1511 485 1511 c 0,5,6
 644 1511 644 1511 779.5 1472 c 128,-1,7
 915 1433 915 1433 1014 1348 c 128,-1,8
 1113 1263 1113 1263 1169 1130 c 128,-1,9
 1225 997 1225 997 1225 810 c 0,10,11
 1225 664 1225 664 1197 547.5 c 128,-1,12
 1169 431 1169 431 1119.5 341 c 128,-1,13
 1070 251 1070 251 1000.5 186.5 c 128,-1,14
 931 122 931 122 847.5 80.5 c 128,-1,15
 764 39 764 39 670 19.5 c 128,-1,16
 576 0 576 0 476 0 c 2,17,-1
 205 0 l 1,18,-1
 205 1290 l 1,19,-1
 175 1500 l 1,0,1
395 1150 m 1,20,-1
 395 160 l 1,21,-1
 415 160 l 2,22,23
 544 160 544 160 639 190 c 128,-1,24
 734 220 734 220 800.5 269.5 c 128,-1,25
 867 319 867 319 909 383.5 c 128,-1,26
 951 448 951 448 974.5 517 c 128,-1,27
 998 586 998 586 1006.5 654 c 128,-1,28
 1015 722 1015 722 1015 780 c 0,29,30
 1015 865 1015 865 1007 941 c 128,-1,31
 999 1017 999 1017 977 1081 c 128,-1,32
 955 1145 955 1145 917 1196 c 128,-1,33
 879 1247 879 1247 819 1283 c 128,-1,34
 759 1319 759 1319 674.5 1338.5 c 128,-1,35
 590 1358 590 1358 476 1358 c 0,36,37
 460 1358 460 1358 442 1357 c 128,-1,38
 424 1356 424 1356 408 1354 c 2,39,-1
 370 1350 l 1,40,-1
 395 1150 l 1,20,-1
EndSplineSet
EndChar

StartChar: E
Encoding: 69 69 38
Width: 1300
Flags: W
LayerCount: 2
Fore
SplineSet
1135 160 m 1,0,-1
 1115 0 l 1,1,-1
 195 0 l 1,2,-1
 210 200 l 1,3,-1
 210 1290 l 1,4,-1
 180 1500 l 1,5,-1
 1100 1500 l 1,6,-1
 1100 1340 l 1,7,-1
 375 1340 l 1,8,-1
 395 1150 l 1,9,-1
 395 885 l 1,10,-1
 1030 885 l 1,11,-1
 1030 740 l 1,12,-1
 395 740 l 1,13,-1
 395 340 l 1,14,-1
 385 160 l 1,15,-1
 1135 160 l 1,0,-1
EndSplineSet
EndChar

StartChar: F
Encoding: 70 70 39
Width: 1300
Flags: W
LayerCount: 2
Fore
SplineSet
395 0 m 1,0,-1
 205 0 l 1,1,-1
 205 1290 l 1,2,-1
 175 1500 l 1,3,-1
 1120 1500 l 1,4,-1
 1100 1340 l 1,5,-1
 375 1340 l 1,6,-1
 395 1150 l 1,7,-1
 395 885 l 1,8,-1
 1015 885 l 1,9,-1
 1015 740 l 1,10,-1
 395 740 l 1,11,-1
 395 0 l 1,0,-1
EndSplineSet
EndChar

StartChar: G
Encoding: 71 71 40
Width: 1300
Flags: W
LayerCount: 2
Fore
SplineSet
1190 197 m 1,0,1
 1149 152 1149 152 1098 112.5 c 128,-1,2
 1047 73 1047 73 986 44.5 c 128,-1,3
 925 16 925 16 853 -0.5 c 128,-1,4
 781 -17 781 -17 698 -17 c 0,5,6
 554 -17 554 -17 446.5 45.5 c 128,-1,7
 339 108 339 108 268.5 215 c 128,-1,8
 198 322 198 322 163 465 c 128,-1,9
 128 608 128 608 128 770 c 0,10,11
 128 871 128 871 141.5 965.5 c 128,-1,12
 155 1060 155 1060 184 1143 c 128,-1,13
 213 1226 213 1226 259.5 1294.5 c 128,-1,14
 306 1363 306 1363 372 1412.5 c 128,-1,15
 438 1462 438 1462 524.5 1489.5 c 128,-1,16
 611 1517 611 1517 721 1517 c 0,17,18
 836 1517 836 1517 938.5 1480.5 c 128,-1,19
 1041 1444 1041 1444 1113 1375 c 1,20,-1
 1023 1268 l 1,21,22
 975 1300 975 1300 903 1324 c 128,-1,23
 831 1348 831 1348 737 1348 c 0,24,25
 656 1348 656 1348 595 1327 c 128,-1,26
 534 1306 534 1306 489.5 1268 c 128,-1,27
 445 1230 445 1230 416 1177.5 c 128,-1,28
 387 1125 387 1125 369.5 1061 c 128,-1,29
 352 997 352 997 345 924 c 128,-1,30
 338 851 338 851 338 773 c 0,31,32
 338 704 338 704 345.5 631.5 c 128,-1,33
 353 559 353 559 370 490 c 128,-1,34
 387 421 387 421 416 360 c 128,-1,35
 445 299 445 299 487.5 253 c 128,-1,36
 530 207 530 207 588.5 180 c 128,-1,37
 647 153 647 153 724 153 c 0,38,39
 769 153 769 153 813 163 c 128,-1,40
 857 173 857 173 896 189 c 128,-1,41
 935 205 935 205 965.5 224.5 c 128,-1,42
 996 244 996 244 1014 263 c 1,43,-1
 1014 612 l 1,44,-1
 700 632 l 1,45,-1
 700 762 l 1,46,-1
 1190 762 l 1,47,-1
 1190 197 l 1,0,1
EndSplineSet
EndChar

StartChar: H
Encoding: 72 72 41
Width: 1300
Flags: W
LayerCount: 2
Fore
SplineSet
946 0 m 1,0,-1
 946 725 l 1,1,-1
 378 725 l 1,2,-1
 378 0 l 1,3,-1
 188 0 l 1,4,-1
 188 1290 l 1,5,-1
 159 1500 l 1,6,-1
 378 1520 l 1,7,-1
 378 885 l 1,8,-1
 946 885 l 1,9,-1
 946 1500 l 1,10,-1
 1136 1520 l 1,11,-1
 1136 0 l 1,12,-1
 946 0 l 1,0,-1
EndSplineSet
EndChar

StartChar: I
Encoding: 73 73 42
Width: 1300
Flags: W
LayerCount: 2
Fore
SplineSet
200 1500 m 1,0,-1
 1100 1500 l 1,1,-1
 1100 1340 l 1,2,-1
 742 1340 l 1,3,-1
 742 160 l 1,4,-1
 1120 160 l 1,5,-1
 1100 0 l 1,6,-1
 200 0 l 1,7,-1
 200 160 l 1,8,-1
 556 160 l 1,9,-1
 556 1340 l 1,10,-1
 180 1340 l 1,11,-1
 200 1500 l 1,0,-1
EndSplineSet
EndChar

StartChar: J
Encoding: 74 74 43
Width: 1300
Flags: W
LayerCount: 2
Fore
SplineSet
390 1500 m 1,0,-1
 1090 1500 l 1,1,-1
 1090 430 l 2,2,3
 1090 333 1090 333 1066 254 c 128,-1,4
 1042 175 1042 175 990 112 c 256,5,6
 938 49 938 49 854 16 c 128,-1,7
 770 -17 770 -17 648 -17 c 0,8,9
 570 -17 570 -17 508.5 1.5 c 128,-1,10
 447 20 447 20 398 49.5 c 128,-1,11
 349 79 349 79 310.5 114 c 128,-1,12
 272 149 272 149 240 182 c 1,13,-1
 342 300 l 1,14,15
 352 290 352 290 379 267.5 c 128,-1,16
 406 245 406 245 445 222.5 c 128,-1,17
 484 200 484 200 533 183 c 128,-1,18
 582 166 582 166 638 166 c 0,19,20
 767 166 767 166 838.5 239 c 128,-1,21
 910 312 910 312 910 470 c 2,22,-1
 910 1148 l 1,23,-1
 930 1340 l 1,24,-1
 410 1340 l 1,25,-1
 390 1500 l 1,0,-1
EndSplineSet
EndChar

StartChar: K
Encoding: 75 75 44
Width: 1300
Flags: W
LayerCount: 2
Fore
SplineSet
205 0 m 1,0,-1
 205 1290 l 1,1,-1
 175 1500 l 1,2,-1
 396 1520 l 1,3,-1
 396 856 l 1,4,-1
 942 1500 l 1,5,-1
 1164 1500 l 1,6,-1
 633 865 l 1,7,-1
 464 802 l 1,8,-1
 638 744 l 1,9,-1
 1191 0 l 1,10,-1
 954 0 l 1,11,-1
 396 746 l 1,12,-1
 396 0 l 1,13,-1
 205 0 l 1,0,-1
EndSplineSet
EndChar

StartChar: L
Encoding: 76 76 45
Width: 1300
Flags: W
LayerCount: 2
Fore
SplineSet
383 160 m 1,0,-1
 1113 160 l 1,1,-1
 1093 0 l 1,2,-1
 188 0 l 1,3,-1
 208 200 l 1,4,-1
 208 1290 l 1,5,-1
 178 1500 l 1,6,-1
 393 1520 l 1,7,-1
 393 340 l 1,8,-1
 383 160 l 1,0,-1
EndSplineSet
EndChar

StartChar: M
Encoding: 77 77 46
Width: 1300
Flags: W
LayerCount: 2
Fore
SplineSet
973 0 m 1,0,-1
 973 901 l 1,1,-1
 1032 1399 l 1,2,-1
 1027 1400 l 1,3,-1
 873 921 l 1,4,-1
 700 500 l 1,5,-1
 600 500 l 1,6,-1
 424 920 l 1,7,-1
 260 1400 l 1,8,-1
 254 1399 l 1,9,-1
 328 901 l 1,10,-1
 328 0 l 1,11,-1
 148 0 l 1,12,-1
 148 1290 l 1,13,-1
 120 1500 l 1,14,-1
 334 1520 l 1,15,-1
 580 950 l 1,16,-1
 651 700 l 1,17,-1
 720 950 l 1,18,-1
 946 1500 l 1,19,-1
 1153 1520 l 1,20,-1
 1153 0 l 1,21,-1
 973 0 l 1,0,-1
EndSplineSet
EndChar

StartChar: N
Encoding: 78 78 47
Width: 1300
Flags: W
LayerCount: 2
Fore
SplineSet
945 0 m 1,0,-1
 450 948 l 1,1,-1
 291 1361 l 1,2,-1
 285 1360 l 1,3,-1
 350 920 l 1,4,-1
 350 0 l 1,5,-1
 170 0 l 1,6,-1
 170 1290 l 1,7,-1
 140 1500 l 1,8,-1
 341 1520 l 1,9,-1
 837 557 l 1,10,-1
 1003 140 l 1,11,-1
 1009 141 l 1,12,-1
 930 580 l 1,13,-1
 930 1500 l 1,14,-1
 1110 1520 l 1,15,-1
 1110 0 l 1,16,-1
 945 0 l 1,0,-1
EndSplineSet
EndChar

StartChar: O
Encoding: 79 79 48
Width: 1300
Flags: W
LayerCount: 2
Fore
SplineSet
650 -17 m 0,0,1
 560 -17 560 -17 484.5 10.5 c 128,-1,2
 409 38 409 38 347.5 88.5 c 128,-1,3
 286 139 286 139 240 209 c 128,-1,4
 194 279 194 279 162.5 364.5 c 128,-1,5
 131 450 131 450 115.5 547.5 c 128,-1,6
 100 645 100 645 100 750 c 256,7,8
 100 855 100 855 115 952.5 c 128,-1,9
 130 1050 130 1050 160.5 1135.5 c 128,-1,10
 191 1221 191 1221 236.5 1291 c 128,-1,11
 282 1361 282 1361 343 1411.5 c 128,-1,12
 404 1462 404 1462 481 1489.5 c 128,-1,13
 558 1517 558 1517 650 1517 c 0,14,15
 740 1517 740 1517 815.5 1489.5 c 128,-1,16
 891 1462 891 1462 952.5 1411.5 c 128,-1,17
 1014 1361 1014 1361 1060 1291 c 128,-1,18
 1106 1221 1106 1221 1137.5 1135.5 c 128,-1,19
 1169 1050 1169 1050 1184.5 952.5 c 128,-1,20
 1200 855 1200 855 1200 750 c 256,21,22
 1200 645 1200 645 1185 547.5 c 128,-1,23
 1170 450 1170 450 1139.5 364.5 c 128,-1,24
 1109 279 1109 279 1063.5 209 c 128,-1,25
 1018 139 1018 139 957 88.5 c 128,-1,26
 896 38 896 38 819 10.5 c 128,-1,27
 742 -17 742 -17 650 -17 c 0,0,1
992 719 m 0,28,29
 992 789 992 789 987.5 862 c 128,-1,30
 983 935 983 935 969.5 1004.5 c 128,-1,31
 956 1074 956 1074 932 1135.5 c 128,-1,32
 908 1197 908 1197 869.5 1242.5 c 128,-1,33
 831 1288 831 1288 775.5 1315 c 128,-1,34
 720 1342 720 1342 644 1342 c 0,35,36
 572 1342 572 1342 519 1318 c 128,-1,37
 466 1294 466 1294 429 1252.5 c 128,-1,38
 392 1211 392 1211 368 1155.5 c 128,-1,39
 344 1100 344 1100 331 1038 c 128,-1,40
 318 976 318 976 313 911 c 128,-1,41
 308 846 308 846 308 785 c 0,42,43
 308 714 308 714 312.5 640 c 128,-1,44
 317 566 317 566 330.5 496.5 c 128,-1,45
 344 427 344 427 368 365.5 c 128,-1,46
 392 304 392 304 431 258 c 128,-1,47
 470 212 470 212 525 185 c 128,-1,48
 580 158 580 158 656 158 c 0,49,50
 727 158 727 158 779.5 182.5 c 128,-1,51
 832 207 832 207 869.5 249.5 c 128,-1,52
 907 292 907 292 931 347.5 c 128,-1,53
 955 403 955 403 968.5 465.5 c 128,-1,54
 982 528 982 528 987 593 c 128,-1,55
 992 658 992 658 992 719 c 0,28,29
EndSplineSet
EndChar

StartChar: P
Encoding: 80 80 49
Width: 1300
Flags: W
LayerCount: 2
Fore
SplineSet
443 0 m 1,0,-1
 253 0 l 1,1,-1
 253 1290 l 1,2,-1
 218 1490 l 1,3,4
 248 1495 248 1495 288.5 1499 c 128,-1,5
 329 1503 329 1503 374 1506 c 128,-1,6
 419 1509 419 1509 465 1510.5 c 128,-1,7
 511 1512 511 1512 550 1512 c 0,8,9
 720 1512 720 1512 843.5 1481.5 c 128,-1,10
 967 1451 967 1451 1047 1396.5 c 128,-1,11
 1127 1342 1127 1342 1165.5 1266 c 128,-1,12
 1204 1190 1204 1190 1204 1099 c 0,13,14
 1204 964 1204 964 1156 873 c 128,-1,15
 1108 782 1108 782 1013 726.5 c 128,-1,16
 918 671 918 671 775 647.5 c 128,-1,17
 632 624 632 624 443 624 c 1,18,-1
 443 0 l 1,0,-1
443 1147 m 1,19,-1
 443 765 l 1,20,21
 595 765 595 765 703 782 c 128,-1,22
 811 799 811 799 880 837.5 c 128,-1,23
 949 876 949 876 981 939 c 128,-1,24
 1013 1002 1013 1002 1013 1095 c 0,25,26
 1013 1162 1013 1162 974.5 1213.5 c 128,-1,27
 936 1265 936 1265 875 1299.5 c 128,-1,28
 814 1334 814 1334 740 1352 c 128,-1,29
 666 1370 666 1370 595 1370 c 0,30,31
 578 1370 578 1370 554.5 1369.5 c 128,-1,32
 531 1369 531 1369 507 1367.5 c 128,-1,33
 483 1366 483 1366 460.5 1364 c 128,-1,34
 438 1362 438 1362 423 1359 c 1,35,-1
 443 1147 l 1,19,-1
EndSplineSet
EndChar

StartChar: Q
Encoding: 81 81 50
Width: 1300
Flags: W
LayerCount: 2
Fore
SplineSet
916 314 m 1,0,1
 935 346 935 346 951 385.5 c 128,-1,2
 967 425 967 425 977.5 477 c 128,-1,3
 988 529 988 529 994 596.5 c 128,-1,4
 1000 664 1000 664 1000 751 c 0,5,6
 1000 821 1000 821 993.5 892 c 128,-1,7
 987 963 987 963 971 1029.5 c 128,-1,8
 955 1096 955 1096 929 1154 c 128,-1,9
 903 1212 903 1212 863 1254.5 c 128,-1,10
 823 1297 823 1297 769 1322 c 128,-1,11
 715 1347 715 1347 644 1347 c 0,12,13
 576 1347 576 1347 524.5 1322.5 c 128,-1,14
 473 1298 473 1298 435 1256 c 128,-1,15
 397 1214 397 1214 371 1158 c 128,-1,16
 345 1102 345 1102 329 1039.5 c 128,-1,17
 313 977 313 977 306.5 911.5 c 128,-1,18
 300 846 300 846 300 785 c 0,19,20
 300 705 300 705 305 628 c 128,-1,21
 310 551 310 551 324.5 482 c 128,-1,22
 339 413 339 413 365.5 355 c 128,-1,23
 392 297 392 297 435.5 254.5 c 128,-1,24
 479 212 479 212 542 188 c 128,-1,25
 605 164 605 164 693 163 c 0,26,27
 703 163 703 163 711 165 c 128,-1,28
 719 167 719 167 736 172 c 1,29,30
 710 217 710 217 690.5 251.5 c 128,-1,31
 671 286 671 286 651 309.5 c 128,-1,32
 631 333 631 333 607 344.5 c 128,-1,33
 583 356 583 356 549 356 c 1,34,-1
 600 500 l 1,35,36
 649 500 649 500 688.5 479.5 c 128,-1,37
 728 459 728 459 764 418 c 128,-1,38
 800 377 800 377 836 316.5 c 128,-1,39
 872 256 872 256 916 177 c 1,40,-1
 916 314 l 1,0,1
756 0 m 1,41,42
 723 -8 723 -8 685.5 -11 c 128,-1,43
 648 -14 648 -14 600 -14 c 0,44,45
 476 -14 476 -14 382.5 49 c 128,-1,46
 289 112 289 112 226 218 c 128,-1,47
 163 324 163 324 131.5 462 c 128,-1,48
 100 600 100 600 100 750 c 0,49,50
 100 855 100 855 115 952.5 c 128,-1,51
 130 1050 130 1050 160.5 1135.5 c 128,-1,52
 191 1221 191 1221 236.5 1291 c 128,-1,53
 282 1361 282 1361 343 1411.5 c 128,-1,54
 404 1462 404 1462 481 1489.5 c 128,-1,55
 558 1517 558 1517 650 1517 c 0,56,57
 785 1517 785 1517 888 1461 c 128,-1,58
 991 1405 991 1405 1060 1307 c 128,-1,59
 1129 1209 1129 1209 1164.5 1074 c 128,-1,60
 1200 939 1200 939 1200 782 c 0,61,62
 1200 686 1200 686 1189 590.5 c 128,-1,63
 1178 495 1178 495 1154.5 409 c 128,-1,64
 1131 323 1131 323 1093.5 249.5 c 128,-1,65
 1056 176 1056 176 1002 124 c 0,66,67
 994 116 994 116 985 107.5 c 128,-1,68
 976 99 976 99 968 92 c 1,69,70
 987 60 987 60 1002 42 c 128,-1,71
 1017 24 1017 24 1036 14.5 c 128,-1,72
 1055 5 1055 5 1082 2.5 c 128,-1,73
 1109 0 1109 0 1151 0 c 1,74,-1
 1100 -145 l 1,75,76
 1050 -145 1050 -145 1008.5 -137 c 128,-1,77
 967 -129 967 -129 928.5 -103 c 128,-1,78
 890 -77 890 -77 853 -28 c 128,-1,79
 816 21 816 21 774 102 c 2,80,-1
 756 137 l 1,81,-1
 756 0 l 1,41,42
EndSplineSet
EndChar

StartChar: R
Encoding: 82 82 51
Width: 1300
Flags: W
LayerCount: 2
Fore
SplineSet
392 614 m 1,0,-1
 392 0 l 1,1,-1
 209 0 l 1,2,-1
 209 1290 l 1,3,-1
 174 1490 l 1,4,5
 241 1498 241 1498 321.5 1505 c 128,-1,6
 402 1512 402 1512 489 1512 c 0,7,8
 615 1512 615 1512 722 1485.5 c 128,-1,9
 829 1459 829 1459 907 1407 c 128,-1,10
 985 1355 985 1355 1029 1277.5 c 128,-1,11
 1073 1200 1073 1200 1073 1099 c 0,12,13
 1073 994 1073 994 1037 914 c 128,-1,14
 1001 834 1001 834 939 777.5 c 128,-1,15
 877 721 877 721 792 685.5 c 128,-1,16
 707 650 707 650 610 633 c 1,17,-1
 752 593 l 1,18,-1
 1155 0 l 1,19,-1
 932 0 l 1,20,-1
 529 595 l 2,21,22
 518 609 518 609 504 611.5 c 128,-1,23
 490 614 490 614 482 614 c 2,24,-1
 392 614 l 1,0,-1
392 1147 m 1,25,-1
 392 765 l 1,26,-1
 510 765 l 2,27,28
 601 765 601 765 671 790.5 c 128,-1,29
 741 816 741 816 789 859.5 c 128,-1,30
 837 903 837 903 862 960.5 c 128,-1,31
 887 1018 887 1018 887 1083 c 0,32,33
 887 1140 887 1140 871 1184 c 128,-1,34
 855 1228 855 1228 827 1260 c 128,-1,35
 799 1292 799 1292 762 1314.5 c 128,-1,36
 725 1337 725 1337 683.5 1350 c 128,-1,37
 642 1363 642 1363 598.5 1369 c 128,-1,38
 555 1375 555 1375 514 1375 c 0,39,40
 472 1375 472 1375 438.5 1372.5 c 128,-1,41
 405 1370 405 1370 372 1364 c 1,42,-1
 392 1147 l 1,25,-1
EndSplineSet
EndChar

StartChar: S
Encoding: 83 83 52
Width: 1300
Flags: W
LayerCount: 2
Fore
SplineSet
193 94 m 1,0,-1
 284 244 l 1,1,2
 304 231 304 231 336.5 214.5 c 128,-1,3
 369 198 369 198 409 183 c 128,-1,4
 449 168 449 168 494 158 c 128,-1,5
 539 148 539 148 585 148 c 0,6,7
 647 148 647 148 709.5 163.5 c 128,-1,8
 772 179 772 179 822.5 211.5 c 128,-1,9
 873 244 873 244 904.5 294 c 128,-1,10
 936 344 936 344 936 413 c 0,11,12
 936 478 936 478 906 527 c 128,-1,13
 876 576 876 576 827 615 c 128,-1,14
 778 654 778 654 715 686 c 128,-1,15
 652 718 652 718 586.5 750 c 128,-1,16
 521 782 521 782 458 816.5 c 128,-1,17
 395 851 395 851 346 895 c 128,-1,18
 297 939 297 939 267 995 c 128,-1,19
 237 1051 237 1051 237 1126 c 0,20,21
 237 1223 237 1223 278 1296 c 128,-1,22
 319 1369 319 1369 385 1418 c 128,-1,23
 451 1467 451 1467 535 1492 c 128,-1,24
 619 1517 619 1517 705 1517 c 0,25,26
 918 1517 918 1517 1098 1397 c 1,27,-1
 1001 1274 l 1,28,29
 933 1314 933 1314 870.5 1333 c 128,-1,30
 808 1352 808 1352 731 1352 c 0,31,32
 677 1352 677 1352 622.5 1341 c 128,-1,33
 568 1330 568 1330 524.5 1305.5 c 128,-1,34
 481 1281 481 1281 453.5 1241.5 c 128,-1,35
 426 1202 426 1202 426 1145 c 0,36,37
 426 1089 426 1089 456.5 1048 c 128,-1,38
 487 1007 487 1007 536.5 974.5 c 128,-1,39
 586 942 586 942 649 913.5 c 128,-1,40
 712 885 712 885 778.5 854.5 c 128,-1,41
 845 824 845 824 908 787.5 c 128,-1,42
 971 751 971 751 1020.5 701.5 c 128,-1,43
 1070 652 1070 652 1100.5 585.5 c 128,-1,44
 1131 519 1131 519 1131 429 c 0,45,46
 1131 317 1131 317 1085.5 233.5 c 128,-1,47
 1040 150 1040 150 965.5 94.5 c 128,-1,48
 891 39 891 39 795 11 c 128,-1,49
 699 -17 699 -17 599 -17 c 0,50,51
 535 -17 535 -17 480 -9.5 c 128,-1,52
 425 -2 425 -2 375.5 12 c 128,-1,53
 326 26 326 26 281 46.5 c 128,-1,54
 236 67 236 67 193 94 c 1,0,-1
EndSplineSet
EndChar

StartChar: T
Encoding: 84 84 53
Width: 1300
Flags: W
LayerCount: 2
Fore
SplineSet
555 0 m 1,0,-1
 555 1340 l 1,1,-1
 130 1340 l 1,2,-1
 130 1500 l 1,3,-1
 1165 1500 l 1,4,-1
 1165 1340 l 1,5,-1
 745 1340 l 1,6,-1
 745 0 l 1,7,-1
 555 0 l 1,0,-1
EndSplineSet
EndChar

StartChar: U
Encoding: 85 85 54
Width: 1300
Flags: W
LayerCount: 2
Fore
SplineSet
1115 1500 m 1,0,-1
 1115 523 l 2,1,2
 1115 387 1115 387 1082.5 285.5 c 128,-1,3
 1050 184 1050 184 988.5 117 c 128,-1,4
 927 50 927 50 838 16.5 c 128,-1,5
 749 -17 749 -17 635 -17 c 0,6,7
 513 -17 513 -17 427.5 25.5 c 128,-1,8
 342 68 342 68 288 145.5 c 128,-1,9
 234 223 234 223 209.5 332 c 128,-1,10
 185 441 185 441 185 573 c 2,11,-1
 185 1290 l 1,12,-1
 155 1500 l 1,13,-1
 375 1520 l 1,14,-1
 375 554 l 2,15,16
 375 459 375 459 393.5 384.5 c 128,-1,17
 412 310 412 310 447 258.5 c 128,-1,18
 482 207 482 207 532 180 c 128,-1,19
 582 153 582 153 645 153 c 0,20,21
 792 153 792 153 858.5 240.5 c 128,-1,22
 925 328 925 328 925 504 c 2,23,-1
 925 1500 l 1,24,-1
 1115 1500 l 1,0,-1
EndSplineSet
EndChar

StartChar: V
Encoding: 86 86 55
Width: 1300
Flags: W
LayerCount: 2
Fore
SplineSet
605 500 m 1,0,-1
 663 140 l 1,1,-1
 701 454 l 1,2,-1
 1011 1500 l 1,3,-1
 1195 1500 l 1,4,-1
 808 180 l 1,5,-1
 782 -20 l 1,6,-1
 554 0 l 1,7,-1
 112 1500 l 1,8,-1
 302 1520 l 1,9,-1
 605 500 l 1,0,-1
EndSplineSet
EndChar

StartChar: W
Encoding: 87 87 56
Width: 1300
Flags: W
LayerCount: 2
Fore
SplineSet
484 700 m 1,0,-1
 580 1100 l 1,1,-1
 720 1100 l 1,2,-1
 823 700 l 1,3,-1
 894 200 l 1,4,-1
 898 200 l 1,5,-1
 930 660 l 1,6,-1
 1083 1500 l 1,7,-1
 1260 1500 l 1,8,-1
 988 0 l 1,9,-1
 807 0 l 1,10,-1
 711 450 l 1,11,-1
 652 950 l 1,12,-1
 648 950 l 1,13,-1
 590 450 l 1,14,-1
 492 0 l 1,15,-1
 314 0 l 1,16,-1
 38 1500 l 1,17,-1
 212 1520 l 1,18,-1
 380 660 l 1,19,-1
 411 200 l 1,20,-1
 415 200 l 1,21,-1
 484 700 l 1,0,-1
EndSplineSet
EndChar

StartChar: X
Encoding: 88 88 57
Width: 1300
Flags: W
LayerCount: 2
Fore
SplineSet
1009 0 m 1,0,-1
 732 519 l 1,1,-1
 655 700 l 1,2,-1
 607 540 l 1,3,-1
 299 0 l 1,4,-1
 101 0 l 1,5,-1
 564 799 l 1,6,-1
 158 1500 l 1,7,-1
 370 1520 l 1,8,-1
 631 1056 l 1,9,-1
 711 860 l 1,10,-1
 746 1020 l 1,11,-1
 998 1500 l 1,12,-1
 1198 1500 l 1,13,-1
 799 776 l 1,14,-1
 1229 0 l 1,15,-1
 1009 0 l 1,0,-1
EndSplineSet
EndChar

StartChar: Y
Encoding: 89 89 58
Width: 1300
Flags: W
LayerCount: 2
Fore
SplineSet
691 935 m 1,0,-1
 979 1500 l 1,1,-1
 1171 1500 l 1,2,-1
 736 646 l 1,3,-1
 736 0 l 1,4,-1
 526 0 l 1,5,-1
 526 645 l 1,6,-1
 90 1500 l 1,7,-1
 294 1520 l 1,8,-1
 582 954 l 1,9,-1
 661 705 l 1,10,-1
 691 935 l 1,0,-1
EndSplineSet
EndChar

StartChar: Z
Encoding: 90 90 59
Width: 1300
Flags: W
LayerCount: 2
Fore
SplineSet
1101 160 m 1,0,-1
 1121 0 l 1,1,-1
 181 0 l 1,2,-1
 161 50 l 1,3,-1
 726 1200 l 1,4,-1
 910 1380 l 1,5,-1
 645 1340 l 1,6,-1
 250 1340 l 1,7,-1
 230 1500 l 1,8,-1
 1056 1500 l 1,9,-1
 1071 1478 l 1,10,-1
 500 300 l 1,11,-1
 322 120 l 1,12,-1
 587 160 l 1,13,-1
 1101 160 l 1,0,-1
EndSplineSet
EndChar

StartChar: bracketleft
Encoding: 91 91 60
Width: 1300
Flags: W
LayerCount: 2
Fore
SplineSet
422 1320 m 1,0,-1
 400 1520 l 1,1,-1
 972 1520 l 1,2,-1
 972 1370 l 1,3,-1
 600 1370 l 1,4,-1
 620 1170 l 1,5,-1
 620 -70 l 1,6,-1
 600 -270 l 1,7,-1
 972 -270 l 1,8,-1
 972 -420 l 1,9,-1
 400 -420 l 1,10,-1
 422 -220 l 1,11,-1
 422 1320 l 1,0,-1
EndSplineSet
EndChar

StartChar: backslash
Encoding: 92 92 61
Width: 1300
Flags: W
LayerCount: 2
Fore
SplineSet
175 1600 m 1,0,-1
 375 1600 l 1,1,-1
 1085 -100 l 1,2,-1
 875 -100 l 1,3,-1
 175 1600 l 1,0,-1
EndSplineSet
EndChar

StartChar: bracketright
Encoding: 93 93 62
Width: 1300
Flags: W
LayerCount: 2
Fore
SplineSet
978 -220 m 1,0,-1
 1000 -420 l 1,1,-1
 428 -420 l 1,2,-1
 428 -270 l 1,3,-1
 800 -270 l 1,4,-1
 780 -70 l 1,5,-1
 780 1170 l 1,6,-1
 800 1370 l 1,7,-1
 428 1370 l 1,8,-1
 428 1520 l 1,9,-1
 1000 1520 l 1,10,-1
 978 1320 l 1,11,-1
 978 -220 l 1,0,-1
EndSplineSet
EndChar

StartChar: asciicircum
Encoding: 94 94 63
Width: 1300
Flags: W
LayerCount: 2
Fore
SplineSet
1179 912 m 1,0,-1
 978 912 l 1,1,-1
 697 1239 l 1,2,-1
 652 1350 l 1,3,-1
 608 1241 l 1,4,-1
 338 914 l 1,5,-1
 122 914 l 1,6,-1
 580 1500 l 1,7,-1
 709 1517 l 1,8,-1
 1179 912 l 1,0,-1
EndSplineSet
EndChar

StartChar: underscore
Encoding: 95 95 64
Width: 1300
Flags: W
LayerCount: 2
Fore
SplineSet
100 -300 m 1,0,-1
 1200 -300 l 1,1,-1
 1200 -455 l 1,2,-1
 100 -455 l 1,3,-1
 100 -300 l 1,0,-1
EndSplineSet
EndChar

StartChar: grave
Encoding: 96 96 65
Width: 1300
Flags: W
LayerCount: 2
Fore
SplineSet
500 1517 m 256,0,1
 556 1517 556 1517 605 1496 c 128,-1,2
 654 1475 654 1475 690.5 1438 c 128,-1,3
 727 1401 727 1401 748 1352 c 128,-1,4
 769 1303 769 1303 769 1247 c 256,5,6
 769 1191 769 1191 748 1142 c 128,-1,7
 727 1093 727 1093 690.5 1056.5 c 128,-1,8
 654 1020 654 1020 605 998.5 c 128,-1,9
 556 977 556 977 500 977 c 256,10,11
 444 977 444 977 395 998.5 c 128,-1,12
 346 1020 346 1020 309.5 1056.5 c 128,-1,13
 273 1093 273 1093 252 1142 c 128,-1,14
 231 1191 231 1191 231 1247 c 256,15,16
 231 1303 231 1303 252 1352 c 128,-1,17
 273 1401 273 1401 309.5 1438 c 128,-1,18
 346 1475 346 1475 395 1496 c 128,-1,19
 444 1517 444 1517 500 1517 c 256,0,1
500 1088 m 256,20,21
 533 1088 533 1088 562 1100.5 c 128,-1,22
 591 1113 591 1113 612.5 1134.5 c 128,-1,23
 634 1156 634 1156 646.5 1185 c 128,-1,24
 659 1214 659 1214 659 1247 c 256,25,26
 659 1280 659 1280 646.5 1309 c 128,-1,27
 634 1338 634 1338 612.5 1359.5 c 128,-1,28
 591 1381 591 1381 562 1393.5 c 128,-1,29
 533 1406 533 1406 500 1406 c 256,30,31
 467 1406 467 1406 438 1393.5 c 128,-1,32
 409 1381 409 1381 387.5 1359.5 c 128,-1,33
 366 1338 366 1338 353.5 1309 c 128,-1,34
 341 1280 341 1280 341 1247 c 256,35,36
 341 1214 341 1214 353.5 1185 c 128,-1,37
 366 1156 366 1156 387.5 1134.5 c 128,-1,38
 409 1113 409 1113 438 1100.5 c 128,-1,39
 467 1088 467 1088 500 1088 c 256,20,21
EndSplineSet
EndChar

StartChar: a
Encoding: 97 97 66
Width: 1300
Flags: W
LayerCount: 2
Fore
SplineSet
1110 0 m 1,0,-1
 910 0 l 1,1,-1
 910 162 l 1,2,-1
 816 50 l 1,3,4
 799 37 799 37 772.5 25 c 128,-1,5
 746 13 746 13 716 3.5 c 128,-1,6
 686 -6 686 -6 655 -11.5 c 128,-1,7
 624 -17 624 -17 596 -17 c 0,8,9
 521 -17 521 -17 445 6.5 c 128,-1,10
 369 30 369 30 308 75.5 c 128,-1,11
 247 121 247 121 208.5 188.5 c 128,-1,12
 170 256 170 256 170 344 c 0,13,14
 170 437 170 437 209.5 504.5 c 128,-1,15
 249 572 249 572 313 616 c 128,-1,16
 377 660 377 660 459 681 c 128,-1,17
 541 702 541 702 625 702 c 0,18,19
 720 702 720 702 790 691.5 c 128,-1,20
 860 681 860 681 910 662 c 1,21,-1
 910 705 l 2,22,23
 910 764 910 764 895.5 811 c 128,-1,24
 881 858 881 858 850 890.5 c 128,-1,25
 819 923 819 923 770.5 940 c 128,-1,26
 722 957 722 957 655 957 c 0,27,28
 592 957 592 957 546.5 949.5 c 128,-1,29
 501 942 501 942 462 933 c 0,30,31
 439 928 439 928 418 922 c 128,-1,32
 397 916 397 916 377 910 c 1,33,-1
 305 1044 l 1,34,35
 347 1063 347 1063 405 1080 c 0,36,37
 453 1094 453 1094 514.5 1105.5 c 128,-1,38
 576 1117 576 1117 665 1117 c 0,39,40
 780 1117 780 1117 861 1086 c 128,-1,41
 942 1055 942 1055 993 999 c 128,-1,42
 1044 943 1044 943 1067 864.5 c 128,-1,43
 1090 786 1090 786 1090 690 c 2,44,-1
 1090 180 l 1,45,-1
 1110 0 l 1,0,-1
910 525 m 1,46,-1
 850 533 l 2,47,48
 836 534 836 534 813 536 c 128,-1,49
 790 538 790 538 763 539 c 2,50,-1
 710 541 l 2,51,52
 684 542 684 542 665 542 c 0,53,54
 609 542 609 542 555 532 c 128,-1,55
 501 522 501 522 458.5 499 c 128,-1,56
 416 476 416 476 389.5 438.5 c 128,-1,57
 363 401 363 401 363 345 c 0,58,59
 363 300 363 300 383 263 c 128,-1,60
 403 226 403 226 436.5 199 c 128,-1,61
 470 172 470 172 513.5 157.5 c 128,-1,62
 557 143 557 143 604 143 c 0,63,64
 697 143 697 143 771 178.5 c 128,-1,65
 845 214 845 214 910 274 c 1,66,-1
 910 525 l 1,46,-1
EndSplineSet
EndChar

StartChar: b
Encoding: 98 98 67
Width: 1300
Flags: W
LayerCount: 2
Fore
SplineSet
390 171 m 1,0,1
 409 165 409 165 434 160 c 128,-1,2
 459 155 459 155 487.5 151 c 128,-1,3
 516 147 516 147 545.5 145 c 128,-1,4
 575 143 575 143 604 143 c 0,5,6
 665 143 665 143 714.5 163 c 128,-1,7
 764 183 764 183 803 216.5 c 128,-1,8
 842 250 842 250 871 295.5 c 128,-1,9
 900 341 900 341 918.5 391.5 c 128,-1,10
 937 442 937 442 946 496 c 128,-1,11
 955 550 955 550 955 601 c 0,12,13
 955 701 955 701 929 769 c 128,-1,14
 903 837 903 837 862 879 c 128,-1,15
 821 921 821 921 771.5 939 c 128,-1,16
 722 957 722 957 675 957 c 0,17,18
 596 957 596 957 524.5 926.5 c 128,-1,19
 453 896 453 896 390 845 c 1,20,-1
 390 171 l 1,0,1
210 1420 m 1,21,-1
 190 1600 l 1,22,-1
 390 1620 l 1,23,-1
 390 974 l 1,24,-1
 475 1065 l 1,25,26
 526 1089 526 1089 581.5 1103 c 128,-1,27
 637 1117 637 1117 694 1117 c 0,28,29
 776 1117 776 1117 858 1083 c 128,-1,30
 940 1049 940 1049 1004.5 982.5 c 128,-1,31
 1069 916 1069 916 1109.5 819 c 128,-1,32
 1150 722 1150 722 1150 596 c 0,33,34
 1150 458 1150 458 1104.5 345 c 128,-1,35
 1059 232 1059 232 982.5 151.5 c 128,-1,36
 906 71 906 71 805.5 27 c 128,-1,37
 705 -17 705 -17 595 -17 c 0,38,39
 532 -17 532 -17 472.5 -12.5 c 128,-1,40
 413 -8 413 -8 362 -0.5 c 128,-1,41
 311 7 311 7 271.5 16.5 c 128,-1,42
 232 26 232 26 210 35 c 1,43,-1
 210 1420 l 1,21,-1
EndSplineSet
EndChar

StartChar: c
Encoding: 99 99 68
Width: 1300
Flags: W
LayerCount: 2
Fore
SplineSet
1007 878 m 1,0,1
 968 913 968 913 899 935 c 128,-1,2
 830 957 830 957 724 957 c 0,3,4
 640 957 640 957 573.5 925.5 c 128,-1,5
 507 894 507 894 460.5 840 c 128,-1,6
 414 786 414 786 389.5 714.5 c 128,-1,7
 365 643 365 643 365 564 c 0,8,9
 365 482 365 482 388.5 407.5 c 128,-1,10
 412 333 412 333 458.5 276 c 128,-1,11
 505 219 505 219 574 185.5 c 128,-1,12
 643 152 643 152 735 152 c 0,13,14
 787 152 787 152 835 164 c 128,-1,15
 883 176 883 176 922 192.5 c 128,-1,16
 961 209 961 209 988.5 225.5 c 128,-1,17
 1016 242 1016 242 1028 252 c 1,18,-1
 1100 111 l 1,19,20
 1085 98 1085 98 1055 76.5 c 128,-1,21
 1025 55 1025 55 978.5 34 c 128,-1,22
 932 13 932 13 868.5 -2 c 128,-1,23
 805 -17 805 -17 721 -17 c 0,24,25
 596 -17 596 -17 494.5 32.5 c 128,-1,26
 393 82 393 82 321 164.5 c 128,-1,27
 249 247 249 247 209.5 354 c 128,-1,28
 170 461 170 461 170 577 c 0,29,30
 170 681 170 681 208.5 778.5 c 128,-1,31
 247 876 247 876 319 951 c 128,-1,32
 391 1026 391 1026 494 1071.5 c 128,-1,33
 597 1117 597 1117 726 1117 c 0,34,35
 848 1117 848 1117 945.5 1088.5 c 128,-1,36
 1043 1060 1043 1060 1106 991 c 1,37,-1
 1007 878 l 1,0,1
EndSplineSet
EndChar

StartChar: d
Encoding: 100 100 69
Width: 1300
Flags: W
LayerCount: 2
Fore
SplineSet
746 940 m 2,0,1
 654 940 654 940 579 905.5 c 128,-1,2
 504 871 504 871 450.5 812 c 128,-1,3
 397 753 397 753 368 673 c 128,-1,4
 339 593 339 593 339 502 c 0,5,6
 339 413 339 413 364.5 346 c 128,-1,7
 390 279 390 279 431.5 234 c 128,-1,8
 473 189 473 189 525 166.5 c 128,-1,9
 577 144 577 144 630 144 c 0,10,11
 677 144 677 144 719 160 c 128,-1,12
 761 176 761 176 797 200 c 128,-1,13
 833 224 833 224 862 252.5 c 128,-1,14
 891 281 891 281 911 306 c 1,15,-1
 911 940 l 1,16,-1
 746 940 l 2,0,1
911 0 m 1,17,-1
 911 162 l 1,18,-1
 825 49 l 1,19,20
 789 25 789 25 729 4 c 128,-1,21
 669 -17 669 -17 591 -17 c 0,22,23
 501 -17 501 -17 421 15.5 c 128,-1,24
 341 48 341 48 281 114.5 c 128,-1,25
 221 181 221 181 186 283.5 c 128,-1,26
 151 386 151 386 151 526 c 0,27,28
 151 646 151 646 197.5 750.5 c 128,-1,29
 244 855 244 855 324 933 c 128,-1,30
 404 1011 404 1011 512.5 1055.5 c 128,-1,31
 621 1100 621 1100 745 1100 c 2,32,-1
 911 1100 l 1,33,-1
 911 1620 l 1,34,-1
 1091 1600 l 1,35,-1
 1091 180 l 1,36,-1
 1111 0 l 1,37,-1
 911 0 l 1,17,-1
EndSplineSet
EndChar

StartChar: e
Encoding: 101 101 70
Width: 1300
Flags: W
LayerCount: 2
Fore
SplineSet
1034 129 m 1,0,1
 1003 97 1003 97 966 70 c 128,-1,2
 929 43 929 43 884 23.5 c 128,-1,3
 839 4 839 4 784.5 -6.5 c 128,-1,4
 730 -17 730 -17 663 -17 c 0,5,6
 530 -17 530 -17 433 30 c 128,-1,7
 336 77 336 77 273 156 c 128,-1,8
 210 235 210 235 180 337 c 128,-1,9
 150 439 150 439 150 550 c 0,10,11
 150 621 150 621 164.5 690.5 c 128,-1,12
 179 760 179 760 206.5 823 c 128,-1,13
 234 886 234 886 275.5 940 c 128,-1,14
 317 994 317 994 371.5 1033 c 128,-1,15
 426 1072 426 1072 492.5 1094.5 c 128,-1,16
 559 1117 559 1117 638 1117 c 0,17,18
 746 1117 746 1117 833 1082 c 128,-1,19
 920 1047 920 1047 981 984 c 128,-1,20
 1042 921 1042 921 1075 832.5 c 128,-1,21
 1108 744 1108 744 1108 638 c 0,22,23
 1108 607 1108 607 1106 570 c 128,-1,24
 1104 533 1104 533 1100 500 c 1,25,-1
 340 500 l 1,26,27
 340 423 340 423 364 357.5 c 128,-1,28
 388 292 388 292 429.5 244.5 c 128,-1,29
 471 197 471 197 527.5 170 c 128,-1,30
 584 143 584 143 650 143 c 0,31,32
 714 143 714 143 759.5 152.5 c 128,-1,33
 805 162 805 162 836.5 176 c 128,-1,34
 868 190 868 190 889 206 c 128,-1,35
 910 222 910 222 925 236 c 1,36,-1
 1034 129 l 1,0,1
932 650 m 1,37,-1
 932 694 l 2,38,39
 932 751 932 751 909.5 799 c 128,-1,40
 887 847 887 847 848.5 882.5 c 128,-1,41
 810 918 810 918 759.5 938 c 128,-1,42
 709 958 709 958 653 958 c 0,43,44
 586 958 586 958 535.5 936.5 c 128,-1,45
 485 915 485 915 449 881.5 c 128,-1,46
 413 848 413 848 391 808 c 128,-1,47
 369 768 369 768 359 732 c 1,48,-1
 300 618 l 1,49,-1
 485 650 l 1,50,-1
 932 650 l 1,37,-1
EndSplineSet
EndChar

StartChar: f
Encoding: 102 102 71
Width: 1300
Flags: W
LayerCount: 2
Fore
SplineSet
148 1100 m 1,0,-1
 400 1100 l 1,1,-1
 400 1255 l 2,2,3
 400 1340 400 1340 434 1407 c 128,-1,4
 468 1474 468 1474 526 1520.5 c 128,-1,5
 584 1567 584 1567 662 1592 c 128,-1,6
 740 1617 740 1617 828 1617 c 0,7,8
 873 1617 873 1617 919 1609 c 128,-1,9
 965 1601 965 1601 1007.5 1588.5 c 128,-1,10
 1050 1576 1050 1576 1086 1560 c 128,-1,11
 1122 1544 1122 1544 1145 1529 c 1,12,-1
 1060 1411 l 1,13,14
 1048 1418 1048 1418 1023.5 1426 c 128,-1,15
 999 1434 999 1434 970.5 1441 c 128,-1,16
 942 1448 942 1448 912 1452.5 c 128,-1,17
 882 1457 882 1457 860 1457 c 0,18,19
 817 1457 817 1457 768.5 1445.5 c 128,-1,20
 720 1434 720 1434 679.5 1408.5 c 128,-1,21
 639 1383 639 1383 612 1342.5 c 128,-1,22
 585 1302 585 1302 585 1245 c 2,23,-1
 585 1100 l 1,24,-1
 1033 1100 l 1,25,-1
 1013 940 l 1,26,-1
 590 940 l 1,27,-1
 590 0 l 1,28,-1
 400 0 l 1,29,-1
 400 940 l 1,30,-1
 148 940 l 1,31,-1
 148 1100 l 1,0,-1
EndSplineSet
EndChar

StartChar: g
Encoding: 103 103 72
Width: 1300
Flags: W
LayerCount: 2
Fore
SplineSet
910 135 m 1,0,-1
 823 25 l 2,1,2
 814 19 814 19 797.5 12 c 128,-1,3
 781 5 781 5 757 -1.5 c 128,-1,4
 733 -8 733 -8 701 -12.5 c 128,-1,5
 669 -17 669 -17 630 -17 c 0,6,7
 569 -17 569 -17 510 3 c 128,-1,8
 451 23 451 23 397.5 60 c 128,-1,9
 344 97 344 97 299 148.5 c 128,-1,10
 254 200 254 200 220.5 262.5 c 128,-1,11
 187 325 187 325 168.5 396.5 c 128,-1,12
 150 468 150 468 150 545 c 0,13,14
 150 662 150 662 188 766 c 128,-1,15
 226 870 226 870 295 948 c 128,-1,16
 364 1026 364 1026 461 1071.5 c 128,-1,17
 558 1117 558 1117 676 1117 c 0,18,19
 713 1117 713 1117 748.5 1114 c 128,-1,20
 784 1111 784 1111 815 1100 c 1,21,-1
 910 958 l 1,22,-1
 910 1120 l 1,23,-1
 1090 1100 l 1,24,-1
 1090 -46 l 2,25,26
 1090 -144 1090 -144 1058 -230 c 128,-1,27
 1026 -316 1026 -316 965 -379.5 c 128,-1,28
 904 -443 904 -443 815 -480 c 128,-1,29
 726 -517 726 -517 612 -517 c 0,30,31
 533 -517 533 -517 473.5 -497 c 128,-1,32
 414 -477 414 -477 372 -453 c 0,33,34
 348 -439 348 -439 327 -423 c 128,-1,35
 306 -407 306 -407 289 -388 c 1,36,-1
 387 -278 l 1,37,38
 401 -289 401 -289 417.5 -299 c 128,-1,39
 434 -309 434 -309 452 -318 c 0,40,41
 483 -333 483 -333 524 -345 c 128,-1,42
 565 -357 565 -357 613 -357 c 0,43,44
 675 -357 675 -357 729 -331.5 c 128,-1,45
 783 -306 783 -306 823.5 -262 c 128,-1,46
 864 -218 864 -218 887 -158.5 c 128,-1,47
 910 -99 910 -99 910 -31 c 2,48,-1
 910 135 l 1,0,-1
910 834 m 1,49,50
 884 867 884 867 847 895 c 0,51,52
 816 918 816 918 772 937.5 c 128,-1,53
 728 957 728 957 671 957 c 0,54,55
 611 957 611 957 563 938 c 128,-1,56
 515 919 515 919 478.5 887 c 128,-1,57
 442 855 442 855 415.5 812.5 c 128,-1,58
 389 770 389 770 372.5 722.5 c 128,-1,59
 356 675 356 675 348 626.5 c 128,-1,60
 340 578 340 578 340 533 c 0,61,62
 340 448 340 448 366.5 376.5 c 128,-1,63
 393 305 393 305 436 253.5 c 128,-1,64
 479 202 479 202 534 173 c 128,-1,65
 589 144 589 144 646 144 c 0,66,67
 697 144 697 144 737 155 c 128,-1,68
 777 166 777 166 809 184.5 c 128,-1,69
 841 203 841 203 865.5 226.5 c 128,-1,70
 890 250 890 250 910 275 c 1,71,-1
 910 834 l 1,49,50
EndSplineSet
EndChar

StartChar: h
Encoding: 104 104 73
Width: 1300
Flags: W
LayerCount: 2
Fore
SplineSet
391 0 m 1,0,-1
 211 0 l 1,1,-1
 211 1400 l 1,2,-1
 191 1600 l 1,3,-1
 391 1620 l 1,4,-1
 391 950 l 1,5,-1
 480 1065 l 1,6,7
 519 1087 519 1087 592 1102 c 128,-1,8
 665 1117 665 1117 780 1117 c 0,9,10
 931 1117 931 1117 1010.5 1017.5 c 128,-1,11
 1090 918 1090 918 1090 730 c 2,12,-1
 1090 0 l 1,13,-1
 900 0 l 1,14,-1
 900 709 l 2,15,16
 900 776 900 776 888.5 823 c 128,-1,17
 877 870 877 870 856 900 c 128,-1,18
 835 930 835 930 804 943.5 c 128,-1,19
 773 957 773 957 734 957 c 0,20,21
 674 957 674 957 619.5 945 c 128,-1,22
 565 933 565 933 520 914.5 c 128,-1,23
 475 896 475 896 441.5 874 c 128,-1,24
 408 852 408 852 391 833 c 1,25,-1
 391 0 l 1,0,-1
EndSplineSet
EndChar

StartChar: i
Encoding: 105 105 74
Width: 1300
Flags: W
LayerCount: 2
Fore
SplineSet
711 393 m 2,0,1
 711 341 711 341 717.5 297 c 128,-1,2
 724 253 724 253 739 221 c 128,-1,3
 754 189 754 189 779 171 c 128,-1,4
 804 153 804 153 841 153 c 0,5,6
 890 153 890 153 936.5 161 c 128,-1,7
 983 169 983 169 1020 179.5 c 128,-1,8
 1057 190 1057 190 1081.5 199 c 128,-1,9
 1106 208 1106 208 1112 210 c 1,10,-1
 1151 56 l 1,11,12
 1145 53 1145 53 1119 41 c 128,-1,13
 1093 29 1093 29 1051 16.5 c 128,-1,14
 1009 4 1009 4 953 -6.5 c 128,-1,15
 897 -17 897 -17 831 -17 c 0,16,17
 733 -17 733 -17 672.5 15 c 128,-1,18
 612 47 612 47 578 103.5 c 128,-1,19
 544 160 544 160 532.5 237 c 128,-1,20
 521 314 521 314 521 403 c 2,21,-1
 521 920 l 1,22,-1
 561 980 l 1,23,-1
 421 940 l 1,24,-1
 220 940 l 1,25,-1
 200 1100 l 1,26,-1
 711 1100 l 1,27,-1
 711 393 l 2,0,1
515 1500 m 1,28,-1
 717 1500 l 1,29,-1
 717 1300 l 1,30,-1
 515 1300 l 1,31,-1
 515 1500 l 1,28,-1
EndSplineSet
EndChar

StartChar: j
Encoding: 106 106 75
Width: 1300
Flags: W
LayerCount: 2
Fore
SplineSet
695 1500 m 1,0,-1
 897 1500 l 1,1,-1
 897 1300 l 1,2,-1
 695 1300 l 1,3,-1
 695 1500 l 1,0,-1
741 980 m 1,4,-1
 601 940 l 1,5,-1
 400 940 l 1,6,-1
 380 1100 l 1,7,-1
 891 1100 l 1,8,-1
 891 -97 l 2,9,10
 891 -186 891 -186 879.5 -263 c 128,-1,11
 868 -340 868 -340 834 -396.5 c 128,-1,12
 800 -453 800 -453 739.5 -485 c 128,-1,13
 679 -517 679 -517 581 -517 c 0,14,15
 515 -517 515 -517 459 -506.5 c 128,-1,16
 403 -496 403 -496 361 -483.5 c 128,-1,17
 319 -471 319 -471 293 -459 c 128,-1,18
 267 -447 267 -447 261 -444 c 1,19,-1
 300 -290 l 1,20,21
 306 -292 306 -292 330.5 -301 c 128,-1,22
 355 -310 355 -310 392 -320.5 c 128,-1,23
 429 -331 429 -331 475 -339 c 128,-1,24
 521 -347 521 -347 571 -347 c 0,25,26
 608 -347 608 -347 633 -329 c 128,-1,27
 658 -311 658 -311 673 -279 c 128,-1,28
 688 -247 688 -247 694.5 -203 c 128,-1,29
 701 -159 701 -159 701 -107 c 2,30,-1
 701 920 l 1,31,-1
 741 980 l 1,4,-1
EndSplineSet
EndChar

StartChar: k
Encoding: 107 107 76
Width: 1300
Flags: W
LayerCount: 2
Fore
SplineSet
211 0 m 1,0,-1
 211 1420 l 1,1,-1
 191 1600 l 1,2,-1
 391 1620 l 1,3,-1
 391 690 l 1,4,-1
 781 1100 l 1,5,-1
 1010 1100 l 1,6,-1
 630 690 l 1,7,-1
 452 627 l 1,8,-1
 630 567 l 1,9,-1
 1121 0 l 1,10,-1
 885 0 l 1,11,-1
 391 557 l 1,12,-1
 391 0 l 1,13,-1
 211 0 l 1,0,-1
EndSplineSet
EndChar

StartChar: l
Encoding: 108 108 77
Width: 1300
Flags: W
LayerCount: 2
Fore
SplineSet
510 1420 m 1,0,-1
 550 1480 l 1,1,-1
 410 1440 l 1,2,-1
 209 1440 l 1,3,-1
 189 1600 l 1,4,-1
 690 1600 l 1,5,-1
 690 376 l 2,6,7
 690 310 690 310 700 265.5 c 128,-1,8
 710 221 710 221 727 193.5 c 128,-1,9
 744 166 744 166 768 154.5 c 128,-1,10
 792 143 792 143 820 143 c 0,11,12
 860 143 860 143 893.5 149 c 128,-1,13
 927 155 927 155 953.5 164 c 128,-1,14
 980 173 980 173 999.5 183 c 128,-1,15
 1019 193 1019 193 1031 200 c 1,16,-1
 1100 79 l 1,17,18
 1092 72 1092 72 1067 56 c 128,-1,19
 1042 40 1042 40 1003.5 24 c 128,-1,20
 965 8 965 8 913.5 -4.5 c 128,-1,21
 862 -17 862 -17 800 -17 c 0,22,23
 710 -17 710 -17 653 16 c 128,-1,24
 596 49 596 49 564.5 106 c 128,-1,25
 533 163 533 163 521.5 238.5 c 128,-1,26
 510 314 510 314 510 400 c 2,27,-1
 510 1420 l 1,0,-1
EndSplineSet
EndChar

StartChar: m
Encoding: 109 109 78
Width: 1300
Flags: W
LayerCount: 2
Fore
SplineSet
264 0 m 1,0,-1
 86 0 l 1,1,-1
 86 1100 l 1,2,-1
 264 1120 l 1,3,-1
 264 937 l 1,4,5
 285 977 285 977 296.5 999.5 c 128,-1,6
 308 1022 308 1022 313.5 1032.5 c 128,-1,7
 319 1043 319 1043 320 1045 c 2,8,-1
 322 1048 l 2,9,10
 331 1057 331 1057 347.5 1069 c 128,-1,11
 364 1081 364 1081 388 1091.5 c 128,-1,12
 412 1102 412 1102 443 1109.5 c 128,-1,13
 474 1117 474 1117 513 1117 c 0,14,15
 569 1117 569 1117 605 1102.5 c 128,-1,16
 641 1088 641 1088 664 1062.5 c 128,-1,17
 687 1037 687 1037 700 1001 c 128,-1,18
 713 965 713 965 724 923 c 1,19,-1
 787 1043 l 1,20,21
 797 1052 797 1052 819.5 1065 c 128,-1,22
 842 1078 842 1078 871.5 1089.5 c 128,-1,23
 901 1101 901 1101 934 1109 c 128,-1,24
 967 1117 967 1117 999 1117 c 0,25,26
 1075 1117 1075 1117 1119.5 1091.5 c 128,-1,27
 1164 1066 1164 1066 1186.5 1018 c 128,-1,28
 1209 970 1209 970 1215.5 902 c 128,-1,29
 1222 834 1222 834 1222 750 c 2,30,-1
 1222 0 l 1,31,-1
 1044 0 l 1,32,-1
 1044 740 l 2,33,34
 1044 794 1044 794 1042.5 834.5 c 128,-1,35
 1041 875 1041 875 1030.5 902.5 c 128,-1,36
 1020 930 1020 930 997.5 943.5 c 128,-1,37
 975 957 975 957 934 957 c 0,38,39
 914 957 914 957 885 944.5 c 128,-1,40
 856 932 856 932 827.5 912.5 c 128,-1,41
 799 893 799 893 774.5 868.5 c 128,-1,42
 750 844 750 844 740 819 c 0,43,44
 740 813 740 813 740.5 799.5 c 128,-1,45
 741 786 741 786 741.5 771.5 c 128,-1,46
 742 757 742 757 742 744 c 2,47,-1
 742 0 l 1,48,-1
 563 0 l 1,49,-1
 563 720 l 2,50,51
 563 774 563 774 561 818 c 128,-1,52
 559 862 559 862 548.5 892.5 c 128,-1,53
 538 923 538 923 514.5 940 c 128,-1,54
 491 957 491 957 448 957 c 0,55,56
 432 957 432 957 407 948 c 128,-1,57
 382 939 382 939 355.5 921.5 c 128,-1,58
 329 904 329 904 304.5 879.5 c 128,-1,59
 280 855 280 855 264 824 c 1,60,-1
 264 0 l 1,0,-1
EndSplineSet
EndChar

StartChar: n
Encoding: 110 110 79
Width: 1300
Flags: W
LayerCount: 2
Fore
SplineSet
391 0 m 1,0,-1
 211 0 l 1,1,-1
 211 1100 l 1,2,-1
 391 1120 l 1,3,-1
 391 927 l 1,4,-1
 452 1044 l 1,5,6
 470 1056 470 1056 494.5 1069 c 128,-1,7
 519 1082 519 1082 554 1092.5 c 128,-1,8
 589 1103 589 1103 637 1110 c 128,-1,9
 685 1117 685 1117 750 1117 c 0,10,11
 829 1117 829 1117 892.5 1091.5 c 128,-1,12
 956 1066 956 1066 999.5 1018 c 128,-1,13
 1043 970 1043 970 1066.5 902 c 128,-1,14
 1090 834 1090 834 1090 750 c 2,15,-1
 1090 0 l 1,16,-1
 910 0 l 1,17,-1
 910 750 l 2,18,19
 910 804 910 804 892.5 843 c 128,-1,20
 875 882 875 882 844 907.5 c 128,-1,21
 813 933 813 933 772 945 c 128,-1,22
 731 957 731 957 685 957 c 0,23,24
 637 957 637 957 592.5 945 c 128,-1,25
 548 933 548 933 510 914.5 c 128,-1,26
 472 896 472 896 441.5 874.5 c 128,-1,27
 411 853 411 853 391 834 c 1,28,-1
 391 0 l 1,0,-1
EndSplineSet
EndChar

StartChar: o
Encoding: 111 111 80
Width: 1300
Flags: W
LayerCount: 2
Fore
SplineSet
649 -17 m 0,0,1
 538 -17 538 -17 445.5 26.5 c 128,-1,2
 353 70 353 70 286 146.5 c 128,-1,3
 219 223 219 223 181.5 327 c 128,-1,4
 144 431 144 431 144 553 c 0,5,6
 144 674 144 674 180 777.5 c 128,-1,7
 216 881 216 881 282 956.5 c 128,-1,8
 348 1032 348 1032 441.5 1074.5 c 128,-1,9
 535 1117 535 1117 649 1117 c 0,10,11
 760 1117 760 1117 851 1074.5 c 128,-1,12
 942 1032 942 1032 1007.5 956.5 c 128,-1,13
 1073 881 1073 881 1109 777.5 c 128,-1,14
 1145 674 1145 674 1145 553 c 0,15,16
 1145 431 1145 431 1110.5 327 c 128,-1,17
 1076 223 1076 223 1011.5 146.5 c 128,-1,18
 947 70 947 70 855 26.5 c 128,-1,19
 763 -17 763 -17 649 -17 c 0,0,1
955 526 m 0,20,21
 955 607 955 607 938 685 c 128,-1,22
 921 763 921 763 884 824.5 c 128,-1,23
 847 886 847 886 788 924 c 128,-1,24
 729 962 729 962 645 962 c 0,25,26
 565 962 565 962 506 929 c 128,-1,27
 447 896 447 896 409 841 c 128,-1,28
 371 786 371 786 352.5 716 c 128,-1,29
 334 646 334 646 334 572 c 0,30,31
 334 491 334 491 352.5 413 c 128,-1,32
 371 335 371 335 409.5 274 c 128,-1,33
 448 213 448 213 508.5 175.5 c 128,-1,34
 569 138 569 138 653 138 c 0,35,36
 732 138 732 138 789.5 171 c 128,-1,37
 847 204 847 204 883.5 258.5 c 128,-1,38
 920 313 920 313 937.5 382.5 c 128,-1,39
 955 452 955 452 955 526 c 0,20,21
EndSplineSet
EndChar

StartChar: p
Encoding: 112 112 81
Width: 1300
Flags: W
LayerCount: 2
Fore
SplineSet
390 160 m 1,0,-1
 554 160 l 2,1,2
 646 160 646 160 721 190.5 c 128,-1,3
 796 221 796 221 849 276 c 128,-1,4
 902 331 902 331 931 408 c 128,-1,5
 960 485 960 485 960 578 c 0,6,7
 960 676 960 676 933 747.5 c 128,-1,8
 906 819 906 819 864 865.5 c 128,-1,9
 822 912 822 912 770.5 934.5 c 128,-1,10
 719 957 719 957 670 957 c 256,11,12
 621 957 621 957 578.5 944.5 c 128,-1,13
 536 932 536 932 500.5 913 c 128,-1,14
 465 894 465 894 437 871 c 128,-1,15
 409 848 409 848 390 827 c 1,16,-1
 390 160 l 1,0,-1
210 -500 m 1,17,-1
 210 1100 l 1,18,-1
 390 1120 l 1,19,-1
 390 944 l 1,20,-1
 485 1071 l 1,21,22
 514 1088 514 1088 567.5 1102.5 c 128,-1,23
 621 1117 621 1117 699 1117 c 0,24,25
 782 1117 782 1117 863 1078 c 128,-1,26
 944 1039 944 1039 1007.5 967 c 128,-1,27
 1071 895 1071 895 1110.5 793 c 128,-1,28
 1150 691 1150 691 1150 565 c 0,29,30
 1150 442 1150 442 1102.5 338.5 c 128,-1,31
 1055 235 1055 235 971.5 159.5 c 128,-1,32
 888 84 888 84 776 42 c 128,-1,33
 664 0 664 0 535 0 c 2,34,-1
 390 0 l 1,35,-1
 390 -500 l 1,36,-1
 210 -500 l 1,17,-1
EndSplineSet
EndChar

StartChar: q
Encoding: 113 113 82
Width: 1300
Flags: W
LayerCount: 2
Fore
SplineSet
911 935 m 1,0,1
 892 939 892 939 866.5 943 c 128,-1,2
 841 947 841 947 812.5 950 c 128,-1,3
 784 953 784 953 754 955 c 128,-1,4
 724 957 724 957 697 957 c 0,5,6
 605 957 605 957 539 918 c 128,-1,7
 473 879 473 879 430 817 c 128,-1,8
 387 755 387 755 366.5 677.5 c 128,-1,9
 346 600 346 600 346 524 c 0,10,11
 346 424 346 424 372.5 352 c 128,-1,12
 399 280 399 280 440 233.5 c 128,-1,13
 481 187 481 187 530.5 165 c 128,-1,14
 580 143 580 143 626 143 c 0,15,16
 665 143 665 143 703 153.5 c 128,-1,17
 741 164 741 164 777 181.5 c 128,-1,18
 813 199 813 199 846.5 222 c 128,-1,19
 880 245 880 245 911 270 c 1,20,-1
 911 935 l 1,0,1
911 136 m 1,21,-1
 806 29 l 1,22,23
 755 5 755 5 705 -6 c 128,-1,24
 655 -17 655 -17 607 -17 c 0,25,26
 552 -17 552 -17 497 -0.5 c 128,-1,27
 442 16 442 16 391 48.5 c 128,-1,28
 340 81 340 81 296.5 127.5 c 128,-1,29
 253 174 253 174 220.5 234.5 c 128,-1,30
 188 295 188 295 169.5 367.5 c 128,-1,31
 151 440 151 440 151 524 c 0,32,33
 151 662 151 662 195.5 772 c 128,-1,34
 240 882 240 882 316 958.5 c 128,-1,35
 392 1035 392 1035 491.5 1076 c 128,-1,36
 591 1117 591 1117 701 1117 c 0,37,38
 764 1117 764 1117 825.5 1111.5 c 128,-1,39
 887 1106 887 1106 939 1098 c 128,-1,40
 991 1090 991 1090 1031 1081 c 128,-1,41
 1071 1072 1071 1072 1091 1065 c 1,42,-1
 1091 -500 l 1,43,-1
 911 -500 l 1,44,-1
 911 136 l 1,21,-1
EndSplineSet
EndChar

StartChar: r
Encoding: 114 114 83
Width: 1300
Flags: W
LayerCount: 2
Fore
SplineSet
391 895 m 1,0,-1
 482 1053 l 1,1,2
 510 1074 510 1074 546 1087 c 128,-1,3
 582 1100 582 1100 620 1106.5 c 128,-1,4
 658 1113 658 1113 696.5 1115 c 128,-1,5
 735 1117 735 1117 770 1117 c 0,6,7
 845 1117 845 1117 898 1110.5 c 128,-1,8
 951 1104 951 1104 987.5 1094 c 128,-1,9
 1024 1084 1024 1084 1046 1073.5 c 128,-1,10
 1068 1063 1068 1063 1080 1055 c 1,11,-1
 1130 770 l 1,12,-1
 980 750 l 1,13,-1
 930 928 l 1,14,15
 922 931 922 931 905 934 c 128,-1,16
 888 937 888 937 866 940 c 128,-1,17
 844 943 844 943 819.5 945 c 128,-1,18
 795 947 795 947 773 947 c 0,19,20
 705 947 705 947 647 931.5 c 128,-1,21
 589 916 589 916 541 889 c 128,-1,22
 493 862 493 862 455.5 826 c 128,-1,23
 418 790 418 790 391 750 c 1,24,-1
 391 0 l 1,25,-1
 211 0 l 1,26,-1
 211 1100 l 1,27,-1
 391 1120 l 1,28,-1
 391 895 l 1,0,-1
EndSplineSet
EndChar

StartChar: s
Encoding: 115 115 84
Width: 1300
Flags: W
LayerCount: 2
Fore
SplineSet
962 899 m 1,0,1
 943 908 943 908 916.5 919.5 c 128,-1,2
 890 931 890 931 857 940.5 c 128,-1,3
 824 950 824 950 784.5 956.5 c 128,-1,4
 745 963 745 963 700 963 c 0,5,6
 639 963 639 963 581 957 c 128,-1,7
 523 951 523 951 478 935 c 128,-1,8
 433 919 433 919 405.5 892 c 128,-1,9
 378 865 378 865 378 822 c 0,10,11
 378 786 378 786 405 760.5 c 128,-1,12
 432 735 432 735 475.5 716.5 c 128,-1,13
 519 698 519 698 574 684.5 c 128,-1,14
 629 671 629 671 685 659 c 128,-1,15
 741 647 741 647 793 635.5 c 128,-1,16
 845 624 845 624 883 610 c 0,17,18
 927 593 927 593 965.5 567 c 128,-1,19
 1004 541 1004 541 1033 506.5 c 128,-1,20
 1062 472 1062 472 1078.5 430.5 c 128,-1,21
 1095 389 1095 389 1095 341 c 0,22,23
 1095 276 1095 276 1070 224.5 c 128,-1,24
 1045 173 1045 173 1002.5 133.5 c 128,-1,25
 960 94 960 94 904 65.5 c 128,-1,26
 848 37 848 37 785.5 18.5 c 128,-1,27
 723 0 723 0 658.5 -8.5 c 128,-1,28
 594 -17 594 -17 535 -17 c 0,29,30
 501 -17 501 -17 450.5 -10.5 c 128,-1,31
 400 -4 400 -4 347.5 7.5 c 128,-1,32
 295 19 295 19 248 35 c 128,-1,33
 201 51 201 51 175 69 c 1,34,-1
 241 211 l 1,35,36
 265 199 265 199 304 187 c 128,-1,37
 343 175 343 175 386 165 c 128,-1,38
 429 155 429 155 469.5 149 c 128,-1,39
 510 143 510 143 537 143 c 0,40,41
 568 143 568 143 606.5 146.5 c 128,-1,42
 645 150 645 150 685.5 158.5 c 128,-1,43
 726 167 726 167 764.5 181.5 c 128,-1,44
 803 196 803 196 833 218 c 128,-1,45
 863 240 863 240 881.5 270 c 128,-1,46
 900 300 900 300 900 340 c 0,47,48
 900 379 900 379 874 406 c 128,-1,49
 848 433 848 433 805 452 c 128,-1,50
 762 471 762 471 708.5 484.5 c 128,-1,51
 655 498 655 498 599 510 c 128,-1,52
 543 522 543 522 491 534.5 c 128,-1,53
 439 547 439 547 400 566 c 0,54,55
 343 593 343 593 305.5 624.5 c 128,-1,56
 268 656 268 656 245.5 691 c 128,-1,57
 223 726 223 726 214 764 c 128,-1,58
 205 802 205 802 205 842 c 0,59,60
 205 913 205 913 245.5 965 c 128,-1,61
 286 1017 286 1017 354 1050.5 c 128,-1,62
 422 1084 422 1084 510 1100.5 c 128,-1,63
 598 1117 598 1117 694 1117 c 0,64,65
 746 1117 746 1117 795.5 1111 c 128,-1,66
 845 1105 845 1105 888.5 1095 c 128,-1,67
 932 1085 932 1085 966 1072.5 c 128,-1,68
 1000 1060 1000 1060 1020 1047 c 1,69,-1
 962 899 l 1,0,1
EndSplineSet
EndChar

StartChar: t
Encoding: 116 116 85
Width: 1300
Flags: W
LayerCount: 2
Fore
SplineSet
571 376 m 2,0,1
 571 310 571 310 578.5 265.5 c 128,-1,2
 586 221 586 221 600.5 193.5 c 128,-1,3
 615 166 615 166 636.5 154.5 c 128,-1,4
 658 143 658 143 686 143 c 0,5,6
 733 143 733 143 779 154 c 128,-1,7
 825 165 825 165 865 179.5 c 128,-1,8
 905 194 905 194 936 208.5 c 128,-1,9
 967 223 967 223 984 230 c 1,10,-1
 1053 109 l 1,11,12
 1044 101 1044 101 1009.5 80.5 c 128,-1,13
 975 60 975 60 922.5 38 c 128,-1,14
 870 16 870 16 804 -0.5 c 128,-1,15
 738 -17 738 -17 666 -17 c 0,16,17
 576 -17 576 -17 521.5 16 c 128,-1,18
 467 49 467 49 438 106 c 128,-1,19
 409 163 409 163 400 238.5 c 128,-1,20
 391 314 391 314 391 400 c 2,21,-1
 391 940 l 1,22,-1
 100 940 l 1,23,-1
 100 1100 l 1,24,-1
 391 1100 l 1,25,-1
 391 1309 l 1,26,-1
 566 1420 l 1,27,-1
 566 1100 l 1,28,-1
 1050 1100 l 1,29,-1
 1030 940 l 1,30,-1
 571 940 l 1,31,-1
 571 376 l 2,0,1
EndSplineSet
EndChar

StartChar: u
Encoding: 117 117 86
Width: 1300
Flags: W
LayerCount: 2
Fore
SplineSet
931 1100 m 1,0,-1
 1111 1120 l 1,1,-1
 1111 0 l 1,2,-1
 931 0 l 1,3,-1
 931 180 l 1,4,-1
 870 73 l 2,5,6
 861 62 861 62 841 47 c 128,-1,7
 821 32 821 32 791 17.5 c 128,-1,8
 761 3 761 3 722 -7 c 128,-1,9
 683 -17 683 -17 635 -17 c 0,10,11
 514 -17 514 -17 432.5 20.5 c 128,-1,12
 351 58 351 58 302 120 c 128,-1,13
 253 182 253 182 232 263 c 128,-1,14
 211 344 211 344 211 430 c 2,15,-1
 211 1100 l 1,16,-1
 391 1120 l 1,17,-1
 391 430 l 2,18,19
 391 365 391 365 404 313 c 128,-1,20
 417 261 417 261 448.5 224 c 128,-1,21
 480 187 480 187 532.5 167.5 c 128,-1,22
 585 148 585 148 663 148 c 0,23,24
 721 148 721 148 766 164.5 c 128,-1,25
 811 181 811 181 844.5 204.5 c 128,-1,26
 878 228 878 228 899.5 254 c 128,-1,27
 921 280 921 280 931 300 c 1,28,-1
 931 1100 l 1,0,-1
EndSplineSet
EndChar

StartChar: v
Encoding: 118 118 87
Width: 1300
Flags: W
LayerCount: 2
Fore
SplineSet
1109 1120 m 1,0,-1
 738 -20 l 1,1,-1
 532 0 l 1,2,-1
 175 1100 l 1,3,-1
 358 1120 l 1,4,-1
 597 381 l 1,5,-1
 650 149 l 1,6,-1
 700 381 l 1,7,-1
 934 1100 l 1,8,-1
 1109 1120 l 1,0,-1
EndSplineSet
EndChar

StartChar: w
Encoding: 119 119 88
Width: 1300
Flags: W
LayerCount: 2
Fore
SplineSet
836 400 m 1,0,-1
 897 150 l 1,1,-1
 908 480 l 1,2,-1
 1038 1100 l 1,3,-1
 1200 1120 l 1,4,-1
 982 0 l 1,5,-1
 835 0 l 1,6,-1
 703 348 l 1,7,-1
 647 750 l 1,8,-1
 593 350 l 1,9,-1
 462 0 l 1,10,-1
 315 0 l 1,11,-1
 100 1100 l 1,12,-1
 262 1120 l 1,13,-1
 385 480 l 1,14,-1
 406 150 l 1,15,-1
 571 885 l 1,16,-1
 724 885 l 1,17,-1
 836 400 l 1,0,-1
EndSplineSet
EndChar

StartChar: x
Encoding: 120 120 89
Width: 1300
Flags: W
LayerCount: 2
Fore
SplineSet
962 0 m 1,0,-1
 683 392 l 1,1,-1
 638 510 l 1,2,-1
 593 392 l 1,3,-1
 305 0 l 1,4,-1
 106 0 l 1,5,-1
 528 588 l 1,6,-1
 160 1100 l 1,7,-1
 371 1120 l 1,8,-1
 626 771 l 1,9,-1
 665 660 l 1,10,-1
 703 771 l 1,11,-1
 939 1100 l 1,12,-1
 1150 1120 l 1,13,-1
 775 583 l 1,14,-1
 1187 0 l 1,15,-1
 962 0 l 1,0,-1
EndSplineSet
EndChar

StartChar: y
Encoding: 121 121 90
Width: 1300
Flags: W
LayerCount: 2
Fore
SplineSet
712 364 m 1,0,-1
 981 1100 l 1,1,-1
 1161 1120 l 1,2,-1
 757 -17 l 2,3,4
 727 -101 727 -101 692.5 -184 c 128,-1,5
 658 -267 658 -267 614.5 -333 c 128,-1,6
 571 -399 571 -399 516.5 -439.5 c 128,-1,7
 462 -480 462 -480 392 -480 c 0,8,9
 336 -480 336 -480 289 -458 c 128,-1,10
 242 -436 242 -436 200 -400 c 1,11,-1
 273 -283 l 1,12,13
 279 -289 279 -289 288.5 -297 c 128,-1,14
 298 -305 298 -305 309.5 -312.5 c 128,-1,15
 321 -320 321 -320 334.5 -325 c 128,-1,16
 348 -330 348 -330 362 -330 c 0,17,18
 398 -330 398 -330 427.5 -304.5 c 128,-1,19
 457 -279 457 -279 482.5 -238 c 128,-1,20
 508 -197 508 -197 529.5 -147 c 128,-1,21
 551 -97 551 -97 571 -47 c 1,22,-1
 164 1100 l 1,23,-1
 354 1120 l 1,24,-1
 618 364 l 1,25,-1
 670 132 l 1,26,-1
 712 364 l 1,0,-1
EndSplineSet
EndChar

StartChar: z
Encoding: 122 122 91
Width: 1300
Flags: W
LayerCount: 2
Fore
SplineSet
1100 160 m 1,0,-1
 1120 0 l 1,1,-1
 201 0 l 1,2,-1
 181 50 l 1,3,-1
 684 826 l 1,4,-1
 876 980 l 1,5,-1
 631 940 l 1,6,-1
 268 940 l 1,7,-1
 248 1100 l 1,8,-1
 1032 1100 l 1,9,-1
 1052 1051 l 1,10,-1
 563 280 l 1,11,-1
 372 120 l 1,12,-1
 537 160 l 1,13,-1
 1100 160 l 1,0,-1
EndSplineSet
EndChar

StartChar: braceleft
Encoding: 123 123 92
Width: 1300
Flags: W
LayerCount: 2
Fore
SplineSet
228 625 m 1,0,-1
 350 625 l 1,1,2
 399 632 399 632 428.5 652 c 128,-1,3
 458 672 458 672 474 704 c 128,-1,4
 490 736 490 736 495 780 c 128,-1,5
 500 824 500 824 500 880 c 2,6,-1
 500 1119 l 2,7,8
 500 1204 500 1204 515.5 1277 c 128,-1,9
 531 1350 531 1350 569 1403 c 128,-1,10
 607 1456 607 1456 670.5 1486.5 c 128,-1,11
 734 1517 734 1517 830 1517 c 0,12,13
 876 1517 876 1517 908.5 1514 c 128,-1,14
 941 1511 941 1511 966.5 1505 c 128,-1,15
 992 1499 992 1499 1012.5 1490.5 c 128,-1,16
 1033 1482 1033 1482 1054 1472 c 1,17,-1
 991 1349 l 1,18,19
 972 1360 972 1360 939.5 1368 c 128,-1,20
 907 1376 907 1376 882 1376 c 2,21,-1
 869 1376 l 1,22,23
 815 1372 815 1372 781.5 1353.5 c 128,-1,24
 748 1335 748 1335 730 1302.5 c 128,-1,25
 712 1270 712 1270 706 1223.5 c 128,-1,26
 700 1177 700 1177 700 1119 c 2,27,-1
 700 880 l 2,28,29
 700 776 700 776 676 690 c 128,-1,30
 652 604 652 604 593 550 c 1,31,32
 623 523 623 523 643 487.5 c 128,-1,33
 663 452 663 452 676 409.5 c 128,-1,34
 689 367 689 367 694.5 319 c 128,-1,35
 700 271 700 271 700 220 c 2,36,-1
 700 -20 l 2,37,38
 700 -79 700 -79 706 -125 c 128,-1,39
 712 -171 712 -171 730 -203.5 c 128,-1,40
 748 -236 748 -236 781.5 -254.5 c 128,-1,41
 815 -273 815 -273 869 -277 c 1,42,-1
 882 -277 l 2,43,44
 907 -277 907 -277 939.5 -269 c 128,-1,45
 972 -261 972 -261 991 -250 c 1,46,-1
 1054 -373 l 1,47,48
 1033 -383 1033 -383 1012.5 -391.5 c 128,-1,49
 992 -400 992 -400 966.5 -406.5 c 128,-1,50
 941 -413 941 -413 908.5 -416.5 c 128,-1,51
 876 -420 876 -420 830 -420 c 0,52,53
 734 -420 734 -420 670.5 -389.5 c 128,-1,54
 607 -359 607 -359 569 -305 c 128,-1,55
 531 -251 531 -251 515.5 -178 c 128,-1,56
 500 -105 500 -105 500 -20 c 2,57,-1
 500 220 l 2,58,59
 500 275 500 275 495 319.5 c 128,-1,60
 490 364 490 364 474 396 c 128,-1,61
 458 428 458 428 428.5 448 c 128,-1,62
 399 468 399 468 350 475 c 1,63,-1
 228 475 l 1,64,-1
 228 625 l 1,0,-1
EndSplineSet
EndChar

StartChar: bar
Encoding: 124 124 93
Width: 1300
Flags: W
LayerCount: 2
Fore
SplineSet
700 1520 m 1,0,-1
 700 -400 l 1,1,-1
 500 -400 l 1,2,-1
 500 1500 l 1,3,-1
 700 1520 l 1,0,-1
EndSplineSet
EndChar

StartChar: braceright
Encoding: 125 125 94
Width: 1300
Flags: W
LayerCount: 2
Fore
SplineSet
1072 625 m 1,0,-1
 1072 475 l 1,1,-1
 950 475 l 1,2,3
 901 468 901 468 871.5 448 c 128,-1,4
 842 428 842 428 826 396 c 128,-1,5
 810 364 810 364 805 319.5 c 128,-1,6
 800 275 800 275 800 220 c 2,7,-1
 800 -20 l 2,8,9
 800 -105 800 -105 784.5 -178 c 128,-1,10
 769 -251 769 -251 731 -305 c 128,-1,11
 693 -359 693 -359 629.5 -389.5 c 128,-1,12
 566 -420 566 -420 470 -420 c 0,13,14
 424 -420 424 -420 391.5 -416.5 c 128,-1,15
 359 -413 359 -413 333.5 -406.5 c 128,-1,16
 308 -400 308 -400 287.5 -391.5 c 128,-1,17
 267 -383 267 -383 246 -373 c 1,18,-1
 309 -250 l 1,19,20
 328 -261 328 -261 360.5 -269 c 128,-1,21
 393 -277 393 -277 418 -277 c 2,22,-1
 431 -277 l 1,23,24
 485 -273 485 -273 518.5 -254.5 c 128,-1,25
 552 -236 552 -236 570 -203.5 c 128,-1,26
 588 -171 588 -171 594 -125 c 128,-1,27
 600 -79 600 -79 600 -20 c 2,28,-1
 600 220 l 2,29,30
 600 271 600 271 605.5 319 c 128,-1,31
 611 367 611 367 624 409.5 c 128,-1,32
 637 452 637 452 657 487.5 c 128,-1,33
 677 523 677 523 707 550 c 1,34,35
 648 604 648 604 624 690 c 128,-1,36
 600 776 600 776 600 880 c 2,37,-1
 600 1119 l 2,38,39
 600 1177 600 1177 594 1223.5 c 128,-1,40
 588 1270 588 1270 570 1302.5 c 128,-1,41
 552 1335 552 1335 518.5 1353.5 c 128,-1,42
 485 1372 485 1372 431 1376 c 1,43,-1
 418 1376 l 2,44,45
 393 1376 393 1376 360.5 1368 c 128,-1,46
 328 1360 328 1360 309 1349 c 1,47,-1
 246 1472 l 1,48,49
 267 1482 267 1482 287.5 1490.5 c 128,-1,50
 308 1499 308 1499 333.5 1505 c 128,-1,51
 359 1511 359 1511 391.5 1514 c 128,-1,52
 424 1517 424 1517 470 1517 c 0,53,54
 566 1517 566 1517 629.5 1486.5 c 128,-1,55
 693 1456 693 1456 731 1403 c 128,-1,56
 769 1350 769 1350 784.5 1277 c 128,-1,57
 800 1204 800 1204 800 1119 c 2,58,-1
 800 880 l 2,59,60
 800 824 800 824 805 780 c 128,-1,61
 810 736 810 736 826 704 c 128,-1,62
 842 672 842 672 871.5 652 c 128,-1,63
 901 632 901 632 950 625 c 1,64,-1
 1072 625 l 1,0,-1
EndSplineSet
EndChar

StartChar: asciitilde
Encoding: 126 126 95
Width: 1300
Flags: W
LayerCount: 2
Fore
SplineSet
133 484 m 1,0,1
 144 540 144 540 175.5 597.5 c 128,-1,2
 207 655 207 655 252 701 c 128,-1,3
 297 747 297 747 353 776 c 128,-1,4
 409 805 409 805 471 805 c 0,5,6
 516 805 516 805 552 791.5 c 128,-1,7
 588 778 588 778 617.5 758.5 c 128,-1,8
 647 739 647 739 673 715.5 c 128,-1,9
 699 692 699 692 726 672.5 c 128,-1,10
 753 653 753 653 782 639.5 c 128,-1,11
 811 626 811 626 847 626 c 256,12,13
 883 626 883 626 912 641 c 128,-1,14
 941 656 941 656 962 679.5 c 128,-1,15
 983 703 983 703 997.5 732.5 c 128,-1,16
 1012 762 1012 762 1020 792 c 1,17,-1
 1166 776 l 1,18,19
 1156 714 1156 714 1126.5 651 c 128,-1,20
 1097 588 1097 588 1052 537 c 128,-1,21
 1007 486 1007 486 948 454 c 128,-1,22
 889 422 889 422 822 422 c 0,23,24
 786 422 786 422 754 435.5 c 128,-1,25
 722 449 722 449 692.5 468.5 c 128,-1,26
 663 488 663 488 634.5 511.5 c 128,-1,27
 606 535 606 535 576.5 554.5 c 128,-1,28
 547 574 547 574 515 587.5 c 128,-1,29
 483 601 483 601 447 601 c 0,30,31
 416 601 416 601 389.5 590 c 128,-1,32
 363 579 363 579 342 560.5 c 128,-1,33
 321 542 321 542 306 518 c 128,-1,34
 291 494 291 494 282 468 c 1,35,-1
 133 484 l 1,0,1
EndSplineSet
EndChar

StartChar: exclamdown
Encoding: 161 161 97
Width: 1300
Flags: W
LayerCount: 2
Fore
SplineSet
395 -400 m 1,0,-1
 395 671 l 1,1,-1
 605 650 l 1,2,-1
 605 -400 l 1,3,-1
 395 -400 l 1,0,-1
378 994 m 256,4,5
 378 1019 378 1019 387.5 1041.5 c 128,-1,6
 397 1064 397 1064 413.5 1080.5 c 128,-1,7
 430 1097 430 1097 452 1107 c 128,-1,8
 474 1117 474 1117 500 1117 c 0,9,10
 525 1117 525 1117 547 1107 c 128,-1,11
 569 1097 569 1097 585 1080.5 c 128,-1,12
 601 1064 601 1064 610.5 1041.5 c 128,-1,13
 620 1019 620 1019 620 994 c 256,14,15
 620 969 620 969 610.5 947 c 128,-1,16
 601 925 601 925 584.5 908.5 c 128,-1,17
 568 892 568 892 546 882.5 c 128,-1,18
 524 873 524 873 499 873 c 256,19,20
 474 873 474 873 452 882.5 c 128,-1,21
 430 892 430 892 413.5 908.5 c 128,-1,22
 397 925 397 925 387.5 947 c 128,-1,23
 378 969 378 969 378 994 c 256,4,5
EndSplineSet
EndChar

StartChar: cent
Encoding: 162 162 98
Width: 1300
Flags: W
LayerCount: 2
Fore
SplineSet
873 1320 m 1,0,-1
 873 1113 l 1,1,2
 927 1105 927 1105 970 1088 c 0,3,4
 1043 1060 1043 1060 1106 991 c 1,5,-1
 1007 878 l 1,6,7
 968 912 968 912 914 935 c 0,8,9
 900 940 900 940 887 944.5 c 128,-1,10
 874 949 874 949 860 951 c 1,11,-1
 860 153 l 1,12,13
 884 155 884 155 905 159 c 128,-1,14
 926 163 926 163 945 170 c 0,15,16
 999 188 999 188 1028 208 c 1,17,-1
 1100 67 l 1,18,19
 1072 48 1072 48 1039.5 32.5 c 128,-1,20
 1007 17 1007 17 969 6 c 0,21,22
 947 -1 947 -1 923 -6 c 128,-1,23
 899 -11 899 -11 873 -13 c 1,24,-1
 873 -200 l 1,25,-1
 727 -200 l 1,26,-1
 727 -12 l 1,27,28
 709 -12 709 -12 682.5 -8.5 c 128,-1,29
 656 -5 656 -5 628 1 c 128,-1,30
 600 7 600 7 574 15 c 128,-1,31
 548 23 548 23 532 31 c 0,32,33
 461 67 461 67 408.5 124.5 c 128,-1,34
 356 182 356 182 320.5 254 c 128,-1,35
 285 326 285 326 267.5 408.5 c 128,-1,36
 250 491 250 491 250 577 c 0,37,38
 250 656 250 656 267 730.5 c 128,-1,39
 284 805 284 805 319 869.5 c 128,-1,40
 354 934 354 934 407 985.5 c 128,-1,41
 460 1037 460 1037 531 1071 c 0,42,43
 547 1079 547 1079 573 1086.5 c 128,-1,44
 599 1094 599 1094 627.5 1099.5 c 128,-1,45
 656 1105 656 1105 682.5 1108.5 c 128,-1,46
 709 1112 709 1112 727 1112 c 1,47,-1
 727 1300 l 1,48,-1
 873 1320 l 1,0,-1
611 925 m 0,49,50
 567 902 567 902 535.5 865 c 128,-1,51
 504 828 504 828 484 781 c 128,-1,52
 464 734 464 734 454.5 679 c 128,-1,53
 445 624 445 624 445 564 c 0,54,55
 445 502 445 502 453.5 444.5 c 128,-1,56
 462 387 462 387 481.5 338 c 128,-1,57
 501 289 501 289 533 250 c 128,-1,58
 565 211 565 211 611 185 c 0,59,60
 628 176 628 176 661 167 c 128,-1,61
 694 158 694 158 739 158 c 1,62,-1
 739 952 l 1,63,64
 694 952 694 952 661 943.5 c 128,-1,65
 628 935 628 935 611 925 c 0,49,50
EndSplineSet
EndChar

StartChar: sterling
Encoding: 163 163 99
Width: 1300
Flags: W
LayerCount: 2
Fore
SplineSet
350 850 m 1,0,-1
 511 850 l 1,1,-1
 556 1165 l 2,2,3
 567 1241 567 1241 589 1306 c 128,-1,4
 611 1371 611 1371 648.5 1417.5 c 128,-1,5
 686 1464 686 1464 740.5 1490.5 c 128,-1,6
 795 1517 795 1517 872 1517 c 0,7,8
 923 1517 923 1517 965.5 1510.5 c 128,-1,9
 1008 1504 1008 1504 1044 1487 c 0,10,11
 1081 1470 1081 1470 1106 1455.5 c 128,-1,12
 1131 1441 1131 1441 1145 1428 c 1,13,-1
 1055 1327 l 1,14,15
 986 1372 986 1372 919 1372 c 0,16,17
 870 1372 870 1372 837.5 1356.5 c 128,-1,18
 805 1341 805 1341 784.5 1311 c 128,-1,19
 764 1281 764 1281 752.5 1238 c 128,-1,20
 741 1195 741 1195 734 1141 c 2,21,-1
 693 850 l 1,22,-1
 900 850 l 1,23,-1
 880 700 l 1,24,-1
 672 700 l 1,25,26
 616 263 616 263 588 224 c 2,27,-1
 500 104 l 1,28,-1
 662 147 l 1,29,-1
 1100 147 l 1,30,-1
 1100 0 l 1,31,-1
 154 0 l 1,32,-1
 174 147 l 1,33,-1
 312 147 l 2,34,35
 347 147 347 147 386 197 c 0,36,37
 426 247 426 247 490 700 c 1,38,-1
 350 700 l 1,39,-1
 350 850 l 1,0,-1
EndSplineSet
EndChar

StartChar: yen
Encoding: 165 165 100
Width: 1300
Flags: W
LayerCount: 2
Fore
SplineSet
100 550 m 1,0,-1
 495 550 l 1,1,-1
 495 645 l 1,2,-1
 467 700 l 1,3,-1
 100 700 l 1,4,-1
 100 850 l 1,5,-1
 390 850 l 1,6,-1
 59 1500 l 1,7,-1
 263 1520 l 1,8,-1
 551 954 l 1,9,-1
 630 705 l 1,10,-1
 660 935 l 1,11,-1
 948 1500 l 1,12,-1
 1140 1500 l 1,13,-1
 809 850 l 1,14,-1
 1100 850 l 1,15,-1
 1100 700 l 1,16,-1
 732 700 l 1,17,-1
 705 646 l 1,18,-1
 705 550 l 1,19,-1
 1100 550 l 1,20,-1
 1100 400 l 1,21,-1
 705 400 l 1,22,-1
 705 0 l 1,23,-1
 495 0 l 1,24,-1
 495 400 l 1,25,-1
 100 400 l 1,26,-1
 100 550 l 1,0,-1
EndSplineSet
EndChar

StartChar: section
Encoding: 167 167 101
Width: 1300
Flags: W
LayerCount: 2
Fore
SplineSet
872 1351 m 1,0,1
 824 1377 824 1377 772 1385 c 128,-1,2
 720 1393 720 1393 663 1393 c 0,3,4
 614 1393 614 1393 570 1382 c 128,-1,5
 526 1371 526 1371 492.5 1347 c 128,-1,6
 459 1323 459 1323 439.5 1286 c 128,-1,7
 420 1249 420 1249 420 1197 c 0,8,9
 420 1147 420 1147 443.5 1108 c 128,-1,10
 467 1069 467 1069 506 1035.5 c 128,-1,11
 545 1002 545 1002 594 971.5 c 128,-1,12
 643 941 643 941 695 908.5 c 128,-1,13
 747 876 747 876 796 838.5 c 128,-1,14
 845 801 845 801 884 754.5 c 128,-1,15
 923 708 923 708 946.5 649.5 c 128,-1,16
 970 591 970 591 970 515 c 0,17,18
 970 421 970 421 934.5 358.5 c 128,-1,19
 899 296 899 296 836 257 c 0,20,21
 816 244 816 244 793.5 234 c 128,-1,22
 771 224 771 224 746 216 c 1,23,-1
 778 192 l 2,24,25
 814 165 814 165 845.5 134 c 128,-1,26
 877 103 877 103 900 68.5 c 128,-1,27
 923 34 923 34 936.5 -5.5 c 128,-1,28
 950 -45 950 -45 950 -88 c 0,29,30
 950 -165 950 -165 923 -226.5 c 128,-1,31
 896 -288 896 -288 845 -331 c 128,-1,32
 794 -374 794 -374 719.5 -397 c 128,-1,33
 645 -420 645 -420 551 -420 c 0,34,35
 468 -420 468 -420 399.5 -404.5 c 128,-1,36
 331 -389 331 -389 264 -348 c 1,37,-1
 324 -251 l 1,38,39
 372 -277 372 -277 424 -285 c 128,-1,40
 476 -293 476 -293 533 -293 c 0,41,42
 582 -293 582 -293 626 -282 c 128,-1,43
 670 -271 670 -271 703.5 -247 c 128,-1,44
 737 -223 737 -223 756.5 -186 c 128,-1,45
 776 -149 776 -149 776 -97 c 0,46,47
 776 -47 776 -47 752.5 -8 c 128,-1,48
 729 31 729 31 690 64.5 c 128,-1,49
 651 98 651 98 602 128.5 c 128,-1,50
 553 159 553 159 501 191.5 c 128,-1,51
 449 224 449 224 400 261.5 c 128,-1,52
 351 299 351 299 312 345.5 c 128,-1,53
 273 392 273 392 249.5 450.5 c 128,-1,54
 226 509 226 509 226 585 c 0,55,56
 226 679 226 679 262 741.5 c 128,-1,57
 298 804 298 804 359 842 c 0,58,59
 401 868 401 868 449 883 c 1,60,-1
 418 907 l 2,61,62
 382 935 382 935 350.5 966 c 128,-1,63
 319 997 319 997 296 1031.5 c 128,-1,64
 273 1066 273 1066 259.5 1105 c 128,-1,65
 246 1144 246 1144 246 1188 c 0,66,67
 246 1265 246 1265 273 1326 c 128,-1,68
 300 1387 300 1387 351 1429.5 c 128,-1,69
 402 1472 402 1472 476 1494.5 c 128,-1,70
 550 1517 550 1517 645 1517 c 0,71,72
 727 1517 727 1517 796 1503 c 128,-1,73
 865 1489 865 1489 932 1448 c 1,74,-1
 872 1351 l 1,0,1
485 767 m 0,75,76
 448 737 448 737 427 692 c 128,-1,77
 406 647 406 647 406 587 c 0,78,79
 406 549 406 549 419.5 515 c 128,-1,80
 433 481 433 481 456 450 c 128,-1,81
 479 419 479 419 510.5 390.5 c 128,-1,82
 542 362 542 362 578 336 c 2,83,-1
 640 291 l 1,84,85
 681 308 681 308 711 332 c 0,86,87
 748 363 748 363 769 408 c 128,-1,88
 790 453 790 453 790 513 c 0,89,90
 790 550 790 550 776.5 584.5 c 128,-1,91
 763 619 763 619 740 650 c 128,-1,92
 717 681 717 681 685.5 709 c 128,-1,93
 654 737 654 737 618 763 c 2,94,-1
 555 808 l 1,95,96
 518 794 518 794 485 767 c 0,75,76
EndSplineSet
EndChar

StartChar: dieresis
Encoding: 168 168 102
Width: 1300
Flags: W
LayerCount: 2
Fore
SplineSet
300 1500 m 1,0,-1
 500 1500 l 1,1,-1
 500 1300 l 1,2,-1
 300 1300 l 1,3,-1
 300 1500 l 1,0,-1
700 1500 m 1,4,-1
 900 1500 l 1,5,-1
 900 1300 l 1,6,-1
 700 1300 l 1,7,-1
 700 1500 l 1,4,-1
EndSplineSet
EndChar

StartChar: copyright
Encoding: 169 169 103
Width: 1300
Flags: W
LayerCount: 2
Fore
SplineSet
650 1517 m 256,0,1
 747 1517 747 1517 832.5 1480 c 128,-1,2
 918 1443 918 1443 982 1379 c 128,-1,3
 1046 1315 1046 1315 1083 1229.5 c 128,-1,4
 1120 1144 1120 1144 1120 1047 c 0,5,6
 1120 949 1120 949 1083 863.5 c 128,-1,7
 1046 778 1046 778 982 714.5 c 128,-1,8
 918 651 918 651 832.5 614 c 128,-1,9
 747 577 747 577 650 577 c 256,10,11
 553 577 553 577 467.5 614 c 128,-1,12
 382 651 382 651 318 714.5 c 128,-1,13
 254 778 254 778 217 863.5 c 128,-1,14
 180 949 180 949 180 1047 c 0,15,16
 180 1144 180 1144 217 1229.5 c 128,-1,17
 254 1315 254 1315 318 1379 c 128,-1,18
 382 1443 382 1443 467.5 1480 c 128,-1,19
 553 1517 553 1517 650 1517 c 256,0,1
650 663 m 0,20,21
 728 663 728 663 797.5 693.5 c 128,-1,22
 867 724 867 724 919.5 776 c 128,-1,23
 972 828 972 828 1003 898 c 128,-1,24
 1034 968 1034 968 1034 1047 c 256,25,26
 1034 1126 1034 1126 1004 1196 c 128,-1,27
 974 1266 974 1266 921.5 1318.5 c 128,-1,28
 869 1371 869 1371 799 1401 c 128,-1,29
 729 1431 729 1431 650 1431 c 0,30,31
 570 1431 570 1431 500.5 1401 c 128,-1,32
 431 1371 431 1371 378.5 1318.5 c 128,-1,33
 326 1266 326 1266 296 1196 c 128,-1,34
 266 1126 266 1126 266 1047 c 0,35,36
 266 969 266 969 296.5 899.5 c 128,-1,37
 327 830 327 830 379 777.5 c 128,-1,38
 431 725 431 725 501 694 c 128,-1,39
 571 663 571 663 650 663 c 0,20,21
810 1197 m 1,40,41
 791 1213 791 1213 756.5 1223 c 128,-1,42
 722 1233 722 1233 669 1233 c 0,43,44
 627 1233 627 1233 593.5 1218.5 c 128,-1,45
 560 1204 560 1204 537 1180 c 128,-1,46
 514 1156 514 1156 501.5 1123.5 c 128,-1,47
 489 1091 489 1091 489 1056 c 0,48,49
 489 1019 489 1019 501 985.5 c 128,-1,50
 513 952 513 952 536 926.5 c 128,-1,51
 559 901 559 901 593.5 885.5 c 128,-1,52
 628 870 628 870 674 870 c 0,53,54
 700 870 700 870 724 875.5 c 128,-1,55
 748 881 748 881 767.5 888.5 c 128,-1,56
 787 896 787 896 801 903.5 c 128,-1,57
 815 911 815 911 821 915 c 1,58,-1
 857 852 l 1,59,60
 849 846 849 846 834 836.5 c 128,-1,61
 819 827 819 827 796 817.5 c 128,-1,62
 773 808 773 808 741 801 c 128,-1,63
 709 794 709 794 667 794 c 0,64,65
 605 794 605 794 554 816.5 c 128,-1,66
 503 839 503 839 467 876 c 128,-1,67
 431 913 431 913 411.5 961 c 128,-1,68
 392 1009 392 1009 392 1062 c 0,69,70
 392 1108 392 1108 411 1152 c 128,-1,71
 430 1196 430 1196 466 1230 c 128,-1,72
 502 1264 502 1264 553.5 1284.5 c 128,-1,73
 605 1305 605 1305 670 1305 c 0,74,75
 731 1305 731 1305 779.5 1292 c 128,-1,76
 828 1279 828 1279 860 1248 c 1,77,-1
 810 1197 l 1,40,41
EndSplineSet
EndChar

StartChar: ordfeminine
Encoding: 170 170 104
Width: 1300
Flags: W
LayerCount: 2
Fore
SplineSet
200 800 m 1,0,-1
 600 800 l 1,1,-1
 600 700 l 1,2,-1
 200 700 l 1,3,-1
 200 800 l 1,0,-1
600 959 m 1,4,-1
 500 959 l 1,5,-1
 500 1040 l 1,6,-1
 453 984 l 2,7,8
 444 977 444 977 431 971 c 128,-1,9
 418 965 418 965 403 960.5 c 128,-1,10
 388 956 388 956 372.5 953 c 128,-1,11
 357 950 357 950 343 950 c 0,12,13
 305 950 305 950 267 962 c 128,-1,14
 229 974 229 974 198.5 996.5 c 128,-1,15
 168 1019 168 1019 149 1053 c 128,-1,16
 130 1087 130 1087 130 1131 c 0,17,18
 130 1177 130 1177 149.5 1211 c 128,-1,19
 169 1245 169 1245 201 1267 c 128,-1,20
 233 1289 233 1289 274 1299.5 c 128,-1,21
 315 1310 315 1310 357 1310 c 0,22,23
 405 1310 405 1310 440 1304.5 c 128,-1,24
 475 1299 475 1299 500 1290 c 1,25,-1
 500 1311 l 2,26,27
 500 1341 500 1341 492.5 1364.5 c 128,-1,28
 485 1388 485 1388 469.5 1404 c 128,-1,29
 454 1420 454 1420 430 1428.5 c 128,-1,30
 406 1437 406 1437 372 1437 c 0,31,32
 341 1437 341 1437 318 1433.5 c 128,-1,33
 295 1430 295 1430 276 1425 c 0,34,35
 264 1423 264 1423 253.5 1420 c 128,-1,36
 243 1417 243 1417 233 1414 c 1,37,-1
 197 1481 l 1,38,39
 218 1490 218 1490 247 1499 c 0,40,41
 271 1506 271 1506 302 1511.5 c 128,-1,42
 333 1517 333 1517 377 1517 c 0,43,44
 435 1517 435 1517 475.5 1501.5 c 128,-1,45
 516 1486 516 1486 541.5 1458 c 128,-1,46
 567 1430 567 1430 578.5 1391 c 128,-1,47
 590 1352 590 1352 590 1304 c 2,48,-1
 590 1049 l 1,49,-1
 600 959 l 1,4,-1
500 1221 m 1,50,-1
 470 1225 l 2,51,52
 463 1226 463 1226 451.5 1227 c 128,-1,53
 440 1228 440 1228 426.5 1228.5 c 128,-1,54
 413 1229 413 1229 400 1229.5 c 128,-1,55
 387 1230 387 1230 377 1230 c 0,56,57
 349 1230 349 1230 322 1225 c 128,-1,58
 295 1220 295 1220 274 1208.5 c 128,-1,59
 253 1197 253 1197 239.5 1178 c 128,-1,60
 226 1159 226 1159 226 1131 c 0,61,62
 226 1109 226 1109 236 1090.5 c 128,-1,63
 246 1072 246 1072 263 1058.5 c 128,-1,64
 280 1045 280 1045 301.5 1037.5 c 128,-1,65
 323 1030 323 1030 347 1030 c 0,66,67
 393 1030 393 1030 430 1048 c 128,-1,68
 467 1066 467 1066 500 1096 c 1,69,-1
 500 1221 l 1,50,-1
EndSplineSet
EndChar

StartChar: guillemotleft
Encoding: 171 171 105
Width: 1300
Flags: W
LayerCount: 2
Fore
SplineSet
570 1026 m 1,0,-1
 620 901 l 1,1,-1
 295 610 l 1,2,-1
 157 550 l 1,3,-1
 294 490 l 1,4,-1
 622 201 l 1,5,-1
 568 66 l 1,6,-1
 100 478 l 1,7,-1
 100 617 l 1,8,-1
 570 1026 l 1,0,-1
1070 1026 m 1,9,-1
 1120 901 l 1,10,-1
 795 610 l 1,11,-1
 657 550 l 1,12,-1
 794 490 l 1,13,-1
 1122 201 l 1,14,-1
 1068 66 l 1,15,-1
 600 478 l 1,16,-1
 600 617 l 1,17,-1
 1070 1026 l 1,9,-1
EndSplineSet
EndChar

StartChar: logicalnot
Encoding: 172 172 106
Width: 1300
Flags: W
LayerCount: 2
Fore
SplineSet
1217 800 m 1,0,-1
 1200 589 l 1,1,-1
 1200 280 l 1,2,-1
 1000 280 l 1,3,-1
 1000 449 l 1,4,-1
 1016 640 l 1,5,-1
 112 640 l 1,6,-1
 112 800 l 1,7,-1
 1217 800 l 1,0,-1
EndSplineSet
EndChar

StartChar: registered
Encoding: 174 174 107
Width: 1300
Flags: W
LayerCount: 2
Fore
SplineSet
650 1517 m 256,0,1
 747 1517 747 1517 832.5 1480 c 128,-1,2
 918 1443 918 1443 982 1379 c 128,-1,3
 1046 1315 1046 1315 1083 1229.5 c 128,-1,4
 1120 1144 1120 1144 1120 1047 c 0,5,6
 1120 949 1120 949 1083 863.5 c 128,-1,7
 1046 778 1046 778 982 714.5 c 128,-1,8
 918 651 918 651 832.5 614 c 128,-1,9
 747 577 747 577 650 577 c 256,10,11
 553 577 553 577 467.5 614 c 128,-1,12
 382 651 382 651 318 714.5 c 128,-1,13
 254 778 254 778 217 863.5 c 128,-1,14
 180 949 180 949 180 1047 c 0,15,16
 180 1144 180 1144 217 1229.5 c 128,-1,17
 254 1315 254 1315 318 1379 c 128,-1,18
 382 1443 382 1443 467.5 1480 c 128,-1,19
 553 1517 553 1517 650 1517 c 256,0,1
650 663 m 0,20,21
 728 663 728 663 797.5 693.5 c 128,-1,22
 867 724 867 724 919.5 776 c 128,-1,23
 972 828 972 828 1003 898 c 128,-1,24
 1034 968 1034 968 1034 1047 c 256,25,26
 1034 1126 1034 1126 1004 1196 c 128,-1,27
 974 1266 974 1266 921.5 1318.5 c 128,-1,28
 869 1371 869 1371 799 1401 c 128,-1,29
 729 1431 729 1431 650 1431 c 0,30,31
 570 1431 570 1431 500.5 1401 c 128,-1,32
 431 1371 431 1371 378.5 1318.5 c 128,-1,33
 326 1266 326 1266 296 1196 c 128,-1,34
 266 1126 266 1126 266 1047 c 0,35,36
 266 969 266 969 296.5 899.5 c 128,-1,37
 327 830 327 830 379 777.5 c 128,-1,38
 431 725 431 725 501 694 c 128,-1,39
 571 663 571 663 650 663 c 0,20,21
574 1017 m 1,40,-1
 574 800 l 1,41,-1
 500 800 l 1,42,-1
 500 1222 l 1,43,-1
 488 1292 l 1,44,45
 499 1294 499 1294 515.5 1295.5 c 128,-1,46
 532 1297 532 1297 550 1298 c 128,-1,47
 568 1299 568 1299 586 1299.5 c 128,-1,48
 604 1300 604 1300 619 1300 c 0,49,50
 709 1300 709 1300 754.5 1270 c 128,-1,51
 800 1240 800 1240 800 1168 c 0,52,53
 800 1131 800 1131 791.5 1106 c 128,-1,54
 783 1081 783 1081 765.5 1065 c 128,-1,55
 748 1049 748 1049 722 1039.5 c 128,-1,56
 696 1030 696 1030 662 1024 c 1,57,-1
 712 1009 l 1,58,-1
 869 800 l 1,59,-1
 790 800 l 1,60,-1
 633 1010 l 2,61,62
 630 1015 630 1015 625 1016 c 128,-1,63
 620 1017 620 1017 617 1017 c 2,64,-1
 574 1017 l 1,40,-1
574 1171 m 1,65,-1
 574 1070 l 1,66,-1
 627 1070 l 2,67,68
 690 1070 690 1070 712 1093.5 c 128,-1,69
 734 1117 734 1117 734 1162 c 0,70,71
 734 1192 734 1192 725.5 1210 c 128,-1,72
 717 1228 717 1228 702.5 1237.5 c 128,-1,73
 688 1247 688 1247 669 1249.5 c 128,-1,74
 650 1252 650 1252 628 1252 c 0,75,76
 613 1252 613 1252 596 1251 c 128,-1,77
 579 1250 579 1250 567 1248 c 1,78,-1
 574 1171 l 1,65,-1
EndSplineSet
EndChar

StartChar: macron
Encoding: 175 175 108
Width: 1300
Flags: W
LayerCount: 2
Fore
SplineSet
300 1500 m 1,0,-1
 1000 1500 l 1,1,-1
 1000 1350 l 1,2,-1
 300 1350 l 1,3,-1
 300 1500 l 1,0,-1
EndSplineSet
EndChar

StartChar: degree
Encoding: 176 176 109
Width: 1300
Flags: W
LayerCount: 2
Fore
SplineSet
500 1517 m 256,0,1
 556 1517 556 1517 605 1496 c 128,-1,2
 654 1475 654 1475 690.5 1438 c 128,-1,3
 727 1401 727 1401 748 1352 c 128,-1,4
 769 1303 769 1303 769 1247 c 256,5,6
 769 1191 769 1191 748 1142 c 128,-1,7
 727 1093 727 1093 690.5 1056.5 c 128,-1,8
 654 1020 654 1020 605 998.5 c 128,-1,9
 556 977 556 977 500 977 c 256,10,11
 444 977 444 977 395 998.5 c 128,-1,12
 346 1020 346 1020 309.5 1056.5 c 128,-1,13
 273 1093 273 1093 252 1142 c 128,-1,14
 231 1191 231 1191 231 1247 c 256,15,16
 231 1303 231 1303 252 1352 c 128,-1,17
 273 1401 273 1401 309.5 1438 c 128,-1,18
 346 1475 346 1475 395 1496 c 128,-1,19
 444 1517 444 1517 500 1517 c 256,0,1
500 1088 m 256,20,21
 533 1088 533 1088 562 1100.5 c 128,-1,22
 591 1113 591 1113 612.5 1134.5 c 128,-1,23
 634 1156 634 1156 646.5 1185 c 128,-1,24
 659 1214 659 1214 659 1247 c 256,25,26
 659 1280 659 1280 646.5 1309 c 128,-1,27
 634 1338 634 1338 612.5 1359.5 c 128,-1,28
 591 1381 591 1381 562 1393.5 c 128,-1,29
 533 1406 533 1406 500 1406 c 256,30,31
 467 1406 467 1406 438 1393.5 c 128,-1,32
 409 1381 409 1381 387.5 1359.5 c 128,-1,33
 366 1338 366 1338 353.5 1309 c 128,-1,34
 341 1280 341 1280 341 1247 c 256,35,36
 341 1214 341 1214 353.5 1185 c 128,-1,37
 366 1156 366 1156 387.5 1134.5 c 128,-1,38
 409 1113 409 1113 438 1100.5 c 128,-1,39
 467 1088 467 1088 500 1088 c 256,20,21
EndSplineSet
EndChar

StartChar: plusminus
Encoding: 177 177 110
Width: 1300
Flags: W
LayerCount: 2
Fore
SplineSet
200 862 m 1,0,-1
 573 862 l 1,1,-1
 573 1199 l 1,2,-1
 728 1199 l 1,3,-1
 728 862 l 1,4,-1
 1100 862 l 1,5,-1
 1100 738 l 1,6,-1
 728 738 l 1,7,-1
 728 400 l 1,8,-1
 573 400 l 1,9,-1
 573 738 l 1,10,-1
 200 738 l 1,11,-1
 200 862 l 1,0,-1
200 290 m 1,12,-1
 1100 290 l 1,13,-1
 1100 150 l 1,14,-1
 200 150 l 1,15,-1
 200 290 l 1,12,-1
EndSplineSet
EndChar

StartChar: acute
Encoding: 180 180 111
Width: 1300
Flags: W
LayerCount: 2
Fore
SplineSet
600 1500 m 1,0,-1
 830 1520 l 1,1,-1
 590 1200 l 1,2,-1
 440 1200 l 1,3,-1
 600 1500 l 1,0,-1
EndSplineSet
EndChar

StartChar: mu
Encoding: 181 181 112
Width: 1300
Flags: W
LayerCount: 2
Fore
SplineSet
1242 36 m 1,0,1
 1233 27 1233 27 1214 18 c 128,-1,2
 1195 9 1195 9 1171 1 c 128,-1,3
 1147 -7 1147 -7 1120 -12 c 128,-1,4
 1093 -17 1093 -17 1068 -17 c 0,5,6
 976 -17 976 -17 912 26 c 128,-1,7
 848 69 848 69 825 155 c 1,8,-1
 800 86 l 1,9,10
 758 40 758 40 686.5 11.5 c 128,-1,11
 615 -17 615 -17 518 -17 c 0,12,13
 499 -17 499 -17 474 -15.5 c 128,-1,14
 449 -14 449 -14 423 -9.5 c 128,-1,15
 397 -5 397 -5 373.5 3.5 c 128,-1,16
 350 12 350 12 335 25 c 1,17,-1
 380 -166 l 1,18,-1
 380 -500 l 1,19,-1
 200 -500 l 1,20,-1
 200 1100 l 1,21,-1
 380 1118 l 1,22,-1
 380 348 l 2,23,24
 380 307 380 307 391 268.5 c 128,-1,25
 402 230 402 230 425.5 200 c 128,-1,26
 449 170 449 170 484.5 151.5 c 128,-1,27
 520 133 520 133 569 133 c 0,28,29
 601 133 601 133 632 142.5 c 128,-1,30
 663 152 663 152 692 167 c 128,-1,31
 721 182 721 182 748 201.5 c 128,-1,32
 775 221 775 221 800 241 c 1,33,-1
 800 1100 l 1,34,-1
 978 1118 l 1,35,-1
 978 352 l 2,36,37
 978 292 978 292 985.5 250 c 128,-1,38
 993 208 993 208 1006.5 182 c 128,-1,39
 1020 156 1020 156 1040 144.5 c 128,-1,40
 1060 133 1060 133 1086 133 c 0,41,42
 1110 133 1110 133 1133 137.5 c 128,-1,43
 1156 142 1156 142 1177 150 c 1,44,-1
 1242 36 l 1,0,1
EndSplineSet
EndChar

StartChar: paragraph
Encoding: 182 182 113
Width: 1300
Flags: W
LayerCount: 2
Fore
SplineSet
630 647 m 1,0,1
 556 651 556 651 503 666 c 128,-1,2
 450 681 450 681 407 702 c 0,3,4
 335 737 335 737 292 783.5 c 128,-1,5
 249 830 249 830 225.5 883.5 c 128,-1,6
 202 937 202 937 194.5 995.5 c 128,-1,7
 187 1054 187 1054 187 1112 c 0,8,9
 187 1217 187 1217 229 1289 c 128,-1,10
 271 1361 271 1361 336.5 1406.5 c 128,-1,11
 402 1452 402 1452 480 1474 c 128,-1,12
 558 1496 558 1496 630 1500 c 1,13,-1
 1102 1500 l 1,14,-1
 1102 -400 l 1,15,-1
 933 -400 l 1,16,-1
 933 1348 l 1,17,-1
 799 1348 l 1,18,-1
 799 -400 l 1,19,-1
 630 -400 l 1,20,-1
 630 647 l 1,0,1
EndSplineSet
EndChar

StartChar: periodcentered
Encoding: 183 183 114
Width: 1300
Flags: W
LayerCount: 2
Fore
SplineSet
136 650 m 256,0,1
 136 684 136 684 149 714 c 128,-1,2
 162 744 162 744 184.5 766.5 c 128,-1,3
 207 789 207 789 236.5 802 c 128,-1,4
 266 815 266 815 300 815 c 256,5,6
 334 815 334 815 364 802 c 128,-1,7
 394 789 394 789 416.5 766.5 c 128,-1,8
 439 744 439 744 452 714 c 128,-1,9
 465 684 465 684 465 650 c 256,10,11
 465 616 465 616 452 585.5 c 128,-1,12
 439 555 439 555 417 532.5 c 128,-1,13
 395 510 395 510 365.5 496.5 c 128,-1,14
 336 483 336 483 302 483 c 256,15,16
 268 483 268 483 237.5 496.5 c 128,-1,17
 207 510 207 510 184.5 532.5 c 128,-1,18
 162 555 162 555 149 585.5 c 128,-1,19
 136 616 136 616 136 650 c 256,0,1
EndSplineSet
EndChar

StartChar: cedilla
Encoding: 184 184 115
Width: 1300
Flags: W
LayerCount: 2
Fore
SplineSet
824 0 m 1,0,1
 847 -27 847 -27 865 -59 c 0,2,3
 881 -86 881 -86 894 -122 c 128,-1,4
 907 -158 907 -158 907 -198 c 0,5,6
 907 -242 907 -242 888.5 -280 c 128,-1,7
 870 -318 870 -318 839 -346.5 c 128,-1,8
 808 -375 808 -375 767.5 -391 c 128,-1,9
 727 -407 727 -407 683 -407 c 0,10,11
 633 -407 633 -407 586.5 -393.5 c 128,-1,12
 540 -380 540 -380 503 -363 c 0,13,14
 460 -344 460 -344 422 -318 c 1,15,-1
 493 -218 l 1,16,17
 519 -236 519 -236 547 -249 c 0,18,19
 571 -260 571 -260 600.5 -269.5 c 128,-1,20
 630 -279 630 -279 659 -279 c 0,21,22
 696 -279 696 -279 725 -255 c 128,-1,23
 754 -231 754 -231 754 -189 c 0,24,25
 754 -156 754 -156 737.5 -122.5 c 128,-1,26
 721 -89 721 -89 701 -62 c 0,27,28
 677 -30 677 -30 648 0 c 1,29,-1
 824 0 l 1,0,1
EndSplineSet
EndChar

StartChar: ordmasculine
Encoding: 186 186 116
Width: 1300
Flags: W
LayerCount: 2
Fore
SplineSet
230 800 m 1,0,-1
 630 800 l 1,1,-1
 630 700 l 1,2,-1
 230 700 l 1,3,-1
 230 800 l 1,0,-1
424 950 m 0,4,5
 369 950 369 950 322.5 972 c 128,-1,6
 276 994 276 994 242.5 1032 c 128,-1,7
 209 1070 209 1070 190.5 1122 c 128,-1,8
 172 1174 172 1174 172 1235 c 256,9,10
 172 1296 172 1296 190 1347.5 c 128,-1,11
 208 1399 208 1399 241 1437 c 128,-1,12
 274 1475 274 1475 320.5 1496 c 128,-1,13
 367 1517 367 1517 424 1517 c 0,14,15
 480 1517 480 1517 525.5 1496 c 128,-1,16
 571 1475 571 1475 603.5 1437 c 128,-1,17
 636 1399 636 1399 654 1347.5 c 128,-1,18
 672 1296 672 1296 672 1235 c 256,19,20
 672 1174 672 1174 655 1122 c 128,-1,21
 638 1070 638 1070 605.5 1032 c 128,-1,22
 573 994 573 994 527 972 c 128,-1,23
 481 950 481 950 424 950 c 0,4,5
577 1222 m 0,24,25
 577 1262 577 1262 568.5 1301 c 128,-1,26
 560 1340 560 1340 541.5 1371 c 128,-1,27
 523 1402 523 1402 493.5 1421 c 128,-1,28
 464 1440 464 1440 422 1440 c 0,29,30
 382 1440 382 1440 352.5 1423.5 c 128,-1,31
 323 1407 323 1407 304 1379.5 c 128,-1,32
 285 1352 285 1352 276 1317 c 128,-1,33
 267 1282 267 1282 267 1245 c 0,34,35
 267 1204 267 1204 276 1165 c 128,-1,36
 285 1126 285 1126 304.5 1095.5 c 128,-1,37
 324 1065 324 1065 354 1046.5 c 128,-1,38
 384 1028 384 1028 426 1028 c 0,39,40
 466 1028 466 1028 494.5 1044.5 c 128,-1,41
 523 1061 523 1061 541.5 1088 c 128,-1,42
 560 1115 560 1115 568.5 1150 c 128,-1,43
 577 1185 577 1185 577 1222 c 0,24,25
EndSplineSet
EndChar

StartChar: guillemotright
Encoding: 187 187 117
Width: 1300
Flags: W
LayerCount: 2
Fore
SplineSet
700 617 m 1,0,-1
 700 478 l 1,1,-1
 232 66 l 1,2,-1
 178 201 l 1,3,-1
 506 490 l 1,4,-1
 643 550 l 1,5,-1
 505 610 l 1,6,-1
 180 901 l 1,7,-1
 230 1026 l 1,8,-1
 700 617 l 1,0,-1
1200 617 m 1,9,-1
 1200 478 l 1,10,-1
 732 66 l 1,11,-1
 678 201 l 1,12,-1
 1006 490 l 1,13,-1
 1143 550 l 1,14,-1
 1005 610 l 1,15,-1
 680 901 l 1,16,-1
 730 1026 l 1,17,-1
 1200 617 l 1,9,-1
EndSplineSet
EndChar

StartChar: questiondown
Encoding: 191 191 118
Width: 1300
Flags: W
LayerCount: 2
Fore
SplineSet
207 -44 m 0,0,1
 207 19 207 19 224 69 c 128,-1,2
 241 119 241 119 268.5 160 c 128,-1,3
 296 201 296 201 331.5 236 c 128,-1,4
 367 271 367 271 404.5 304.5 c 128,-1,5
 442 338 442 338 477.5 373 c 128,-1,6
 513 408 513 408 540.5 448.5 c 128,-1,7
 568 489 568 489 585 538.5 c 128,-1,8
 602 588 602 588 602 650 c 1,9,-1
 812 671 l 1,10,11
 812 582 812 582 795 514 c 128,-1,12
 778 446 778 446 750.5 393.5 c 128,-1,13
 723 341 723 341 687.5 300.5 c 128,-1,14
 652 260 652 260 614.5 226.5 c 128,-1,15
 577 193 577 193 541.5 163 c 128,-1,16
 506 133 506 133 478.5 101 c 128,-1,17
 451 69 451 69 434 32 c 128,-1,18
 417 -5 417 -5 417 -52 c 0,19,20
 417 -104 417 -104 437 -142 c 128,-1,21
 457 -180 457 -180 491.5 -204 c 128,-1,22
 526 -228 526 -228 572.5 -239.5 c 128,-1,23
 619 -251 619 -251 672 -251 c 0,24,25
 710 -251 710 -251 750.5 -240 c 128,-1,26
 791 -229 791 -229 829.5 -208 c 128,-1,27
 868 -187 868 -187 903.5 -157 c 128,-1,28
 939 -127 939 -127 967 -90 c 1,29,-1
 1100 -200 l 1,30,31
 1051 -266 1051 -266 993.5 -308.5 c 128,-1,32
 936 -351 936 -351 876.5 -375 c 128,-1,33
 817 -399 817 -399 758.5 -408 c 128,-1,34
 700 -417 700 -417 647 -417 c 0,35,36
 562 -417 562 -417 483 -394.5 c 128,-1,37
 404 -372 404 -372 342.5 -326.5 c 128,-1,38
 281 -281 281 -281 244 -210.5 c 128,-1,39
 207 -140 207 -140 207 -44 c 0,0,1
829 994 m 256,40,41
 829 969 829 969 819.5 947 c 128,-1,42
 810 925 810 925 793.5 908.5 c 128,-1,43
 777 892 777 892 755 882.5 c 128,-1,44
 733 873 733 873 708 873 c 256,45,46
 683 873 683 873 661 882.5 c 128,-1,47
 639 892 639 892 622.5 908.5 c 128,-1,48
 606 925 606 925 596.5 947 c 128,-1,49
 587 969 587 969 587 994 c 256,50,51
 587 1019 587 1019 596.5 1041.5 c 128,-1,52
 606 1064 606 1064 622 1080.5 c 128,-1,53
 638 1097 638 1097 660 1107 c 128,-1,54
 682 1117 682 1117 707 1117 c 0,55,56
 733 1117 733 1117 755 1107 c 128,-1,57
 777 1097 777 1097 793.5 1080.5 c 128,-1,58
 810 1064 810 1064 819.5 1041.5 c 128,-1,59
 829 1019 829 1019 829 994 c 256,40,41
EndSplineSet
EndChar

StartChar: Agrave
Encoding: 192 192 119
Width: 1300
Flags: W
LayerCount: 2
Fore
SplineSet
32 0 m 1,0,-1
 504 1300 l 1,1,-1
 539 1500 l 1,2,-1
 717 1520 l 1,3,-1
 1265 0 l 1,4,-1
 1065 0 l 1,5,-1
 917 450 l 1,6,-1
 382 450 l 1,7,-1
 216 0 l 1,8,-1
 32 0 l 1,0,-1
645 1400 m 1,9,-1
 600 1080 l 1,10,-1
 431 600 l 1,11,-1
 868 600 l 1,12,-1
 690 1080 l 1,13,-1
 645 1400 l 1,9,-1
716 1600 m 1,14,-1
 566 1600 l 1,15,-1
 341 1900 l 1,16,-1
 545 1920 l 1,17,-1
 716 1600 l 1,14,-1
EndSplineSet
EndChar

StartChar: Aacute
Encoding: 193 193 120
Width: 1300
Flags: W
LayerCount: 2
Fore
SplineSet
32 0 m 1,0,-1
 504 1300 l 1,1,-1
 539 1500 l 1,2,-1
 717 1520 l 1,3,-1
 1265 0 l 1,4,-1
 1065 0 l 1,5,-1
 917 450 l 1,6,-1
 382 450 l 1,7,-1
 216 0 l 1,8,-1
 32 0 l 1,0,-1
645 1400 m 1,9,-1
 600 1080 l 1,10,-1
 431 600 l 1,11,-1
 868 600 l 1,12,-1
 690 1080 l 1,13,-1
 645 1400 l 1,9,-1
700 1900 m 1,14,-1
 930 1920 l 1,15,-1
 690 1600 l 1,16,-1
 540 1600 l 1,17,-1
 700 1900 l 1,14,-1
EndSplineSet
EndChar

StartChar: Acircumflex
Encoding: 194 194 121
Width: 1300
Flags: W
LayerCount: 2
Fore
SplineSet
32 0 m 1,0,-1
 504 1300 l 1,1,-1
 539 1500 l 1,2,-1
 717 1520 l 1,3,-1
 1265 0 l 1,4,-1
 1065 0 l 1,5,-1
 917 450 l 1,6,-1
 382 450 l 1,7,-1
 216 0 l 1,8,-1
 32 0 l 1,0,-1
645 1400 m 1,9,-1
 600 1080 l 1,10,-1
 431 600 l 1,11,-1
 868 600 l 1,12,-1
 690 1080 l 1,13,-1
 645 1400 l 1,9,-1
920 1620 m 1,14,-1
 770 1620 l 1,15,-1
 670 1772 l 1,16,-1
 640 1860 l 1,17,-1
 610 1773 l 1,18,-1
 509 1620 l 1,19,-1
 359 1620 l 1,20,-1
 535 1900 l 1,21,-1
 735 1920 l 1,22,-1
 920 1620 l 1,14,-1
EndSplineSet
EndChar

StartChar: Atilde
Encoding: 195 195 122
Width: 1300
Flags: W
LayerCount: 2
Fore
SplineSet
32 0 m 1,0,-1
 504 1300 l 1,1,-1
 539 1500 l 1,2,-1
 717 1520 l 1,3,-1
 1265 0 l 1,4,-1
 1065 0 l 1,5,-1
 917 450 l 1,6,-1
 382 450 l 1,7,-1
 216 0 l 1,8,-1
 32 0 l 1,0,-1
645 1400 m 1,9,-1
 600 1080 l 1,10,-1
 431 600 l 1,11,-1
 868 600 l 1,12,-1
 690 1080 l 1,13,-1
 645 1400 l 1,9,-1
324 1655 m 1,14,15
 328 1695 328 1695 343.5 1733 c 128,-1,16
 359 1771 359 1771 383.5 1800 c 128,-1,17
 408 1829 408 1829 439 1846.5 c 128,-1,18
 470 1864 470 1864 506 1864 c 0,19,20
 545 1864 545 1864 579 1850 c 128,-1,21
 613 1836 613 1836 644 1819 c 128,-1,22
 675 1802 675 1802 705 1788 c 128,-1,23
 735 1774 735 1774 766 1774 c 0,24,25
 787 1774 787 1774 803 1784.5 c 128,-1,26
 819 1795 819 1795 830 1810.5 c 128,-1,27
 841 1826 841 1826 848 1845 c 128,-1,28
 855 1864 855 1864 858 1882 c 1,29,-1
 954 1878 l 1,30,31
 951 1834 951 1834 934.5 1793 c 128,-1,32
 918 1752 918 1752 892.5 1720.5 c 128,-1,33
 867 1689 867 1689 832.5 1670 c 128,-1,34
 798 1651 798 1651 759 1651 c 0,35,36
 727 1651 727 1651 696 1665 c 128,-1,37
 665 1679 665 1679 633 1695.5 c 128,-1,38
 601 1712 601 1712 568 1726 c 128,-1,39
 535 1740 535 1740 500 1740 c 0,40,41
 482 1740 482 1740 467.5 1732 c 128,-1,42
 453 1724 453 1724 441.5 1711 c 128,-1,43
 430 1698 430 1698 422 1682.5 c 128,-1,44
 414 1667 414 1667 410 1652 c 1,45,-1
 324 1655 l 1,14,15
EndSplineSet
EndChar

StartChar: Adieresis
Encoding: 196 196 123
Width: 1300
Flags: W
LayerCount: 2
Fore
SplineSet
32 0 m 1,0,-1
 504 1300 l 1,1,-1
 539 1500 l 1,2,-1
 717 1520 l 1,3,-1
 1265 0 l 1,4,-1
 1065 0 l 1,5,-1
 917 450 l 1,6,-1
 382 450 l 1,7,-1
 216 0 l 1,8,-1
 32 0 l 1,0,-1
645 1400 m 1,9,-1
 600 1080 l 1,10,-1
 431 600 l 1,11,-1
 868 600 l 1,12,-1
 690 1080 l 1,13,-1
 645 1400 l 1,9,-1
339 1800 m 1,14,-1
 539 1800 l 1,15,-1
 539 1600 l 1,16,-1
 339 1600 l 1,17,-1
 339 1800 l 1,14,-1
739 1800 m 1,18,-1
 939 1800 l 1,19,-1
 939 1600 l 1,20,-1
 739 1600 l 1,21,-1
 739 1800 l 1,18,-1
EndSplineSet
EndChar

StartChar: Aring
Encoding: 197 197 124
Width: 1300
Flags: W
LayerCount: 2
Fore
SplineSet
640 1879 m 256,0,1
 689 1879 689 1879 732 1860.5 c 128,-1,2
 775 1842 775 1842 807.5 1809.5 c 128,-1,3
 840 1777 840 1777 858.5 1734 c 128,-1,4
 877 1691 877 1691 877 1642 c 256,5,6
 877 1593 877 1593 858.5 1549 c 128,-1,7
 840 1505 840 1505 808 1472 c 0,8,9
 783 1445 783 1445 750 1428 c 1,10,-1
 1265 0 l 1,11,-1
 1065 0 l 1,12,-1
 917 450 l 1,13,-1
 382 450 l 1,14,-1
 216 0 l 1,15,-1
 32 0 l 1,16,-1
 504 1300 l 1,17,-1
 527 1431 l 1,18,19
 497 1448 497 1448 473 1472 c 0,20,21
 440 1505 440 1505 421 1549 c 128,-1,22
 402 1593 402 1593 402 1642 c 256,23,24
 402 1691 402 1691 421 1734 c 128,-1,25
 440 1777 440 1777 472 1809.5 c 128,-1,26
 504 1842 504 1842 547.5 1860.5 c 128,-1,27
 591 1879 591 1879 640 1879 c 256,0,1
645 1400 m 1,28,-1
 600 1080 l 1,29,-1
 431 600 l 1,30,-1
 868 600 l 1,31,-1
 690 1080 l 1,32,-1
 645 1400 l 1,28,-1
641 1518 m 256,33,34
 666 1518 666 1518 688 1528 c 128,-1,35
 710 1538 710 1538 726 1554.5 c 128,-1,36
 742 1571 742 1571 751.5 1593.5 c 128,-1,37
 761 1616 761 1616 761 1641 c 256,38,39
 761 1666 761 1666 751.5 1688 c 128,-1,40
 742 1710 742 1710 725.5 1726.5 c 128,-1,41
 709 1743 709 1743 687 1752.5 c 128,-1,42
 665 1762 665 1762 640 1762 c 256,43,44
 615 1762 615 1762 593 1752.5 c 128,-1,45
 571 1743 571 1743 554.5 1726.5 c 128,-1,46
 538 1710 538 1710 528.5 1688 c 128,-1,47
 519 1666 519 1666 519 1641 c 256,48,49
 519 1616 519 1616 528.5 1593.5 c 128,-1,50
 538 1571 538 1571 554.5 1554.5 c 128,-1,51
 571 1538 571 1538 593.5 1528 c 128,-1,52
 616 1518 616 1518 641 1518 c 256,33,34
EndSplineSet
EndChar

StartChar: AE
Encoding: 198 198 125
Width: 1300
Flags: W
LayerCount: 2
Fore
SplineSet
1335 160 m 1,0,-1
 1315 0 l 1,1,-1
 679 0 l 1,2,-1
 695 200 l 1,3,-1
 695 450 l 1,4,-1
 400 450 l 1,5,-1
 246 0 l 1,6,-1
 29 0 l 1,7,-1
 479 1300 l 1,8,-1
 523 1500 l 1,9,-1
 1300 1500 l 1,10,-1
 1300 1340 l 1,11,-1
 882 1340 l 1,12,-1
 904 1149 l 1,13,-1
 904 885 l 1,14,-1
 1229 885 l 1,15,-1
 1229 740 l 1,16,-1
 904 740 l 1,17,-1
 904 340 l 1,18,-1
 894 160 l 1,19,-1
 1335 160 l 1,0,-1
695 599 m 1,20,-1
 695 1106 l 1,21,-1
 654 1340 l 1,22,-1
 601 1099 l 1,23,-1
 441 599 l 1,24,-1
 695 599 l 1,20,-1
EndSplineSet
EndChar

StartChar: Ccedilla
Encoding: 199 199 126
Width: 1300
Flags: W
LayerCount: 2
Fore
SplineSet
1137 104 m 1,0,1
 1096 71 1096 71 1054 48 c 128,-1,2
 1012 25 1012 25 966 10.5 c 128,-1,3
 920 -4 920 -4 869 -10 c 0,4,5
 850 -13 850 -13 829 -14 c 1,6,7
 846 -35 846 -35 859 -59 c 0,8,9
 875 -86 875 -86 888 -122 c 128,-1,10
 901 -158 901 -158 901 -198 c 0,11,12
 901 -242 901 -242 882.5 -280 c 128,-1,13
 864 -318 864 -318 833 -346.5 c 128,-1,14
 802 -375 802 -375 761.5 -391 c 128,-1,15
 721 -407 721 -407 677 -407 c 0,16,17
 627 -407 627 -407 580.5 -393.5 c 128,-1,18
 534 -380 534 -380 497 -363 c 0,19,20
 454 -344 454 -344 416 -318 c 1,21,-1
 487 -218 l 1,22,23
 513 -236 513 -236 541 -249 c 0,24,25
 565 -260 565 -260 594.5 -269.5 c 128,-1,26
 624 -279 624 -279 653 -279 c 0,27,28
 690 -279 690 -279 719 -255 c 128,-1,29
 748 -231 748 -231 748 -189 c 0,30,31
 748 -156 748 -156 731.5 -122.5 c 128,-1,32
 715 -89 715 -89 695 -62 c 0,33,34
 674 -34 674 -34 649 -7 c 1,35,36
 611 0 611 0 576 11 c 0,37,38
 489 40 489 40 414.5 91.5 c 128,-1,39
 340 143 340 143 280 215 c 128,-1,40
 220 287 220 287 178 374.5 c 128,-1,41
 136 462 136 462 113 562 c 128,-1,42
 90 662 90 662 90 770 c 0,43,44
 90 921 90 921 133 1056.5 c 128,-1,45
 176 1192 176 1192 261 1294.5 c 128,-1,46
 346 1397 346 1397 471.5 1457 c 128,-1,47
 597 1517 597 1517 762 1517 c 0,48,49
 877 1517 877 1517 969.5 1480.5 c 128,-1,50
 1062 1444 1062 1444 1134 1375 c 1,51,-1
 1044 1268 l 1,52,53
 1020 1284 1020 1284 993 1298.5 c 128,-1,54
 966 1313 966 1313 933.5 1324 c 128,-1,55
 901 1335 901 1335 862.5 1341.5 c 128,-1,56
 824 1348 824 1348 778 1348 c 0,57,58
 656 1348 656 1348 565.5 1302 c 128,-1,59
 475 1256 475 1256 415 1177.5 c 128,-1,60
 355 1099 355 1099 325.5 994.5 c 128,-1,61
 296 890 296 890 296 773 c 0,62,63
 296 700 296 700 311 626 c 128,-1,64
 326 552 326 552 354.5 483 c 128,-1,65
 383 414 383 414 425 354 c 128,-1,66
 467 294 467 294 521.5 249 c 128,-1,67
 576 204 576 204 642 178.5 c 128,-1,68
 708 153 708 153 785 153 c 0,69,70
 830 153 830 153 864 157 c 128,-1,71
 898 161 898 161 928.5 170 c 128,-1,72
 959 179 959 179 990 193.5 c 128,-1,73
 1021 208 1021 208 1060 230 c 1,74,-1
 1137 104 l 1,0,1
EndSplineSet
EndChar

StartChar: Egrave
Encoding: 200 200 127
Width: 1300
Flags: W
LayerCount: 2
Fore
SplineSet
1135 160 m 1,0,-1
 1115 0 l 1,1,-1
 195 0 l 1,2,-1
 210 200 l 1,3,-1
 210 1290 l 1,4,-1
 180 1500 l 1,5,-1
 1100 1500 l 1,6,-1
 1100 1340 l 1,7,-1
 375 1340 l 1,8,-1
 395 1150 l 1,9,-1
 395 885 l 1,10,-1
 1030 885 l 1,11,-1
 1030 740 l 1,12,-1
 395 740 l 1,13,-1
 395 340 l 1,14,-1
 385 160 l 1,15,-1
 1135 160 l 1,0,-1
760 1600 m 1,16,-1
 610 1600 l 1,17,-1
 385 1900 l 1,18,-1
 589 1920 l 1,19,-1
 760 1600 l 1,16,-1
EndSplineSet
EndChar

StartChar: Eacute
Encoding: 201 201 128
Width: 1300
Flags: W
LayerCount: 2
Fore
SplineSet
1135 160 m 1,0,-1
 1115 0 l 1,1,-1
 195 0 l 1,2,-1
 210 200 l 1,3,-1
 210 1290 l 1,4,-1
 180 1500 l 1,5,-1
 1100 1500 l 1,6,-1
 1100 1340 l 1,7,-1
 375 1340 l 1,8,-1
 395 1150 l 1,9,-1
 395 885 l 1,10,-1
 1030 885 l 1,11,-1
 1030 740 l 1,12,-1
 395 740 l 1,13,-1
 395 340 l 1,14,-1
 385 160 l 1,15,-1
 1135 160 l 1,0,-1
650 1900 m 1,16,-1
 880 1920 l 1,17,-1
 640 1600 l 1,18,-1
 490 1600 l 1,19,-1
 650 1900 l 1,16,-1
EndSplineSet
EndChar

StartChar: Ecircumflex
Encoding: 202 202 129
Width: 1300
Flags: W
LayerCount: 2
Fore
SplineSet
1135 160 m 1,0,-1
 1115 0 l 1,1,-1
 195 0 l 1,2,-1
 210 200 l 1,3,-1
 210 1290 l 1,4,-1
 180 1500 l 1,5,-1
 1100 1500 l 1,6,-1
 1100 1340 l 1,7,-1
 375 1340 l 1,8,-1
 395 1150 l 1,9,-1
 395 885 l 1,10,-1
 1030 885 l 1,11,-1
 1030 740 l 1,12,-1
 395 740 l 1,13,-1
 395 340 l 1,14,-1
 385 160 l 1,15,-1
 1135 160 l 1,0,-1
930 1620 m 1,16,-1
 780 1620 l 1,17,-1
 680 1772 l 1,18,-1
 650 1860 l 1,19,-1
 620 1773 l 1,20,-1
 519 1620 l 1,21,-1
 369 1620 l 1,22,-1
 545 1900 l 1,23,-1
 745 1920 l 1,24,-1
 930 1620 l 1,16,-1
EndSplineSet
EndChar

StartChar: Edieresis
Encoding: 203 203 130
Width: 1300
Flags: W
LayerCount: 2
Fore
SplineSet
1135 160 m 1,0,-1
 1115 0 l 1,1,-1
 195 0 l 1,2,-1
 210 200 l 1,3,-1
 210 1290 l 1,4,-1
 180 1500 l 1,5,-1
 1100 1500 l 1,6,-1
 1100 1340 l 1,7,-1
 375 1340 l 1,8,-1
 395 1150 l 1,9,-1
 395 885 l 1,10,-1
 1030 885 l 1,11,-1
 1030 740 l 1,12,-1
 395 740 l 1,13,-1
 395 340 l 1,14,-1
 385 160 l 1,15,-1
 1135 160 l 1,0,-1
350 1800 m 1,16,-1
 550 1800 l 1,17,-1
 550 1600 l 1,18,-1
 350 1600 l 1,19,-1
 350 1800 l 1,16,-1
750 1800 m 1,20,-1
 950 1800 l 1,21,-1
 950 1600 l 1,22,-1
 750 1600 l 1,23,-1
 750 1800 l 1,20,-1
EndSplineSet
EndChar

StartChar: Igrave
Encoding: 204 204 131
Width: 1300
Flags: W
LayerCount: 2
Fore
SplineSet
206 1500 m 1,0,-1
 1106 1500 l 1,1,-1
 1106 1340 l 1,2,-1
 748 1340 l 1,3,-1
 748 160 l 1,4,-1
 1126 160 l 1,5,-1
 1106 0 l 1,6,-1
 206 0 l 1,7,-1
 206 160 l 1,8,-1
 562 160 l 1,9,-1
 562 1340 l 1,10,-1
 186 1340 l 1,11,-1
 206 1500 l 1,0,-1
738 1600 m 1,12,-1
 588 1600 l 1,13,-1
 363 1900 l 1,14,-1
 567 1920 l 1,15,-1
 738 1600 l 1,12,-1
EndSplineSet
EndChar

StartChar: Iacute
Encoding: 205 205 132
Width: 1300
Flags: W
LayerCount: 2
Fore
SplineSet
206 1500 m 1,0,-1
 1106 1500 l 1,1,-1
 1106 1340 l 1,2,-1
 748 1340 l 1,3,-1
 748 160 l 1,4,-1
 1126 160 l 1,5,-1
 1106 0 l 1,6,-1
 206 0 l 1,7,-1
 206 160 l 1,8,-1
 562 160 l 1,9,-1
 562 1340 l 1,10,-1
 186 1340 l 1,11,-1
 206 1500 l 1,0,-1
615 1900 m 1,12,-1
 845 1920 l 1,13,-1
 605 1600 l 1,14,-1
 455 1600 l 1,15,-1
 615 1900 l 1,12,-1
EndSplineSet
EndChar

StartChar: Icircumflex
Encoding: 206 206 133
Width: 1300
Flags: W
LayerCount: 2
Fore
SplineSet
206 1500 m 1,0,-1
 1106 1500 l 1,1,-1
 1106 1340 l 1,2,-1
 748 1340 l 1,3,-1
 748 160 l 1,4,-1
 1126 160 l 1,5,-1
 1106 0 l 1,6,-1
 206 0 l 1,7,-1
 206 160 l 1,8,-1
 562 160 l 1,9,-1
 562 1340 l 1,10,-1
 186 1340 l 1,11,-1
 206 1500 l 1,0,-1
941 1624 m 1,12,-1
 791 1624 l 1,13,-1
 691 1776 l 1,14,-1
 661 1864 l 1,15,-1
 631 1777 l 1,16,-1
 530 1624 l 1,17,-1
 380 1624 l 1,18,-1
 556 1904 l 1,19,-1
 756 1924 l 1,20,-1
 941 1624 l 1,12,-1
EndSplineSet
EndChar

StartChar: Idieresis
Encoding: 207 207 134
Width: 1300
Flags: W
LayerCount: 2
Fore
SplineSet
206 1500 m 1,0,-1
 1106 1500 l 1,1,-1
 1106 1340 l 1,2,-1
 748 1340 l 1,3,-1
 748 160 l 1,4,-1
 1126 160 l 1,5,-1
 1106 0 l 1,6,-1
 206 0 l 1,7,-1
 206 160 l 1,8,-1
 562 160 l 1,9,-1
 562 1340 l 1,10,-1
 186 1340 l 1,11,-1
 206 1500 l 1,0,-1
357 1900 m 1,12,-1
 557 1900 l 1,13,-1
 557 1700 l 1,14,-1
 357 1700 l 1,15,-1
 357 1900 l 1,12,-1
757 1900 m 1,16,-1
 957 1900 l 1,17,-1
 957 1700 l 1,18,-1
 757 1700 l 1,19,-1
 757 1900 l 1,16,-1
EndSplineSet
EndChar

StartChar: Ntilde
Encoding: 209 209 135
Width: 1300
Flags: W
LayerCount: 2
Fore
SplineSet
945 0 m 1,0,-1
 450 948 l 1,1,-1
 291 1361 l 1,2,-1
 285 1360 l 1,3,-1
 350 920 l 1,4,-1
 350 0 l 1,5,-1
 170 0 l 1,6,-1
 170 1290 l 1,7,-1
 140 1500 l 1,8,-1
 341 1520 l 1,9,-1
 837 557 l 1,10,-1
 1003 140 l 1,11,-1
 1009 141 l 1,12,-1
 930 580 l 1,13,-1
 930 1500 l 1,14,-1
 1110 1520 l 1,15,-1
 1110 0 l 1,16,-1
 945 0 l 1,0,-1
387 1655 m 1,17,18
 391 1695 391 1695 406.5 1733 c 128,-1,19
 422 1771 422 1771 446.5 1800 c 128,-1,20
 471 1829 471 1829 502 1846.5 c 128,-1,21
 533 1864 533 1864 569 1864 c 0,22,23
 608 1864 608 1864 642 1850 c 128,-1,24
 676 1836 676 1836 707 1819 c 128,-1,25
 738 1802 738 1802 768 1788 c 128,-1,26
 798 1774 798 1774 829 1774 c 0,27,28
 850 1774 850 1774 866 1784.5 c 128,-1,29
 882 1795 882 1795 893 1810.5 c 128,-1,30
 904 1826 904 1826 911 1845 c 128,-1,31
 918 1864 918 1864 921 1882 c 1,32,-1
 1017 1878 l 1,33,34
 1014 1834 1014 1834 997.5 1793 c 128,-1,35
 981 1752 981 1752 955.5 1720.5 c 128,-1,36
 930 1689 930 1689 895.5 1670 c 128,-1,37
 861 1651 861 1651 822 1651 c 0,38,39
 790 1651 790 1651 759 1665 c 128,-1,40
 728 1679 728 1679 696 1695.5 c 128,-1,41
 664 1712 664 1712 631 1726 c 128,-1,42
 598 1740 598 1740 563 1740 c 0,43,44
 545 1740 545 1740 530.5 1732 c 128,-1,45
 516 1724 516 1724 504.5 1711 c 128,-1,46
 493 1698 493 1698 485 1682.5 c 128,-1,47
 477 1667 477 1667 473 1652 c 1,48,-1
 387 1655 l 1,17,18
EndSplineSet
EndChar

StartChar: Ograve
Encoding: 210 210 136
Width: 1300
Flags: W
LayerCount: 2
Fore
SplineSet
624 -17 m 0,0,1
 534 -17 534 -17 458.5 10.5 c 128,-1,2
 383 38 383 38 321.5 88.5 c 128,-1,3
 260 139 260 139 214 209 c 128,-1,4
 168 279 168 279 136.5 364.5 c 128,-1,5
 105 450 105 450 89.5 547.5 c 128,-1,6
 74 645 74 645 74 750 c 256,7,8
 74 855 74 855 89 952.5 c 128,-1,9
 104 1050 104 1050 134.5 1135.5 c 128,-1,10
 165 1221 165 1221 210.5 1291 c 128,-1,11
 256 1361 256 1361 317 1411.5 c 128,-1,12
 378 1462 378 1462 455 1489.5 c 128,-1,13
 532 1517 532 1517 624 1517 c 0,14,15
 714 1517 714 1517 789.5 1489.5 c 128,-1,16
 865 1462 865 1462 926.5 1411.5 c 128,-1,17
 988 1361 988 1361 1034 1291 c 128,-1,18
 1080 1221 1080 1221 1111.5 1135.5 c 128,-1,19
 1143 1050 1143 1050 1158.5 952.5 c 128,-1,20
 1174 855 1174 855 1174 750 c 256,21,22
 1174 645 1174 645 1159 547.5 c 128,-1,23
 1144 450 1144 450 1113.5 364.5 c 128,-1,24
 1083 279 1083 279 1037.5 209 c 128,-1,25
 992 139 992 139 931 88.5 c 128,-1,26
 870 38 870 38 793 10.5 c 128,-1,27
 716 -17 716 -17 624 -17 c 0,0,1
966 719 m 0,28,29
 966 789 966 789 961.5 862 c 128,-1,30
 957 935 957 935 943.5 1004.5 c 128,-1,31
 930 1074 930 1074 906 1135.5 c 128,-1,32
 882 1197 882 1197 843.5 1242.5 c 128,-1,33
 805 1288 805 1288 749.5 1315 c 128,-1,34
 694 1342 694 1342 618 1342 c 0,35,36
 546 1342 546 1342 493 1318 c 128,-1,37
 440 1294 440 1294 403 1252.5 c 128,-1,38
 366 1211 366 1211 342 1155.5 c 128,-1,39
 318 1100 318 1100 305 1038 c 128,-1,40
 292 976 292 976 287 911 c 128,-1,41
 282 846 282 846 282 785 c 0,42,43
 282 714 282 714 286.5 640 c 128,-1,44
 291 566 291 566 304.5 496.5 c 128,-1,45
 318 427 318 427 342 365.5 c 128,-1,46
 366 304 366 304 405 258 c 128,-1,47
 444 212 444 212 499 185 c 128,-1,48
 554 158 554 158 630 158 c 0,49,50
 701 158 701 158 753.5 182.5 c 128,-1,51
 806 207 806 207 843.5 249.5 c 128,-1,52
 881 292 881 292 905 347.5 c 128,-1,53
 929 403 929 403 942.5 465.5 c 128,-1,54
 956 528 956 528 961 593 c 128,-1,55
 966 658 966 658 966 719 c 0,28,29
760 1600 m 1,56,-1
 610 1600 l 1,57,-1
 385 1900 l 1,58,-1
 589 1920 l 1,59,-1
 760 1600 l 1,56,-1
EndSplineSet
EndChar

StartChar: Oacute
Encoding: 211 211 137
Width: 1300
Flags: W
LayerCount: 2
Fore
SplineSet
624 -17 m 0,0,1
 534 -17 534 -17 458.5 10.5 c 128,-1,2
 383 38 383 38 321.5 88.5 c 128,-1,3
 260 139 260 139 214 209 c 128,-1,4
 168 279 168 279 136.5 364.5 c 128,-1,5
 105 450 105 450 89.5 547.5 c 128,-1,6
 74 645 74 645 74 750 c 256,7,8
 74 855 74 855 89 952.5 c 128,-1,9
 104 1050 104 1050 134.5 1135.5 c 128,-1,10
 165 1221 165 1221 210.5 1291 c 128,-1,11
 256 1361 256 1361 317 1411.5 c 128,-1,12
 378 1462 378 1462 455 1489.5 c 128,-1,13
 532 1517 532 1517 624 1517 c 0,14,15
 714 1517 714 1517 789.5 1489.5 c 128,-1,16
 865 1462 865 1462 926.5 1411.5 c 128,-1,17
 988 1361 988 1361 1034 1291 c 128,-1,18
 1080 1221 1080 1221 1111.5 1135.5 c 128,-1,19
 1143 1050 1143 1050 1158.5 952.5 c 128,-1,20
 1174 855 1174 855 1174 750 c 256,21,22
 1174 645 1174 645 1159 547.5 c 128,-1,23
 1144 450 1144 450 1113.5 364.5 c 128,-1,24
 1083 279 1083 279 1037.5 209 c 128,-1,25
 992 139 992 139 931 88.5 c 128,-1,26
 870 38 870 38 793 10.5 c 128,-1,27
 716 -17 716 -17 624 -17 c 0,0,1
966 719 m 0,28,29
 966 789 966 789 961.5 862 c 128,-1,30
 957 935 957 935 943.5 1004.5 c 128,-1,31
 930 1074 930 1074 906 1135.5 c 128,-1,32
 882 1197 882 1197 843.5 1242.5 c 128,-1,33
 805 1288 805 1288 749.5 1315 c 128,-1,34
 694 1342 694 1342 618 1342 c 0,35,36
 546 1342 546 1342 493 1318 c 128,-1,37
 440 1294 440 1294 403 1252.5 c 128,-1,38
 366 1211 366 1211 342 1155.5 c 128,-1,39
 318 1100 318 1100 305 1038 c 128,-1,40
 292 976 292 976 287 911 c 128,-1,41
 282 846 282 846 282 785 c 0,42,43
 282 714 282 714 286.5 640 c 128,-1,44
 291 566 291 566 304.5 496.5 c 128,-1,45
 318 427 318 427 342 365.5 c 128,-1,46
 366 304 366 304 405 258 c 128,-1,47
 444 212 444 212 499 185 c 128,-1,48
 554 158 554 158 630 158 c 0,49,50
 701 158 701 158 753.5 182.5 c 128,-1,51
 806 207 806 207 843.5 249.5 c 128,-1,52
 881 292 881 292 905 347.5 c 128,-1,53
 929 403 929 403 942.5 465.5 c 128,-1,54
 956 528 956 528 961 593 c 128,-1,55
 966 658 966 658 966 719 c 0,28,29
600 1900 m 1,56,-1
 830 1920 l 1,57,-1
 590 1600 l 1,58,-1
 440 1600 l 1,59,-1
 600 1900 l 1,56,-1
EndSplineSet
EndChar

StartChar: Ocircumflex
Encoding: 212 212 138
Width: 1300
Flags: W
LayerCount: 2
Fore
SplineSet
623 -17 m 0,0,1
 533 -17 533 -17 457.5 10.5 c 128,-1,2
 382 38 382 38 320.5 88.5 c 128,-1,3
 259 139 259 139 213 209 c 128,-1,4
 167 279 167 279 135.5 364.5 c 128,-1,5
 104 450 104 450 88.5 547.5 c 128,-1,6
 73 645 73 645 73 750 c 256,7,8
 73 855 73 855 88 952.5 c 128,-1,9
 103 1050 103 1050 133.5 1135.5 c 128,-1,10
 164 1221 164 1221 209.5 1291 c 128,-1,11
 255 1361 255 1361 316 1411.5 c 128,-1,12
 377 1462 377 1462 454 1489.5 c 128,-1,13
 531 1517 531 1517 623 1517 c 0,14,15
 713 1517 713 1517 788.5 1489.5 c 128,-1,16
 864 1462 864 1462 925.5 1411.5 c 128,-1,17
 987 1361 987 1361 1033 1291 c 128,-1,18
 1079 1221 1079 1221 1110.5 1135.5 c 128,-1,19
 1142 1050 1142 1050 1157.5 952.5 c 128,-1,20
 1173 855 1173 855 1173 750 c 256,21,22
 1173 645 1173 645 1158 547.5 c 128,-1,23
 1143 450 1143 450 1112.5 364.5 c 128,-1,24
 1082 279 1082 279 1036.5 209 c 128,-1,25
 991 139 991 139 930 88.5 c 128,-1,26
 869 38 869 38 792 10.5 c 128,-1,27
 715 -17 715 -17 623 -17 c 0,0,1
965 719 m 0,28,29
 965 789 965 789 960.5 862 c 128,-1,30
 956 935 956 935 942.5 1004.5 c 128,-1,31
 929 1074 929 1074 905 1135.5 c 128,-1,32
 881 1197 881 1197 842.5 1242.5 c 128,-1,33
 804 1288 804 1288 748.5 1315 c 128,-1,34
 693 1342 693 1342 617 1342 c 0,35,36
 545 1342 545 1342 492 1318 c 128,-1,37
 439 1294 439 1294 402 1252.5 c 128,-1,38
 365 1211 365 1211 341 1155.5 c 128,-1,39
 317 1100 317 1100 304 1038 c 128,-1,40
 291 976 291 976 286 911 c 128,-1,41
 281 846 281 846 281 785 c 0,42,43
 281 714 281 714 285.5 640 c 128,-1,44
 290 566 290 566 303.5 496.5 c 128,-1,45
 317 427 317 427 341 365.5 c 128,-1,46
 365 304 365 304 404 258 c 128,-1,47
 443 212 443 212 498 185 c 128,-1,48
 553 158 553 158 629 158 c 0,49,50
 700 158 700 158 752.5 182.5 c 128,-1,51
 805 207 805 207 842.5 249.5 c 128,-1,52
 880 292 880 292 904 347.5 c 128,-1,53
 928 403 928 403 941.5 465.5 c 128,-1,54
 955 528 955 528 960 593 c 128,-1,55
 965 658 965 658 965 719 c 0,28,29
880 1620 m 1,56,-1
 730 1620 l 1,57,-1
 630 1772 l 1,58,-1
 600 1860 l 1,59,-1
 570 1773 l 1,60,-1
 469 1620 l 1,61,-1
 319 1620 l 1,62,-1
 495 1900 l 1,63,-1
 695 1920 l 1,64,-1
 880 1620 l 1,56,-1
EndSplineSet
EndChar

StartChar: Otilde
Encoding: 213 213 139
Width: 1300
Flags: W
LayerCount: 2
Fore
SplineSet
624 -17 m 0,0,1
 534 -17 534 -17 458.5 10.5 c 128,-1,2
 383 38 383 38 321.5 88.5 c 128,-1,3
 260 139 260 139 214 209 c 128,-1,4
 168 279 168 279 136.5 364.5 c 128,-1,5
 105 450 105 450 89.5 547.5 c 128,-1,6
 74 645 74 645 74 750 c 256,7,8
 74 855 74 855 89 952.5 c 128,-1,9
 104 1050 104 1050 134.5 1135.5 c 128,-1,10
 165 1221 165 1221 210.5 1291 c 128,-1,11
 256 1361 256 1361 317 1411.5 c 128,-1,12
 378 1462 378 1462 455 1489.5 c 128,-1,13
 532 1517 532 1517 624 1517 c 0,14,15
 714 1517 714 1517 789.5 1489.5 c 128,-1,16
 865 1462 865 1462 926.5 1411.5 c 128,-1,17
 988 1361 988 1361 1034 1291 c 128,-1,18
 1080 1221 1080 1221 1111.5 1135.5 c 128,-1,19
 1143 1050 1143 1050 1158.5 952.5 c 128,-1,20
 1174 855 1174 855 1174 750 c 256,21,22
 1174 645 1174 645 1159 547.5 c 128,-1,23
 1144 450 1144 450 1113.5 364.5 c 128,-1,24
 1083 279 1083 279 1037.5 209 c 128,-1,25
 992 139 992 139 931 88.5 c 128,-1,26
 870 38 870 38 793 10.5 c 128,-1,27
 716 -17 716 -17 624 -17 c 0,0,1
966 719 m 0,28,29
 966 789 966 789 961.5 862 c 128,-1,30
 957 935 957 935 943.5 1004.5 c 128,-1,31
 930 1074 930 1074 906 1135.5 c 128,-1,32
 882 1197 882 1197 843.5 1242.5 c 128,-1,33
 805 1288 805 1288 749.5 1315 c 128,-1,34
 694 1342 694 1342 618 1342 c 0,35,36
 546 1342 546 1342 493 1318 c 128,-1,37
 440 1294 440 1294 403 1252.5 c 128,-1,38
 366 1211 366 1211 342 1155.5 c 128,-1,39
 318 1100 318 1100 305 1038 c 128,-1,40
 292 976 292 976 287 911 c 128,-1,41
 282 846 282 846 282 785 c 0,42,43
 282 714 282 714 286.5 640 c 128,-1,44
 291 566 291 566 304.5 496.5 c 128,-1,45
 318 427 318 427 342 365.5 c 128,-1,46
 366 304 366 304 405 258 c 128,-1,47
 444 212 444 212 499 185 c 128,-1,48
 554 158 554 158 630 158 c 0,49,50
 701 158 701 158 753.5 182.5 c 128,-1,51
 806 207 806 207 843.5 249.5 c 128,-1,52
 881 292 881 292 905 347.5 c 128,-1,53
 929 403 929 403 942.5 465.5 c 128,-1,54
 956 528 956 528 961 593 c 128,-1,55
 966 658 966 658 966 719 c 0,28,29
287 1655 m 1,56,57
 291 1695 291 1695 306.5 1733 c 128,-1,58
 322 1771 322 1771 346.5 1800 c 128,-1,59
 371 1829 371 1829 402 1846.5 c 128,-1,60
 433 1864 433 1864 469 1864 c 0,61,62
 508 1864 508 1864 542 1850 c 128,-1,63
 576 1836 576 1836 607 1819 c 128,-1,64
 638 1802 638 1802 668 1788 c 128,-1,65
 698 1774 698 1774 729 1774 c 0,66,67
 750 1774 750 1774 766 1784.5 c 128,-1,68
 782 1795 782 1795 793 1810.5 c 128,-1,69
 804 1826 804 1826 811 1845 c 128,-1,70
 818 1864 818 1864 821 1882 c 1,71,-1
 917 1878 l 1,72,73
 914 1834 914 1834 897.5 1793 c 128,-1,74
 881 1752 881 1752 855.5 1720.5 c 128,-1,75
 830 1689 830 1689 795.5 1670 c 128,-1,76
 761 1651 761 1651 722 1651 c 0,77,78
 690 1651 690 1651 659 1665 c 128,-1,79
 628 1679 628 1679 596 1695.5 c 128,-1,80
 564 1712 564 1712 531 1726 c 128,-1,81
 498 1740 498 1740 463 1740 c 0,82,83
 445 1740 445 1740 430.5 1732 c 128,-1,84
 416 1724 416 1724 404.5 1711 c 128,-1,85
 393 1698 393 1698 385 1682.5 c 128,-1,86
 377 1667 377 1667 373 1652 c 1,87,-1
 287 1655 l 1,56,57
EndSplineSet
EndChar

StartChar: Odieresis
Encoding: 214 214 140
Width: 1300
Flags: W
LayerCount: 2
Fore
SplineSet
624 -17 m 0,0,1
 534 -17 534 -17 458.5 10.5 c 128,-1,2
 383 38 383 38 321.5 88.5 c 128,-1,3
 260 139 260 139 214 209 c 128,-1,4
 168 279 168 279 136.5 364.5 c 128,-1,5
 105 450 105 450 89.5 547.5 c 128,-1,6
 74 645 74 645 74 750 c 256,7,8
 74 855 74 855 89 952.5 c 128,-1,9
 104 1050 104 1050 134.5 1135.5 c 128,-1,10
 165 1221 165 1221 210.5 1291 c 128,-1,11
 256 1361 256 1361 317 1411.5 c 128,-1,12
 378 1462 378 1462 455 1489.5 c 128,-1,13
 532 1517 532 1517 624 1517 c 0,14,15
 714 1517 714 1517 789.5 1489.5 c 128,-1,16
 865 1462 865 1462 926.5 1411.5 c 128,-1,17
 988 1361 988 1361 1034 1291 c 128,-1,18
 1080 1221 1080 1221 1111.5 1135.5 c 128,-1,19
 1143 1050 1143 1050 1158.5 952.5 c 128,-1,20
 1174 855 1174 855 1174 750 c 256,21,22
 1174 645 1174 645 1159 547.5 c 128,-1,23
 1144 450 1144 450 1113.5 364.5 c 128,-1,24
 1083 279 1083 279 1037.5 209 c 128,-1,25
 992 139 992 139 931 88.5 c 128,-1,26
 870 38 870 38 793 10.5 c 128,-1,27
 716 -17 716 -17 624 -17 c 0,0,1
966 719 m 0,28,29
 966 789 966 789 961.5 862 c 128,-1,30
 957 935 957 935 943.5 1004.5 c 128,-1,31
 930 1074 930 1074 906 1135.5 c 128,-1,32
 882 1197 882 1197 843.5 1242.5 c 128,-1,33
 805 1288 805 1288 749.5 1315 c 128,-1,34
 694 1342 694 1342 618 1342 c 0,35,36
 546 1342 546 1342 493 1318 c 128,-1,37
 440 1294 440 1294 403 1252.5 c 128,-1,38
 366 1211 366 1211 342 1155.5 c 128,-1,39
 318 1100 318 1100 305 1038 c 128,-1,40
 292 976 292 976 287 911 c 128,-1,41
 282 846 282 846 282 785 c 0,42,43
 282 714 282 714 286.5 640 c 128,-1,44
 291 566 291 566 304.5 496.5 c 128,-1,45
 318 427 318 427 342 365.5 c 128,-1,46
 366 304 366 304 405 258 c 128,-1,47
 444 212 444 212 499 185 c 128,-1,48
 554 158 554 158 630 158 c 0,49,50
 701 158 701 158 753.5 182.5 c 128,-1,51
 806 207 806 207 843.5 249.5 c 128,-1,52
 881 292 881 292 905 347.5 c 128,-1,53
 929 403 929 403 942.5 465.5 c 128,-1,54
 956 528 956 528 961 593 c 128,-1,55
 966 658 966 658 966 719 c 0,28,29
300 1800 m 1,56,-1
 500 1800 l 1,57,-1
 500 1600 l 1,58,-1
 300 1600 l 1,59,-1
 300 1800 l 1,56,-1
700 1800 m 1,60,-1
 900 1800 l 1,61,-1
 900 1600 l 1,62,-1
 700 1600 l 1,63,-1
 700 1800 l 1,60,-1
EndSplineSet
EndChar

StartChar: Oslash
Encoding: 216 216 141
Width: 1300
Flags: W
LayerCount: 2
Fore
SplineSet
650 -17 m 0,0,1
 560 -17 560 -17 484 10 c 0,2,3
 442 25 442 25 405 48 c 1,4,-1
 331 -100 l 1,5,-1
 121 -100 l 1,6,-1
 261 178 l 1,7,8
 250 193 250 193 240 209 c 0,9,10
 194 279 194 279 162.5 364.5 c 128,-1,11
 131 450 131 450 115.5 547.5 c 128,-1,12
 100 645 100 645 100 750 c 256,13,14
 100 855 100 855 115 952.5 c 128,-1,15
 130 1050 130 1050 160.5 1135.5 c 128,-1,16
 191 1221 191 1221 236.5 1291 c 128,-1,17
 282 1361 282 1361 343 1411.5 c 128,-1,18
 404 1462 404 1462 481 1489.5 c 128,-1,19
 558 1517 558 1517 650 1517 c 0,20,21
 740 1517 740 1517 815 1489 c 0,22,23
 862 1472 862 1472 903 1447 c 1,24,-1
 980 1600 l 1,25,-1
 1180 1600 l 1,26,-1
 1040 1319 l 1,27,28
 1050 1305 1050 1305 1060 1291 c 0,29,30
 1106 1221 1106 1221 1137.5 1135.5 c 128,-1,31
 1169 1050 1169 1050 1184.5 952.5 c 128,-1,32
 1200 855 1200 855 1200 750 c 256,33,34
 1200 645 1200 645 1185 547.5 c 128,-1,35
 1170 450 1170 450 1139.5 364.5 c 128,-1,36
 1109 279 1109 279 1063.5 209 c 128,-1,37
 1018 139 1018 139 957 88.5 c 128,-1,38
 896 38 896 38 819 10.5 c 128,-1,39
 742 -17 742 -17 650 -17 c 0,0,1
775 1315 m 0,40,41
 720 1342 720 1342 644 1342 c 0,42,43
 572 1342 572 1342 519 1318 c 128,-1,44
 466 1294 466 1294 429 1252.5 c 128,-1,45
 392 1211 392 1211 368 1155.5 c 128,-1,46
 344 1100 344 1100 331 1038 c 128,-1,47
 318 976 318 976 313 911 c 128,-1,48
 308 846 308 846 308 785 c 0,49,50
 308 714 308 714 312.5 640 c 128,-1,51
 317 566 317 566 330 496 c 0,52,53
 342 434 342 434 363 378 c 1,54,-1
 822 1287 l 1,55,56
 800 1303 800 1303 775 1315 c 0,40,41
992 719 m 0,57,58
 992 789 992 789 987.5 862 c 128,-1,59
 983 935 983 935 969 1004 c 0,60,61
 958 1064 958 1064 939 1117 c 1,62,-1
 485 208 l 1,63,64
 504 195 504 195 525 185 c 0,65,66
 580 158 580 158 656 158 c 0,67,68
 727 158 727 158 779.5 182.5 c 128,-1,69
 832 207 832 207 869.5 249.5 c 128,-1,70
 907 292 907 292 931 347.5 c 128,-1,71
 955 403 955 403 968.5 465.5 c 128,-1,72
 982 528 982 528 987 593 c 128,-1,73
 992 658 992 658 992 719 c 0,57,58
EndSplineSet
EndChar

StartChar: Ugrave
Encoding: 217 217 142
Width: 1300
Flags: W
LayerCount: 2
Fore
SplineSet
1115 1500 m 1,0,-1
 1115 523 l 2,1,2
 1115 387 1115 387 1082.5 285.5 c 128,-1,3
 1050 184 1050 184 988.5 117 c 128,-1,4
 927 50 927 50 838 16.5 c 128,-1,5
 749 -17 749 -17 635 -17 c 0,6,7
 513 -17 513 -17 427.5 25.5 c 128,-1,8
 342 68 342 68 288 145.5 c 128,-1,9
 234 223 234 223 209.5 332 c 128,-1,10
 185 441 185 441 185 573 c 2,11,-1
 185 1290 l 1,12,-1
 155 1500 l 1,13,-1
 375 1520 l 1,14,-1
 375 554 l 2,15,16
 375 459 375 459 393.5 384.5 c 128,-1,17
 412 310 412 310 447 258.5 c 128,-1,18
 482 207 482 207 532 180 c 128,-1,19
 582 153 582 153 645 153 c 0,20,21
 792 153 792 153 858.5 240.5 c 128,-1,22
 925 328 925 328 925 504 c 2,23,-1
 925 1500 l 1,24,-1
 1115 1500 l 1,0,-1
760 1600 m 1,25,-1
 610 1600 l 1,26,-1
 385 1900 l 1,27,-1
 589 1920 l 1,28,-1
 760 1600 l 1,25,-1
EndSplineSet
EndChar

StartChar: Uacute
Encoding: 218 218 143
Width: 1300
Flags: W
LayerCount: 2
Fore
SplineSet
1115 1500 m 1,0,-1
 1115 523 l 2,1,2
 1115 387 1115 387 1082.5 285.5 c 128,-1,3
 1050 184 1050 184 988.5 117 c 128,-1,4
 927 50 927 50 838 16.5 c 128,-1,5
 749 -17 749 -17 635 -17 c 0,6,7
 513 -17 513 -17 427.5 25.5 c 128,-1,8
 342 68 342 68 288 145.5 c 128,-1,9
 234 223 234 223 209.5 332 c 128,-1,10
 185 441 185 441 185 573 c 2,11,-1
 185 1290 l 1,12,-1
 155 1500 l 1,13,-1
 375 1520 l 1,14,-1
 375 554 l 2,15,16
 375 459 375 459 393.5 384.5 c 128,-1,17
 412 310 412 310 447 258.5 c 128,-1,18
 482 207 482 207 532 180 c 128,-1,19
 582 153 582 153 645 153 c 0,20,21
 792 153 792 153 858.5 240.5 c 128,-1,22
 925 328 925 328 925 504 c 2,23,-1
 925 1500 l 1,24,-1
 1115 1500 l 1,0,-1
700 1900 m 1,25,-1
 930 1920 l 1,26,-1
 690 1600 l 1,27,-1
 540 1600 l 1,28,-1
 700 1900 l 1,25,-1
EndSplineSet
EndChar

StartChar: Ucircumflex
Encoding: 219 219 144
Width: 1300
Flags: W
LayerCount: 2
Fore
SplineSet
1115 1500 m 1,0,-1
 1115 523 l 2,1,2
 1115 387 1115 387 1082.5 285.5 c 128,-1,3
 1050 184 1050 184 988.5 117 c 128,-1,4
 927 50 927 50 838 16.5 c 128,-1,5
 749 -17 749 -17 635 -17 c 0,6,7
 513 -17 513 -17 427.5 25.5 c 128,-1,8
 342 68 342 68 288 145.5 c 128,-1,9
 234 223 234 223 209.5 332 c 128,-1,10
 185 441 185 441 185 573 c 2,11,-1
 185 1290 l 1,12,-1
 155 1500 l 1,13,-1
 375 1520 l 1,14,-1
 375 554 l 2,15,16
 375 459 375 459 393.5 384.5 c 128,-1,17
 412 310 412 310 447 258.5 c 128,-1,18
 482 207 482 207 532 180 c 128,-1,19
 582 153 582 153 645 153 c 0,20,21
 792 153 792 153 858.5 240.5 c 128,-1,22
 925 328 925 328 925 504 c 2,23,-1
 925 1500 l 1,24,-1
 1115 1500 l 1,0,-1
930 1620 m 1,25,-1
 780 1620 l 1,26,-1
 680 1772 l 1,27,-1
 650 1860 l 1,28,-1
 620 1773 l 1,29,-1
 519 1620 l 1,30,-1
 369 1620 l 1,31,-1
 545 1900 l 1,32,-1
 745 1920 l 1,33,-1
 930 1620 l 1,25,-1
EndSplineSet
EndChar

StartChar: Udieresis
Encoding: 220 220 145
Width: 1300
Flags: W
LayerCount: 2
Fore
SplineSet
1115 1500 m 1,0,-1
 1115 523 l 2,1,2
 1115 387 1115 387 1082.5 285.5 c 128,-1,3
 1050 184 1050 184 988.5 117 c 128,-1,4
 927 50 927 50 838 16.5 c 128,-1,5
 749 -17 749 -17 635 -17 c 0,6,7
 513 -17 513 -17 427.5 25.5 c 128,-1,8
 342 68 342 68 288 145.5 c 128,-1,9
 234 223 234 223 209.5 332 c 128,-1,10
 185 441 185 441 185 573 c 2,11,-1
 185 1290 l 1,12,-1
 155 1500 l 1,13,-1
 375 1520 l 1,14,-1
 375 554 l 2,15,16
 375 459 375 459 393.5 384.5 c 128,-1,17
 412 310 412 310 447 258.5 c 128,-1,18
 482 207 482 207 532 180 c 128,-1,19
 582 153 582 153 645 153 c 0,20,21
 792 153 792 153 858.5 240.5 c 128,-1,22
 925 328 925 328 925 504 c 2,23,-1
 925 1500 l 1,24,-1
 1115 1500 l 1,0,-1
350 1800 m 1,25,-1
 550 1800 l 1,26,-1
 550 1600 l 1,27,-1
 350 1600 l 1,28,-1
 350 1800 l 1,25,-1
750 1800 m 1,29,-1
 950 1800 l 1,30,-1
 950 1600 l 1,31,-1
 750 1600 l 1,32,-1
 750 1800 l 1,29,-1
EndSplineSet
EndChar

StartChar: germandbls
Encoding: 223 223 146
Width: 1300
Flags: W
LayerCount: 2
Fore
SplineSet
790 1148 m 0,0,1
 790 1194 790 1194 776.5 1234 c 128,-1,2
 763 1274 763 1274 738 1304 c 128,-1,3
 713 1334 713 1334 678 1351.5 c 128,-1,4
 643 1369 643 1369 600 1369 c 0,5,6
 568 1369 568 1369 545.5 1365 c 128,-1,7
 523 1361 523 1361 505 1352.5 c 128,-1,8
 487 1344 487 1344 471.5 1332 c 128,-1,9
 456 1320 456 1320 440 1304 c 0,10,11
 413 1277 413 1277 406.5 1241 c 128,-1,12
 400 1205 400 1205 400 1160 c 2,13,-1
 400 -17 l 1,14,-1
 192 0 l 1,15,-1
 192 1111 l 2,16,17
 192 1305 192 1305 308 1412 c 0,18,19
 336 1438 336 1438 366 1458 c 128,-1,20
 396 1478 396 1478 431.5 1491 c 128,-1,21
 467 1504 467 1504 508.5 1510.5 c 128,-1,22
 550 1517 550 1517 603 1517 c 0,23,24
 654 1517 654 1517 693.5 1510 c 128,-1,25
 733 1503 733 1503 766 1489 c 128,-1,26
 799 1475 799 1475 826.5 1454 c 128,-1,27
 854 1433 854 1433 881 1405 c 0,28,29
 903 1382 903 1382 921.5 1357.5 c 128,-1,30
 940 1333 940 1333 953 1305 c 128,-1,31
 966 1277 966 1277 973.5 1244 c 128,-1,32
 981 1211 981 1211 981 1169 c 0,33,34
 981 1060 981 1060 929 981 c 128,-1,35
 877 902 877 902 790 860 c 1,36,-1
 636 816 l 1,37,-1
 783 802 l 1,38,39
 844 784 844 784 898.5 755.5 c 128,-1,40
 953 727 953 727 994 686 c 128,-1,41
 1035 645 1035 645 1058.5 589 c 128,-1,42
 1082 533 1082 533 1082 460 c 0,43,44
 1082 332 1082 332 1037 244.5 c 128,-1,45
 992 157 992 157 919.5 102.5 c 128,-1,46
 847 48 847 48 755.5 24 c 128,-1,47
 664 0 664 0 570 0 c 1,48,-1
 510 160 l 1,49,50
 609 160 609 160 679.5 174.5 c 128,-1,51
 750 189 750 189 795 222.5 c 128,-1,52
 840 256 840 256 861 311.5 c 128,-1,53
 882 367 882 367 882 450 c 0,54,55
 882 600 882 600 797.5 665 c 128,-1,56
 713 730 713 730 550 730 c 1,57,-1
 480 885 l 1,58,59
 544 885 544 885 600.5 899.5 c 128,-1,60
 657 914 657 914 699 945.5 c 128,-1,61
 741 977 741 977 765.5 1027 c 128,-1,62
 790 1077 790 1077 790 1148 c 0,0,1
EndSplineSet
EndChar

StartChar: agrave
Encoding: 224 224 147
Width: 1300
Flags: W
LayerCount: 2
Fore
SplineSet
1110 0 m 1,0,-1
 910 0 l 1,1,-1
 910 162 l 1,2,-1
 816 50 l 1,3,4
 799 37 799 37 772.5 25 c 128,-1,5
 746 13 746 13 716 3.5 c 128,-1,6
 686 -6 686 -6 655 -11.5 c 128,-1,7
 624 -17 624 -17 596 -17 c 0,8,9
 521 -17 521 -17 445 6.5 c 128,-1,10
 369 30 369 30 308 75.5 c 128,-1,11
 247 121 247 121 208.5 188.5 c 128,-1,12
 170 256 170 256 170 344 c 0,13,14
 170 437 170 437 209.5 504.5 c 128,-1,15
 249 572 249 572 313 616 c 128,-1,16
 377 660 377 660 459 681 c 128,-1,17
 541 702 541 702 625 702 c 0,18,19
 720 702 720 702 790 691.5 c 128,-1,20
 860 681 860 681 910 662 c 1,21,-1
 910 705 l 2,22,23
 910 764 910 764 895.5 811 c 128,-1,24
 881 858 881 858 850 890.5 c 128,-1,25
 819 923 819 923 770.5 940 c 128,-1,26
 722 957 722 957 655 957 c 0,27,28
 592 957 592 957 546.5 949.5 c 128,-1,29
 501 942 501 942 462 933 c 0,30,31
 439 928 439 928 418 922 c 128,-1,32
 397 916 397 916 377 910 c 1,33,-1
 305 1044 l 1,34,35
 347 1063 347 1063 405 1080 c 0,36,37
 453 1094 453 1094 514.5 1105.5 c 128,-1,38
 576 1117 576 1117 665 1117 c 0,39,40
 780 1117 780 1117 861 1086 c 128,-1,41
 942 1055 942 1055 993 999 c 128,-1,42
 1044 943 1044 943 1067 864.5 c 128,-1,43
 1090 786 1090 786 1090 690 c 2,44,-1
 1090 180 l 1,45,-1
 1110 0 l 1,0,-1
910 525 m 1,46,-1
 850 533 l 2,47,48
 836 534 836 534 813 536 c 128,-1,49
 790 538 790 538 763 539 c 2,50,-1
 710 541 l 2,51,52
 684 542 684 542 665 542 c 0,53,54
 609 542 609 542 555 532 c 128,-1,55
 501 522 501 522 458.5 499 c 128,-1,56
 416 476 416 476 389.5 438.5 c 128,-1,57
 363 401 363 401 363 345 c 0,58,59
 363 300 363 300 383 263 c 128,-1,60
 403 226 403 226 436.5 199 c 128,-1,61
 470 172 470 172 513.5 157.5 c 128,-1,62
 557 143 557 143 604 143 c 0,63,64
 697 143 697 143 771 178.5 c 128,-1,65
 845 214 845 214 910 274 c 1,66,-1
 910 525 l 1,46,-1
860 1200 m 1,67,-1
 710 1200 l 1,68,-1
 485 1500 l 1,69,-1
 689 1520 l 1,70,-1
 860 1200 l 1,67,-1
EndSplineSet
EndChar

StartChar: aacute
Encoding: 225 225 148
Width: 1300
Flags: W
LayerCount: 2
Fore
SplineSet
1110 0 m 1,0,-1
 910 0 l 1,1,-1
 910 162 l 1,2,-1
 816 50 l 1,3,4
 799 37 799 37 772.5 25 c 128,-1,5
 746 13 746 13 716 3.5 c 128,-1,6
 686 -6 686 -6 655 -11.5 c 128,-1,7
 624 -17 624 -17 596 -17 c 0,8,9
 521 -17 521 -17 445 6.5 c 128,-1,10
 369 30 369 30 308 75.5 c 128,-1,11
 247 121 247 121 208.5 188.5 c 128,-1,12
 170 256 170 256 170 344 c 0,13,14
 170 437 170 437 209.5 504.5 c 128,-1,15
 249 572 249 572 313 616 c 128,-1,16
 377 660 377 660 459 681 c 128,-1,17
 541 702 541 702 625 702 c 0,18,19
 720 702 720 702 790 691.5 c 128,-1,20
 860 681 860 681 910 662 c 1,21,-1
 910 705 l 2,22,23
 910 764 910 764 895.5 811 c 128,-1,24
 881 858 881 858 850 890.5 c 128,-1,25
 819 923 819 923 770.5 940 c 128,-1,26
 722 957 722 957 655 957 c 0,27,28
 592 957 592 957 546.5 949.5 c 128,-1,29
 501 942 501 942 462 933 c 0,30,31
 439 928 439 928 418 922 c 128,-1,32
 397 916 397 916 377 910 c 1,33,-1
 305 1044 l 1,34,35
 347 1063 347 1063 405 1080 c 0,36,37
 453 1094 453 1094 514.5 1105.5 c 128,-1,38
 576 1117 576 1117 665 1117 c 0,39,40
 780 1117 780 1117 861 1086 c 128,-1,41
 942 1055 942 1055 993 999 c 128,-1,42
 1044 943 1044 943 1067 864.5 c 128,-1,43
 1090 786 1090 786 1090 690 c 2,44,-1
 1090 180 l 1,45,-1
 1110 0 l 1,0,-1
910 525 m 1,46,-1
 850 533 l 2,47,48
 836 534 836 534 813 536 c 128,-1,49
 790 538 790 538 763 539 c 2,50,-1
 710 541 l 2,51,52
 684 542 684 542 665 542 c 0,53,54
 609 542 609 542 555 532 c 128,-1,55
 501 522 501 522 458.5 499 c 128,-1,56
 416 476 416 476 389.5 438.5 c 128,-1,57
 363 401 363 401 363 345 c 0,58,59
 363 300 363 300 383 263 c 128,-1,60
 403 226 403 226 436.5 199 c 128,-1,61
 470 172 470 172 513.5 157.5 c 128,-1,62
 557 143 557 143 604 143 c 0,63,64
 697 143 697 143 771 178.5 c 128,-1,65
 845 214 845 214 910 274 c 1,66,-1
 910 525 l 1,46,-1
750 1500 m 1,67,-1
 980 1520 l 1,68,-1
 740 1200 l 1,69,-1
 590 1200 l 1,70,-1
 750 1500 l 1,67,-1
EndSplineSet
EndChar

StartChar: acircumflex
Encoding: 226 226 149
Width: 1300
Flags: W
LayerCount: 2
Fore
SplineSet
1110 0 m 1,0,-1
 910 0 l 1,1,-1
 910 162 l 1,2,-1
 816 50 l 1,3,4
 799 37 799 37 772.5 25 c 128,-1,5
 746 13 746 13 716 3.5 c 128,-1,6
 686 -6 686 -6 655 -11.5 c 128,-1,7
 624 -17 624 -17 596 -17 c 0,8,9
 521 -17 521 -17 445 6.5 c 128,-1,10
 369 30 369 30 308 75.5 c 128,-1,11
 247 121 247 121 208.5 188.5 c 128,-1,12
 170 256 170 256 170 344 c 0,13,14
 170 437 170 437 209.5 504.5 c 128,-1,15
 249 572 249 572 313 616 c 128,-1,16
 377 660 377 660 459 681 c 128,-1,17
 541 702 541 702 625 702 c 0,18,19
 720 702 720 702 790 691.5 c 128,-1,20
 860 681 860 681 910 662 c 1,21,-1
 910 705 l 2,22,23
 910 764 910 764 895.5 811 c 128,-1,24
 881 858 881 858 850 890.5 c 128,-1,25
 819 923 819 923 770.5 940 c 128,-1,26
 722 957 722 957 655 957 c 0,27,28
 592 957 592 957 546.5 949.5 c 128,-1,29
 501 942 501 942 462 933 c 0,30,31
 439 928 439 928 418 922 c 128,-1,32
 397 916 397 916 377 910 c 1,33,-1
 305 1044 l 1,34,35
 347 1063 347 1063 405 1080 c 0,36,37
 453 1094 453 1094 514.5 1105.5 c 128,-1,38
 576 1117 576 1117 665 1117 c 0,39,40
 780 1117 780 1117 861 1086 c 128,-1,41
 942 1055 942 1055 993 999 c 128,-1,42
 1044 943 1044 943 1067 864.5 c 128,-1,43
 1090 786 1090 786 1090 690 c 2,44,-1
 1090 180 l 1,45,-1
 1110 0 l 1,0,-1
910 525 m 1,46,-1
 850 533 l 2,47,48
 836 534 836 534 813 536 c 128,-1,49
 790 538 790 538 763 539 c 2,50,-1
 710 541 l 2,51,52
 684 542 684 542 665 542 c 0,53,54
 609 542 609 542 555 532 c 128,-1,55
 501 522 501 522 458.5 499 c 128,-1,56
 416 476 416 476 389.5 438.5 c 128,-1,57
 363 401 363 401 363 345 c 0,58,59
 363 300 363 300 383 263 c 128,-1,60
 403 226 403 226 436.5 199 c 128,-1,61
 470 172 470 172 513.5 157.5 c 128,-1,62
 557 143 557 143 604 143 c 0,63,64
 697 143 697 143 771 178.5 c 128,-1,65
 845 214 845 214 910 274 c 1,66,-1
 910 525 l 1,46,-1
980 1220 m 1,67,-1
 830 1220 l 1,68,-1
 730 1372 l 1,69,-1
 700 1460 l 1,70,-1
 670 1373 l 1,71,-1
 569 1220 l 1,72,-1
 419 1220 l 1,73,-1
 595 1500 l 1,74,-1
 795 1520 l 1,75,-1
 980 1220 l 1,67,-1
EndSplineSet
EndChar

StartChar: atilde
Encoding: 227 227 150
Width: 1300
Flags: W
LayerCount: 2
Fore
SplineSet
1110 0 m 1,0,-1
 910 0 l 1,1,-1
 910 162 l 1,2,-1
 816 50 l 1,3,4
 799 37 799 37 772.5 25 c 128,-1,5
 746 13 746 13 716 3.5 c 128,-1,6
 686 -6 686 -6 655 -11.5 c 128,-1,7
 624 -17 624 -17 596 -17 c 0,8,9
 521 -17 521 -17 445 6.5 c 128,-1,10
 369 30 369 30 308 75.5 c 128,-1,11
 247 121 247 121 208.5 188.5 c 128,-1,12
 170 256 170 256 170 344 c 0,13,14
 170 437 170 437 209.5 504.5 c 128,-1,15
 249 572 249 572 313 616 c 128,-1,16
 377 660 377 660 459 681 c 128,-1,17
 541 702 541 702 625 702 c 0,18,19
 720 702 720 702 790 691.5 c 128,-1,20
 860 681 860 681 910 662 c 1,21,-1
 910 705 l 2,22,23
 910 764 910 764 895.5 811 c 128,-1,24
 881 858 881 858 850 890.5 c 128,-1,25
 819 923 819 923 770.5 940 c 128,-1,26
 722 957 722 957 655 957 c 0,27,28
 592 957 592 957 546.5 949.5 c 128,-1,29
 501 942 501 942 462 933 c 0,30,31
 439 928 439 928 418 922 c 128,-1,32
 397 916 397 916 377 910 c 1,33,-1
 305 1044 l 1,34,35
 347 1063 347 1063 405 1080 c 0,36,37
 453 1094 453 1094 514.5 1105.5 c 128,-1,38
 576 1117 576 1117 665 1117 c 0,39,40
 780 1117 780 1117 861 1086 c 128,-1,41
 942 1055 942 1055 993 999 c 128,-1,42
 1044 943 1044 943 1067 864.5 c 128,-1,43
 1090 786 1090 786 1090 690 c 2,44,-1
 1090 180 l 1,45,-1
 1110 0 l 1,0,-1
910 525 m 1,46,-1
 850 533 l 2,47,48
 836 534 836 534 813 536 c 128,-1,49
 790 538 790 538 763 539 c 2,50,-1
 710 541 l 2,51,52
 684 542 684 542 665 542 c 0,53,54
 609 542 609 542 555 532 c 128,-1,55
 501 522 501 522 458.5 499 c 128,-1,56
 416 476 416 476 389.5 438.5 c 128,-1,57
 363 401 363 401 363 345 c 0,58,59
 363 300 363 300 383 263 c 128,-1,60
 403 226 403 226 436.5 199 c 128,-1,61
 470 172 470 172 513.5 157.5 c 128,-1,62
 557 143 557 143 604 143 c 0,63,64
 697 143 697 143 771 178.5 c 128,-1,65
 845 214 845 214 910 274 c 1,66,-1
 910 525 l 1,46,-1
387 1275 m 1,67,68
 391 1315 391 1315 406.5 1353 c 128,-1,69
 422 1391 422 1391 446.5 1420 c 128,-1,70
 471 1449 471 1449 502 1466.5 c 128,-1,71
 533 1484 533 1484 569 1484 c 0,72,73
 608 1484 608 1484 642 1470 c 128,-1,74
 676 1456 676 1456 707 1439 c 128,-1,75
 738 1422 738 1422 768 1408 c 128,-1,76
 798 1394 798 1394 829 1394 c 0,77,78
 850 1394 850 1394 866 1404.5 c 128,-1,79
 882 1415 882 1415 893 1430.5 c 128,-1,80
 904 1446 904 1446 911 1465 c 128,-1,81
 918 1484 918 1484 921 1502 c 1,82,-1
 1017 1498 l 1,83,84
 1014 1454 1014 1454 997.5 1413 c 128,-1,85
 981 1372 981 1372 955.5 1340.5 c 128,-1,86
 930 1309 930 1309 895.5 1290 c 128,-1,87
 861 1271 861 1271 822 1271 c 0,88,89
 790 1271 790 1271 759 1285 c 128,-1,90
 728 1299 728 1299 696 1315.5 c 128,-1,91
 664 1332 664 1332 631 1346 c 128,-1,92
 598 1360 598 1360 563 1360 c 0,93,94
 545 1360 545 1360 530.5 1352 c 128,-1,95
 516 1344 516 1344 504.5 1331 c 128,-1,96
 493 1318 493 1318 485 1302.5 c 128,-1,97
 477 1287 477 1287 473 1272 c 1,98,-1
 387 1275 l 1,67,68
EndSplineSet
EndChar

StartChar: adieresis
Encoding: 228 228 151
Width: 1300
Flags: W
LayerCount: 2
Fore
SplineSet
1110 0 m 1,0,-1
 910 0 l 1,1,-1
 910 162 l 1,2,-1
 816 50 l 1,3,4
 799 37 799 37 772.5 25 c 128,-1,5
 746 13 746 13 716 3.5 c 128,-1,6
 686 -6 686 -6 655 -11.5 c 128,-1,7
 624 -17 624 -17 596 -17 c 0,8,9
 521 -17 521 -17 445 6.5 c 128,-1,10
 369 30 369 30 308 75.5 c 128,-1,11
 247 121 247 121 208.5 188.5 c 128,-1,12
 170 256 170 256 170 344 c 0,13,14
 170 437 170 437 209.5 504.5 c 128,-1,15
 249 572 249 572 313 616 c 128,-1,16
 377 660 377 660 459 681 c 128,-1,17
 541 702 541 702 625 702 c 0,18,19
 720 702 720 702 790 691.5 c 128,-1,20
 860 681 860 681 910 662 c 1,21,-1
 910 705 l 2,22,23
 910 764 910 764 895.5 811 c 128,-1,24
 881 858 881 858 850 890.5 c 128,-1,25
 819 923 819 923 770.5 940 c 128,-1,26
 722 957 722 957 655 957 c 0,27,28
 592 957 592 957 546.5 949.5 c 128,-1,29
 501 942 501 942 462 933 c 0,30,31
 439 928 439 928 418 922 c 128,-1,32
 397 916 397 916 377 910 c 1,33,-1
 305 1044 l 1,34,35
 347 1063 347 1063 405 1080 c 0,36,37
 453 1094 453 1094 514.5 1105.5 c 128,-1,38
 576 1117 576 1117 665 1117 c 0,39,40
 780 1117 780 1117 861 1086 c 128,-1,41
 942 1055 942 1055 993 999 c 128,-1,42
 1044 943 1044 943 1067 864.5 c 128,-1,43
 1090 786 1090 786 1090 690 c 2,44,-1
 1090 180 l 1,45,-1
 1110 0 l 1,0,-1
910 525 m 1,46,-1
 850 533 l 2,47,48
 836 534 836 534 813 536 c 128,-1,49
 790 538 790 538 763 539 c 2,50,-1
 710 541 l 2,51,52
 684 542 684 542 665 542 c 0,53,54
 609 542 609 542 555 532 c 128,-1,55
 501 522 501 522 458.5 499 c 128,-1,56
 416 476 416 476 389.5 438.5 c 128,-1,57
 363 401 363 401 363 345 c 0,58,59
 363 300 363 300 383 263 c 128,-1,60
 403 226 403 226 436.5 199 c 128,-1,61
 470 172 470 172 513.5 157.5 c 128,-1,62
 557 143 557 143 604 143 c 0,63,64
 697 143 697 143 771 178.5 c 128,-1,65
 845 214 845 214 910 274 c 1,66,-1
 910 525 l 1,46,-1
400 1500 m 1,67,-1
 600 1500 l 1,68,-1
 600 1300 l 1,69,-1
 400 1300 l 1,70,-1
 400 1500 l 1,67,-1
800 1500 m 1,71,-1
 1000 1500 l 1,72,-1
 1000 1300 l 1,73,-1
 800 1300 l 1,74,-1
 800 1500 l 1,71,-1
EndSplineSet
EndChar

StartChar: aring
Encoding: 229 229 152
Width: 1300
Flags: W
LayerCount: 2
Fore
SplineSet
1110 0 m 1,0,-1
 910 0 l 1,1,-1
 910 162 l 1,2,-1
 816 50 l 1,3,4
 799 37 799 37 772.5 25 c 128,-1,5
 746 13 746 13 716 3.5 c 128,-1,6
 686 -6 686 -6 655 -11.5 c 128,-1,7
 624 -17 624 -17 596 -17 c 0,8,9
 521 -17 521 -17 445 6.5 c 128,-1,10
 369 30 369 30 308 75.5 c 128,-1,11
 247 121 247 121 208.5 188.5 c 128,-1,12
 170 256 170 256 170 344 c 0,13,14
 170 437 170 437 209.5 504.5 c 128,-1,15
 249 572 249 572 313 616 c 128,-1,16
 377 660 377 660 459 681 c 128,-1,17
 541 702 541 702 625 702 c 0,18,19
 720 702 720 702 790 691.5 c 128,-1,20
 860 681 860 681 910 662 c 1,21,-1
 910 705 l 2,22,23
 910 764 910 764 895.5 811 c 128,-1,24
 881 858 881 858 850 890.5 c 128,-1,25
 819 923 819 923 770.5 940 c 128,-1,26
 722 957 722 957 655 957 c 0,27,28
 592 957 592 957 546.5 949.5 c 128,-1,29
 501 942 501 942 462 933 c 0,30,31
 439 928 439 928 418 922 c 128,-1,32
 397 916 397 916 377 910 c 1,33,-1
 305 1044 l 1,34,35
 347 1063 347 1063 405 1080 c 0,36,37
 453 1094 453 1094 514.5 1105.5 c 128,-1,38
 576 1117 576 1117 665 1117 c 0,39,40
 780 1117 780 1117 861 1086 c 128,-1,41
 942 1055 942 1055 993 999 c 128,-1,42
 1044 943 1044 943 1067 864.5 c 128,-1,43
 1090 786 1090 786 1090 690 c 2,44,-1
 1090 180 l 1,45,-1
 1110 0 l 1,0,-1
910 525 m 1,46,-1
 850 533 l 2,47,48
 836 534 836 534 813 536 c 128,-1,49
 790 538 790 538 763 539 c 2,50,-1
 710 541 l 2,51,52
 684 542 684 542 665 542 c 0,53,54
 609 542 609 542 555 532 c 128,-1,55
 501 522 501 522 458.5 499 c 128,-1,56
 416 476 416 476 389.5 438.5 c 128,-1,57
 363 401 363 401 363 345 c 0,58,59
 363 300 363 300 383 263 c 128,-1,60
 403 226 403 226 436.5 199 c 128,-1,61
 470 172 470 172 513.5 157.5 c 128,-1,62
 557 143 557 143 604 143 c 0,63,64
 697 143 697 143 771 178.5 c 128,-1,65
 845 214 845 214 910 274 c 1,66,-1
 910 525 l 1,46,-1
700 1634 m 256,67,68
 749 1634 749 1634 792 1615.5 c 128,-1,69
 835 1597 835 1597 867.5 1564.5 c 128,-1,70
 900 1532 900 1532 918.5 1489 c 128,-1,71
 937 1446 937 1446 937 1397 c 256,72,73
 937 1348 937 1348 918.5 1304 c 128,-1,74
 900 1260 900 1260 868.5 1227 c 128,-1,75
 837 1194 837 1194 794 1175 c 128,-1,76
 751 1156 751 1156 702 1156 c 256,77,78
 653 1156 653 1156 609.5 1175 c 128,-1,79
 566 1194 566 1194 533 1227 c 128,-1,80
 500 1260 500 1260 481 1304 c 128,-1,81
 462 1348 462 1348 462 1397 c 256,82,83
 462 1446 462 1446 481 1489 c 128,-1,84
 500 1532 500 1532 532 1564.5 c 128,-1,85
 564 1597 564 1597 607.5 1615.5 c 128,-1,86
 651 1634 651 1634 700 1634 c 256,67,68
701 1273 m 256,87,88
 726 1273 726 1273 748 1283 c 128,-1,89
 770 1293 770 1293 786 1309.5 c 128,-1,90
 802 1326 802 1326 811.5 1348.5 c 128,-1,91
 821 1371 821 1371 821 1396 c 256,92,93
 821 1421 821 1421 811.5 1443 c 128,-1,94
 802 1465 802 1465 785.5 1481.5 c 128,-1,95
 769 1498 769 1498 747 1507.5 c 128,-1,96
 725 1517 725 1517 700 1517 c 256,97,98
 675 1517 675 1517 653 1507.5 c 128,-1,99
 631 1498 631 1498 614.5 1481.5 c 128,-1,100
 598 1465 598 1465 588.5 1443 c 128,-1,101
 579 1421 579 1421 579 1396 c 256,102,103
 579 1371 579 1371 588.5 1348.5 c 128,-1,104
 598 1326 598 1326 614.5 1309.5 c 128,-1,105
 631 1293 631 1293 653.5 1283 c 128,-1,106
 676 1273 676 1273 701 1273 c 256,87,88
EndSplineSet
EndChar

StartChar: ae
Encoding: 230 230 153
Width: 1300
Flags: W
LayerCount: 2
Fore
SplineSet
1245 650 m 0,0,1
 1245 631 1245 631 1243.5 609.5 c 128,-1,2
 1242 588 1242 588 1239 567 c 128,-1,3
 1236 546 1236 546 1232.5 528 c 128,-1,4
 1229 510 1229 510 1225 500 c 1,5,-1
 745 500 l 1,6,7
 745 425 745 425 756 360 c 128,-1,8
 767 295 767 295 789.5 246.5 c 128,-1,9
 812 198 812 198 846 170.5 c 128,-1,10
 880 143 880 143 925 143 c 0,11,12
 963 143 963 143 994 152.5 c 128,-1,13
 1025 162 1025 162 1048 175 c 128,-1,14
 1071 188 1071 188 1086 202 c 128,-1,15
 1101 216 1101 216 1107 225 c 1,16,-1
 1236 129 l 1,17,18
 1211 99 1211 99 1184.5 72.5 c 128,-1,19
 1158 46 1158 46 1122 26 c 128,-1,20
 1086 6 1086 6 1038 -5.5 c 128,-1,21
 990 -17 990 -17 923 -17 c 0,22,23
 870 -17 870 -17 825 -0.5 c 128,-1,24
 780 16 780 16 744.5 44 c 128,-1,25
 709 72 709 72 684.5 109.5 c 128,-1,26
 660 147 660 147 647 189 c 1,27,28
 631 147 631 147 609.5 109.5 c 128,-1,29
 588 72 588 72 557 44 c 128,-1,30
 526 16 526 16 483 -0.5 c 128,-1,31
 440 -17 440 -17 381 -17 c 0,32,33
 306 -17 306 -17 245.5 6.5 c 128,-1,34
 185 30 185 30 142.5 75.5 c 128,-1,35
 100 121 100 121 77.5 188.5 c 128,-1,36
 55 256 55 256 55 344 c 0,37,38
 55 437 55 437 77 505.5 c 128,-1,39
 99 574 99 574 138.5 619.5 c 128,-1,40
 178 665 178 665 234.5 687.5 c 128,-1,41
 291 710 291 710 360 710 c 0,42,43
 417 710 417 710 448 704 c 128,-1,44
 479 698 479 698 494 690 c 0,45,46
 511 681 511 681 515 671 c 1,47,-1
 515 705 l 2,48,49
 515 764 515 764 513 811 c 128,-1,50
 511 858 511 858 499.5 890.5 c 128,-1,51
 488 923 488 923 462.5 940 c 128,-1,52
 437 957 437 957 390 957 c 0,53,54
 357 957 357 957 325.5 949.5 c 128,-1,55
 294 942 294 942 268 933 c 0,56,57
 238 922 238 922 212 910 c 1,58,-1
 140 1044 l 1,59,60
 182 1064 182 1064 231 1080 c 0,61,62
 273 1094 273 1094 329 1105.5 c 128,-1,63
 385 1117 385 1117 450 1117 c 0,64,65
 492 1117 492 1117 525 1104.5 c 128,-1,66
 558 1092 558 1092 582 1070.5 c 128,-1,67
 606 1049 606 1049 622.5 1021 c 128,-1,68
 639 993 639 993 648 962 c 1,69,70
 657 993 657 993 678 1021 c 128,-1,71
 699 1049 699 1049 731 1070.5 c 128,-1,72
 763 1092 763 1092 807 1104.5 c 128,-1,73
 851 1117 851 1117 905 1117 c 0,74,75
 1013 1117 1013 1117 1079.5 1087 c 128,-1,76
 1146 1057 1146 1057 1183 998 c 128,-1,77
 1220 939 1220 939 1232.5 851.5 c 128,-1,78
 1245 764 1245 764 1245 650 c 0,0,1
515 533 m 1,79,80
 506 537 506 537 494 541 c 0,81,82
 483 544 483 544 466 547 c 128,-1,83
 449 550 449 550 426 550 c 0,84,85
 333 550 333 550 284 503.5 c 128,-1,86
 235 457 235 457 235 345 c 0,87,88
 235 300 235 300 243.5 263 c 128,-1,89
 252 226 252 226 270.5 199 c 128,-1,90
 289 172 289 172 318.5 157.5 c 128,-1,91
 348 143 348 143 389 143 c 0,92,93
 427 143 427 143 452 163 c 128,-1,94
 477 183 477 183 491 208 c 0,95,96
 508 237 508 237 515 274 c 1,97,-1
 515 533 l 1,79,80
1067 730 m 2,98,99
 1067 776 1067 776 1059.5 817.5 c 128,-1,100
 1052 859 1052 859 1034 890 c 128,-1,101
 1016 921 1016 921 986 939 c 128,-1,102
 956 957 956 957 911 957 c 0,103,104
 862 957 862 957 830 937.5 c 128,-1,105
 798 918 798 918 779 886.5 c 128,-1,106
 760 855 760 855 752 814.5 c 128,-1,107
 744 774 744 774 744 732 c 1,108,-1
 675 623 l 1,109,-1
 797 650 l 1,110,-1
 1067 650 l 1,111,-1
 1067 730 l 2,98,99
EndSplineSet
EndChar

StartChar: ccedilla
Encoding: 231 231 154
Width: 1300
Flags: W
LayerCount: 2
Fore
SplineSet
1006 878 m 1,0,1
 967 913 967 913 898 935 c 128,-1,2
 829 957 829 957 723 957 c 0,3,4
 639 957 639 957 572.5 925.5 c 128,-1,5
 506 894 506 894 459.5 840 c 128,-1,6
 413 786 413 786 388.5 714.5 c 128,-1,7
 364 643 364 643 364 564 c 0,8,9
 364 482 364 482 387.5 407.5 c 128,-1,10
 411 333 411 333 457.5 276 c 128,-1,11
 504 219 504 219 573 185.5 c 128,-1,12
 642 152 642 152 734 152 c 0,13,14
 786 152 786 152 834 164 c 128,-1,15
 882 176 882 176 921 192.5 c 128,-1,16
 960 209 960 209 987.5 225.5 c 128,-1,17
 1015 242 1015 242 1027 252 c 1,18,-1
 1099 111 l 1,19,20
 1084 98 1084 98 1054 76.5 c 128,-1,21
 1024 55 1024 55 977.5 34 c 128,-1,22
 931 13 931 13 867 -2 c 0,23,24
 844 -7 844 -7 819 -10 c 1,25,26
 836 -33 836 -33 851 -59 c 0,27,28
 867 -86 867 -86 880 -122 c 128,-1,29
 893 -158 893 -158 893 -198 c 0,30,31
 893 -242 893 -242 874.5 -280 c 128,-1,32
 856 -318 856 -318 825 -346.5 c 128,-1,33
 794 -375 794 -375 753.5 -391 c 128,-1,34
 713 -407 713 -407 669 -407 c 0,35,36
 619 -407 619 -407 572.5 -393.5 c 128,-1,37
 526 -380 526 -380 489 -363 c 0,38,39
 446 -344 446 -344 408 -318 c 1,40,-1
 479 -218 l 1,41,42
 505 -236 505 -236 533 -249 c 0,43,44
 557 -260 557 -260 586.5 -269.5 c 128,-1,45
 616 -279 616 -279 645 -279 c 0,46,47
 682 -279 682 -279 711 -255 c 128,-1,48
 740 -231 740 -231 740 -189 c 0,49,50
 740 -156 740 -156 723.5 -122.5 c 128,-1,51
 707 -89 707 -89 687 -62 c 0,52,53
 668 -36 668 -36 646 -12 c 1,54,55
 564 -2 564 -2 493 32 c 0,56,57
 392 82 392 82 320 164.5 c 128,-1,58
 248 247 248 247 208.5 354 c 128,-1,59
 169 461 169 461 169 577 c 0,60,61
 169 681 169 681 207.5 778.5 c 128,-1,62
 246 876 246 876 318 951 c 128,-1,63
 390 1026 390 1026 493 1071.5 c 128,-1,64
 596 1117 596 1117 725 1117 c 0,65,66
 847 1117 847 1117 944.5 1088.5 c 128,-1,67
 1042 1060 1042 1060 1105 991 c 1,68,-1
 1006 878 l 1,0,1
EndSplineSet
EndChar

StartChar: egrave
Encoding: 232 232 155
Width: 1300
Flags: W
LayerCount: 2
Fore
SplineSet
1034 129 m 1,0,1
 1003 97 1003 97 966 70 c 128,-1,2
 929 43 929 43 884 23.5 c 128,-1,3
 839 4 839 4 784.5 -6.5 c 128,-1,4
 730 -17 730 -17 663 -17 c 0,5,6
 530 -17 530 -17 433 30 c 128,-1,7
 336 77 336 77 273 156 c 128,-1,8
 210 235 210 235 180 337 c 128,-1,9
 150 439 150 439 150 550 c 0,10,11
 150 621 150 621 164.5 690.5 c 128,-1,12
 179 760 179 760 206.5 823 c 128,-1,13
 234 886 234 886 275.5 940 c 128,-1,14
 317 994 317 994 371.5 1033 c 128,-1,15
 426 1072 426 1072 492.5 1094.5 c 128,-1,16
 559 1117 559 1117 638 1117 c 0,17,18
 746 1117 746 1117 833 1082 c 128,-1,19
 920 1047 920 1047 981 984 c 128,-1,20
 1042 921 1042 921 1075 832.5 c 128,-1,21
 1108 744 1108 744 1108 638 c 0,22,23
 1108 607 1108 607 1106 570 c 128,-1,24
 1104 533 1104 533 1100 500 c 1,25,-1
 340 500 l 1,26,27
 340 423 340 423 364 357.5 c 128,-1,28
 388 292 388 292 429.5 244.5 c 128,-1,29
 471 197 471 197 527.5 170 c 128,-1,30
 584 143 584 143 650 143 c 0,31,32
 714 143 714 143 759.5 152.5 c 128,-1,33
 805 162 805 162 836.5 176 c 128,-1,34
 868 190 868 190 889 206 c 128,-1,35
 910 222 910 222 925 236 c 1,36,-1
 1034 129 l 1,0,1
932 650 m 1,37,-1
 932 694 l 2,38,39
 932 751 932 751 909.5 799 c 128,-1,40
 887 847 887 847 848.5 882.5 c 128,-1,41
 810 918 810 918 759.5 938 c 128,-1,42
 709 958 709 958 653 958 c 0,43,44
 586 958 586 958 535.5 936.5 c 128,-1,45
 485 915 485 915 449 881.5 c 128,-1,46
 413 848 413 848 391 808 c 128,-1,47
 369 768 369 768 359 732 c 1,48,-1
 300 618 l 1,49,-1
 485 650 l 1,50,-1
 932 650 l 1,37,-1
760 1200 m 1,51,-1
 610 1200 l 1,52,-1
 385 1500 l 1,53,-1
 589 1520 l 1,54,-1
 760 1200 l 1,51,-1
EndSplineSet
EndChar

StartChar: eacute
Encoding: 233 233 156
Width: 1300
Flags: W
LayerCount: 2
Fore
SplineSet
1034 129 m 1,0,1
 1003 97 1003 97 966 70 c 128,-1,2
 929 43 929 43 884 23.5 c 128,-1,3
 839 4 839 4 784.5 -6.5 c 128,-1,4
 730 -17 730 -17 663 -17 c 0,5,6
 530 -17 530 -17 433 30 c 128,-1,7
 336 77 336 77 273 156 c 128,-1,8
 210 235 210 235 180 337 c 128,-1,9
 150 439 150 439 150 550 c 0,10,11
 150 621 150 621 164.5 690.5 c 128,-1,12
 179 760 179 760 206.5 823 c 128,-1,13
 234 886 234 886 275.5 940 c 128,-1,14
 317 994 317 994 371.5 1033 c 128,-1,15
 426 1072 426 1072 492.5 1094.5 c 128,-1,16
 559 1117 559 1117 638 1117 c 0,17,18
 746 1117 746 1117 833 1082 c 128,-1,19
 920 1047 920 1047 981 984 c 128,-1,20
 1042 921 1042 921 1075 832.5 c 128,-1,21
 1108 744 1108 744 1108 638 c 0,22,23
 1108 607 1108 607 1106 570 c 128,-1,24
 1104 533 1104 533 1100 500 c 1,25,-1
 340 500 l 1,26,27
 340 423 340 423 364 357.5 c 128,-1,28
 388 292 388 292 429.5 244.5 c 128,-1,29
 471 197 471 197 527.5 170 c 128,-1,30
 584 143 584 143 650 143 c 0,31,32
 714 143 714 143 759.5 152.5 c 128,-1,33
 805 162 805 162 836.5 176 c 128,-1,34
 868 190 868 190 889 206 c 128,-1,35
 910 222 910 222 925 236 c 1,36,-1
 1034 129 l 1,0,1
932 650 m 1,37,-1
 932 694 l 2,38,39
 932 751 932 751 909.5 799 c 128,-1,40
 887 847 887 847 848.5 882.5 c 128,-1,41
 810 918 810 918 759.5 938 c 128,-1,42
 709 958 709 958 653 958 c 0,43,44
 586 958 586 958 535.5 936.5 c 128,-1,45
 485 915 485 915 449 881.5 c 128,-1,46
 413 848 413 848 391 808 c 128,-1,47
 369 768 369 768 359 732 c 1,48,-1
 300 618 l 1,49,-1
 485 650 l 1,50,-1
 932 650 l 1,37,-1
700 1500 m 1,51,-1
 930 1520 l 1,52,-1
 690 1200 l 1,53,-1
 540 1200 l 1,54,-1
 700 1500 l 1,51,-1
EndSplineSet
EndChar

StartChar: ecircumflex
Encoding: 234 234 157
Width: 1300
Flags: W
LayerCount: 2
Fore
SplineSet
1034 129 m 1,0,1
 1003 97 1003 97 966 70 c 128,-1,2
 929 43 929 43 884 23.5 c 128,-1,3
 839 4 839 4 784.5 -6.5 c 128,-1,4
 730 -17 730 -17 663 -17 c 0,5,6
 530 -17 530 -17 433 30 c 128,-1,7
 336 77 336 77 273 156 c 128,-1,8
 210 235 210 235 180 337 c 128,-1,9
 150 439 150 439 150 550 c 0,10,11
 150 621 150 621 164.5 690.5 c 128,-1,12
 179 760 179 760 206.5 823 c 128,-1,13
 234 886 234 886 275.5 940 c 128,-1,14
 317 994 317 994 371.5 1033 c 128,-1,15
 426 1072 426 1072 492.5 1094.5 c 128,-1,16
 559 1117 559 1117 638 1117 c 0,17,18
 746 1117 746 1117 833 1082 c 128,-1,19
 920 1047 920 1047 981 984 c 128,-1,20
 1042 921 1042 921 1075 832.5 c 128,-1,21
 1108 744 1108 744 1108 638 c 0,22,23
 1108 607 1108 607 1106 570 c 128,-1,24
 1104 533 1104 533 1100 500 c 1,25,-1
 340 500 l 1,26,27
 340 423 340 423 364 357.5 c 128,-1,28
 388 292 388 292 429.5 244.5 c 128,-1,29
 471 197 471 197 527.5 170 c 128,-1,30
 584 143 584 143 650 143 c 0,31,32
 714 143 714 143 759.5 152.5 c 128,-1,33
 805 162 805 162 836.5 176 c 128,-1,34
 868 190 868 190 889 206 c 128,-1,35
 910 222 910 222 925 236 c 1,36,-1
 1034 129 l 1,0,1
932 650 m 1,37,-1
 932 694 l 2,38,39
 932 751 932 751 909.5 799 c 128,-1,40
 887 847 887 847 848.5 882.5 c 128,-1,41
 810 918 810 918 759.5 938 c 128,-1,42
 709 958 709 958 653 958 c 0,43,44
 586 958 586 958 535.5 936.5 c 128,-1,45
 485 915 485 915 449 881.5 c 128,-1,46
 413 848 413 848 391 808 c 128,-1,47
 369 768 369 768 359 732 c 1,48,-1
 300 618 l 1,49,-1
 485 650 l 1,50,-1
 932 650 l 1,37,-1
890 1220 m 1,51,-1
 740 1220 l 1,52,-1
 640 1372 l 1,53,-1
 610 1460 l 1,54,-1
 580 1373 l 1,55,-1
 479 1220 l 1,56,-1
 329 1220 l 1,57,-1
 505 1500 l 1,58,-1
 705 1520 l 1,59,-1
 890 1220 l 1,51,-1
EndSplineSet
EndChar

StartChar: edieresis
Encoding: 235 235 158
Width: 1300
Flags: W
LayerCount: 2
Fore
SplineSet
1034 129 m 1,0,1
 1003 97 1003 97 966 70 c 128,-1,2
 929 43 929 43 884 23.5 c 128,-1,3
 839 4 839 4 784.5 -6.5 c 128,-1,4
 730 -17 730 -17 663 -17 c 0,5,6
 530 -17 530 -17 433 30 c 128,-1,7
 336 77 336 77 273 156 c 128,-1,8
 210 235 210 235 180 337 c 128,-1,9
 150 439 150 439 150 550 c 0,10,11
 150 621 150 621 164.5 690.5 c 128,-1,12
 179 760 179 760 206.5 823 c 128,-1,13
 234 886 234 886 275.5 940 c 128,-1,14
 317 994 317 994 371.5 1033 c 128,-1,15
 426 1072 426 1072 492.5 1094.5 c 128,-1,16
 559 1117 559 1117 638 1117 c 0,17,18
 746 1117 746 1117 833 1082 c 128,-1,19
 920 1047 920 1047 981 984 c 128,-1,20
 1042 921 1042 921 1075 832.5 c 128,-1,21
 1108 744 1108 744 1108 638 c 0,22,23
 1108 607 1108 607 1106 570 c 128,-1,24
 1104 533 1104 533 1100 500 c 1,25,-1
 340 500 l 1,26,27
 340 423 340 423 364 357.5 c 128,-1,28
 388 292 388 292 429.5 244.5 c 128,-1,29
 471 197 471 197 527.5 170 c 128,-1,30
 584 143 584 143 650 143 c 0,31,32
 714 143 714 143 759.5 152.5 c 128,-1,33
 805 162 805 162 836.5 176 c 128,-1,34
 868 190 868 190 889 206 c 128,-1,35
 910 222 910 222 925 236 c 1,36,-1
 1034 129 l 1,0,1
932 650 m 1,37,-1
 932 694 l 2,38,39
 932 751 932 751 909.5 799 c 128,-1,40
 887 847 887 847 848.5 882.5 c 128,-1,41
 810 918 810 918 759.5 938 c 128,-1,42
 709 958 709 958 653 958 c 0,43,44
 586 958 586 958 535.5 936.5 c 128,-1,45
 485 915 485 915 449 881.5 c 128,-1,46
 413 848 413 848 391 808 c 128,-1,47
 369 768 369 768 359 732 c 1,48,-1
 300 618 l 1,49,-1
 485 650 l 1,50,-1
 932 650 l 1,37,-1
400 1500 m 1,51,-1
 600 1500 l 1,52,-1
 600 1300 l 1,53,-1
 400 1300 l 1,54,-1
 400 1500 l 1,51,-1
800 1500 m 1,55,-1
 1000 1500 l 1,56,-1
 1000 1300 l 1,57,-1
 800 1300 l 1,58,-1
 800 1500 l 1,55,-1
EndSplineSet
EndChar

StartChar: igrave
Encoding: 236 236 159
Width: 1300
Flags: W
LayerCount: 2
Fore
SplineSet
711 393 m 2,0,1
 711 341 711 341 717.5 297 c 128,-1,2
 724 253 724 253 739 221 c 128,-1,3
 754 189 754 189 779 171 c 128,-1,4
 804 153 804 153 841 153 c 0,5,6
 890 153 890 153 936.5 161 c 128,-1,7
 983 169 983 169 1020 179.5 c 128,-1,8
 1057 190 1057 190 1081.5 199 c 128,-1,9
 1106 208 1106 208 1112 210 c 1,10,-1
 1151 56 l 1,11,12
 1145 53 1145 53 1119 41 c 128,-1,13
 1093 29 1093 29 1051 16.5 c 128,-1,14
 1009 4 1009 4 953 -6.5 c 128,-1,15
 897 -17 897 -17 831 -17 c 0,16,17
 733 -17 733 -17 672.5 15 c 128,-1,18
 612 47 612 47 578 103.5 c 128,-1,19
 544 160 544 160 532.5 237 c 128,-1,20
 521 314 521 314 521 403 c 2,21,-1
 521 970 l 1,22,-1
 421 940 l 1,23,-1
 220 940 l 1,24,-1
 200 1100 l 1,25,-1
 711 1100 l 1,26,-1
 711 393 l 2,0,1
660 1200 m 1,27,-1
 510 1200 l 1,28,-1
 285 1500 l 1,29,-1
 489 1520 l 1,30,-1
 660 1200 l 1,27,-1
EndSplineSet
EndChar

StartChar: iacute
Encoding: 237 237 160
Width: 1300
Flags: W
LayerCount: 2
Fore
SplineSet
711 393 m 2,0,1
 711 341 711 341 717.5 297 c 128,-1,2
 724 253 724 253 739 221 c 128,-1,3
 754 189 754 189 779 171 c 128,-1,4
 804 153 804 153 841 153 c 0,5,6
 890 153 890 153 936.5 161 c 128,-1,7
 983 169 983 169 1020 179.5 c 128,-1,8
 1057 190 1057 190 1081.5 199 c 128,-1,9
 1106 208 1106 208 1112 210 c 1,10,-1
 1151 56 l 1,11,12
 1145 53 1145 53 1119 41 c 128,-1,13
 1093 29 1093 29 1051 16.5 c 128,-1,14
 1009 4 1009 4 953 -6.5 c 128,-1,15
 897 -17 897 -17 831 -17 c 0,16,17
 733 -17 733 -17 672.5 15 c 128,-1,18
 612 47 612 47 578 103.5 c 128,-1,19
 544 160 544 160 532.5 237 c 128,-1,20
 521 314 521 314 521 403 c 2,21,-1
 521 970 l 1,22,-1
 421 940 l 1,23,-1
 220 940 l 1,24,-1
 200 1100 l 1,25,-1
 711 1100 l 1,26,-1
 711 393 l 2,0,1
720 1500 m 1,27,-1
 950 1520 l 1,28,-1
 710 1200 l 1,29,-1
 560 1200 l 1,30,-1
 720 1500 l 1,27,-1
EndSplineSet
EndChar

StartChar: icircumflex
Encoding: 238 238 161
Width: 1300
Flags: W
LayerCount: 2
Fore
SplineSet
711 393 m 2,0,1
 711 341 711 341 717.5 297 c 128,-1,2
 724 253 724 253 739 221 c 128,-1,3
 754 189 754 189 779 171 c 128,-1,4
 804 153 804 153 841 153 c 0,5,6
 890 153 890 153 936.5 161 c 128,-1,7
 983 169 983 169 1020 179.5 c 128,-1,8
 1057 190 1057 190 1081.5 199 c 128,-1,9
 1106 208 1106 208 1112 210 c 1,10,-1
 1151 56 l 1,11,12
 1145 53 1145 53 1119 41 c 128,-1,13
 1093 29 1093 29 1051 16.5 c 128,-1,14
 1009 4 1009 4 953 -6.5 c 128,-1,15
 897 -17 897 -17 831 -17 c 0,16,17
 733 -17 733 -17 672.5 15 c 128,-1,18
 612 47 612 47 578 103.5 c 128,-1,19
 544 160 544 160 532.5 237 c 128,-1,20
 521 314 521 314 521 403 c 2,21,-1
 521 970 l 1,22,-1
 421 940 l 1,23,-1
 220 940 l 1,24,-1
 200 1100 l 1,25,-1
 711 1100 l 1,26,-1
 711 393 l 2,0,1
881 1220 m 1,27,-1
 731 1220 l 1,28,-1
 631 1372 l 1,29,-1
 601 1460 l 1,30,-1
 571 1373 l 1,31,-1
 470 1220 l 1,32,-1
 320 1220 l 1,33,-1
 496 1500 l 1,34,-1
 696 1520 l 1,35,-1
 881 1220 l 1,27,-1
EndSplineSet
EndChar

StartChar: idieresis
Encoding: 239 239 162
Width: 1300
Flags: W
LayerCount: 2
Fore
SplineSet
711 393 m 2,0,1
 711 341 711 341 717.5 297 c 128,-1,2
 724 253 724 253 739 221 c 128,-1,3
 754 189 754 189 779 171 c 128,-1,4
 804 153 804 153 841 153 c 0,5,6
 890 153 890 153 936.5 161 c 128,-1,7
 983 169 983 169 1020 179.5 c 128,-1,8
 1057 190 1057 190 1081.5 199 c 128,-1,9
 1106 208 1106 208 1112 210 c 1,10,-1
 1151 56 l 1,11,12
 1145 53 1145 53 1119 41 c 128,-1,13
 1093 29 1093 29 1051 16.5 c 128,-1,14
 1009 4 1009 4 953 -6.5 c 128,-1,15
 897 -17 897 -17 831 -17 c 0,16,17
 733 -17 733 -17 672.5 15 c 128,-1,18
 612 47 612 47 578 103.5 c 128,-1,19
 544 160 544 160 532.5 237 c 128,-1,20
 521 314 521 314 521 403 c 2,21,-1
 521 970 l 1,22,-1
 421 940 l 1,23,-1
 220 940 l 1,24,-1
 200 1100 l 1,25,-1
 711 1100 l 1,26,-1
 711 393 l 2,0,1
700 1500 m 1,27,-1
 900 1500 l 1,28,-1
 900 1300 l 1,29,-1
 700 1300 l 1,30,-1
 700 1500 l 1,27,-1
300 1500 m 1,31,-1
 500 1500 l 1,32,-1
 500 1300 l 1,33,-1
 300 1300 l 1,34,-1
 300 1500 l 1,31,-1
EndSplineSet
EndChar

StartChar: ntilde
Encoding: 241 241 163
Width: 1300
Flags: W
LayerCount: 2
Fore
SplineSet
390 0 m 1,0,-1
 210 0 l 1,1,-1
 210 1100 l 1,2,-1
 390 1120 l 1,3,-1
 390 927 l 1,4,-1
 451 1044 l 1,5,6
 469 1056 469 1056 493.5 1069 c 128,-1,7
 518 1082 518 1082 553 1092.5 c 128,-1,8
 588 1103 588 1103 636 1110 c 128,-1,9
 684 1117 684 1117 749 1117 c 0,10,11
 828 1117 828 1117 891.5 1091.5 c 128,-1,12
 955 1066 955 1066 998.5 1018 c 128,-1,13
 1042 970 1042 970 1065.5 902 c 128,-1,14
 1089 834 1089 834 1089 750 c 2,15,-1
 1089 0 l 1,16,-1
 909 0 l 1,17,-1
 909 750 l 2,18,19
 909 804 909 804 891.5 843 c 128,-1,20
 874 882 874 882 843 907.5 c 128,-1,21
 812 933 812 933 771 945 c 128,-1,22
 730 957 730 957 684 957 c 0,23,24
 636 957 636 957 591.5 945 c 128,-1,25
 547 933 547 933 509 914.5 c 128,-1,26
 471 896 471 896 440.5 874.5 c 128,-1,27
 410 853 410 853 390 834 c 1,28,-1
 390 0 l 1,0,-1
387 1275 m 1,29,30
 391 1315 391 1315 406.5 1353 c 128,-1,31
 422 1391 422 1391 446.5 1420 c 128,-1,32
 471 1449 471 1449 502 1466.5 c 128,-1,33
 533 1484 533 1484 569 1484 c 0,34,35
 608 1484 608 1484 642 1470 c 128,-1,36
 676 1456 676 1456 707 1439 c 128,-1,37
 738 1422 738 1422 768 1408 c 128,-1,38
 798 1394 798 1394 829 1394 c 0,39,40
 850 1394 850 1394 866 1404.5 c 128,-1,41
 882 1415 882 1415 893 1430.5 c 128,-1,42
 904 1446 904 1446 911 1465 c 128,-1,43
 918 1484 918 1484 921 1502 c 1,44,-1
 1017 1498 l 1,45,46
 1014 1454 1014 1454 997.5 1413 c 128,-1,47
 981 1372 981 1372 955.5 1340.5 c 128,-1,48
 930 1309 930 1309 895.5 1290 c 128,-1,49
 861 1271 861 1271 822 1271 c 0,50,51
 790 1271 790 1271 759 1285 c 128,-1,52
 728 1299 728 1299 696 1315.5 c 128,-1,53
 664 1332 664 1332 631 1346 c 128,-1,54
 598 1360 598 1360 563 1360 c 0,55,56
 545 1360 545 1360 530.5 1352 c 128,-1,57
 516 1344 516 1344 504.5 1331 c 128,-1,58
 493 1318 493 1318 485 1302.5 c 128,-1,59
 477 1287 477 1287 473 1272 c 1,60,-1
 387 1275 l 1,29,30
EndSplineSet
EndChar

StartChar: ograve
Encoding: 242 242 164
Width: 1300
Flags: W
LayerCount: 2
Fore
SplineSet
649 -17 m 0,0,1
 538 -17 538 -17 445.5 26.5 c 128,-1,2
 353 70 353 70 286 146.5 c 128,-1,3
 219 223 219 223 181.5 327 c 128,-1,4
 144 431 144 431 144 553 c 0,5,6
 144 674 144 674 180 777.5 c 128,-1,7
 216 881 216 881 282 956.5 c 128,-1,8
 348 1032 348 1032 441.5 1074.5 c 128,-1,9
 535 1117 535 1117 649 1117 c 0,10,11
 760 1117 760 1117 851 1074.5 c 128,-1,12
 942 1032 942 1032 1007.5 956.5 c 128,-1,13
 1073 881 1073 881 1109 777.5 c 128,-1,14
 1145 674 1145 674 1145 553 c 0,15,16
 1145 431 1145 431 1110.5 327 c 128,-1,17
 1076 223 1076 223 1011.5 146.5 c 128,-1,18
 947 70 947 70 855 26.5 c 128,-1,19
 763 -17 763 -17 649 -17 c 0,0,1
955 526 m 0,20,21
 955 607 955 607 938 685 c 128,-1,22
 921 763 921 763 884 824.5 c 128,-1,23
 847 886 847 886 788 924 c 128,-1,24
 729 962 729 962 645 962 c 0,25,26
 565 962 565 962 506 929 c 128,-1,27
 447 896 447 896 409 841 c 128,-1,28
 371 786 371 786 352.5 716 c 128,-1,29
 334 646 334 646 334 572 c 0,30,31
 334 491 334 491 352.5 413 c 128,-1,32
 371 335 371 335 409.5 274 c 128,-1,33
 448 213 448 213 508.5 175.5 c 128,-1,34
 569 138 569 138 653 138 c 0,35,36
 732 138 732 138 789.5 171 c 128,-1,37
 847 204 847 204 883.5 258.5 c 128,-1,38
 920 313 920 313 937.5 382.5 c 128,-1,39
 955 452 955 452 955 526 c 0,20,21
787 1200 m 1,40,-1
 637 1200 l 1,41,-1
 412 1500 l 1,42,-1
 616 1520 l 1,43,-1
 787 1200 l 1,40,-1
EndSplineSet
EndChar

StartChar: oacute
Encoding: 243 243 165
Width: 1300
Flags: W
LayerCount: 2
Fore
SplineSet
649 -17 m 0,0,1
 538 -17 538 -17 445.5 26.5 c 128,-1,2
 353 70 353 70 286 146.5 c 128,-1,3
 219 223 219 223 181.5 327 c 128,-1,4
 144 431 144 431 144 553 c 0,5,6
 144 674 144 674 180 777.5 c 128,-1,7
 216 881 216 881 282 956.5 c 128,-1,8
 348 1032 348 1032 441.5 1074.5 c 128,-1,9
 535 1117 535 1117 649 1117 c 0,10,11
 760 1117 760 1117 851 1074.5 c 128,-1,12
 942 1032 942 1032 1007.5 956.5 c 128,-1,13
 1073 881 1073 881 1109 777.5 c 128,-1,14
 1145 674 1145 674 1145 553 c 0,15,16
 1145 431 1145 431 1110.5 327 c 128,-1,17
 1076 223 1076 223 1011.5 146.5 c 128,-1,18
 947 70 947 70 855 26.5 c 128,-1,19
 763 -17 763 -17 649 -17 c 0,0,1
955 526 m 0,20,21
 955 607 955 607 938 685 c 128,-1,22
 921 763 921 763 884 824.5 c 128,-1,23
 847 886 847 886 788 924 c 128,-1,24
 729 962 729 962 645 962 c 0,25,26
 565 962 565 962 506 929 c 128,-1,27
 447 896 447 896 409 841 c 128,-1,28
 371 786 371 786 352.5 716 c 128,-1,29
 334 646 334 646 334 572 c 0,30,31
 334 491 334 491 352.5 413 c 128,-1,32
 371 335 371 335 409.5 274 c 128,-1,33
 448 213 448 213 508.5 175.5 c 128,-1,34
 569 138 569 138 653 138 c 0,35,36
 732 138 732 138 789.5 171 c 128,-1,37
 847 204 847 204 883.5 258.5 c 128,-1,38
 920 313 920 313 937.5 382.5 c 128,-1,39
 955 452 955 452 955 526 c 0,20,21
700 1500 m 1,40,-1
 930 1520 l 1,41,-1
 690 1200 l 1,42,-1
 540 1200 l 1,43,-1
 700 1500 l 1,40,-1
EndSplineSet
EndChar

StartChar: ocircumflex
Encoding: 244 244 166
Width: 1300
Flags: W
LayerCount: 2
Fore
SplineSet
649 -17 m 0,0,1
 538 -17 538 -17 445.5 26.5 c 128,-1,2
 353 70 353 70 286 146.5 c 128,-1,3
 219 223 219 223 181.5 327 c 128,-1,4
 144 431 144 431 144 553 c 0,5,6
 144 674 144 674 180 777.5 c 128,-1,7
 216 881 216 881 282 956.5 c 128,-1,8
 348 1032 348 1032 441.5 1074.5 c 128,-1,9
 535 1117 535 1117 649 1117 c 0,10,11
 760 1117 760 1117 851 1074.5 c 128,-1,12
 942 1032 942 1032 1007.5 956.5 c 128,-1,13
 1073 881 1073 881 1109 777.5 c 128,-1,14
 1145 674 1145 674 1145 553 c 0,15,16
 1145 431 1145 431 1110.5 327 c 128,-1,17
 1076 223 1076 223 1011.5 146.5 c 128,-1,18
 947 70 947 70 855 26.5 c 128,-1,19
 763 -17 763 -17 649 -17 c 0,0,1
955 526 m 0,20,21
 955 607 955 607 938 685 c 128,-1,22
 921 763 921 763 884 824.5 c 128,-1,23
 847 886 847 886 788 924 c 128,-1,24
 729 962 729 962 645 962 c 0,25,26
 565 962 565 962 506 929 c 128,-1,27
 447 896 447 896 409 841 c 128,-1,28
 371 786 371 786 352.5 716 c 128,-1,29
 334 646 334 646 334 572 c 0,30,31
 334 491 334 491 352.5 413 c 128,-1,32
 371 335 371 335 409.5 274 c 128,-1,33
 448 213 448 213 508.5 175.5 c 128,-1,34
 569 138 569 138 653 138 c 0,35,36
 732 138 732 138 789.5 171 c 128,-1,37
 847 204 847 204 883.5 258.5 c 128,-1,38
 920 313 920 313 937.5 382.5 c 128,-1,39
 955 452 955 452 955 526 c 0,20,21
930 1220 m 1,40,-1
 780 1220 l 1,41,-1
 680 1372 l 1,42,-1
 650 1460 l 1,43,-1
 620 1373 l 1,44,-1
 519 1220 l 1,45,-1
 369 1220 l 1,46,-1
 545 1500 l 1,47,-1
 745 1520 l 1,48,-1
 930 1220 l 1,40,-1
EndSplineSet
EndChar

